<?xml version="1.0" standalone="no"?><!DOCTYPE svg PUBLIC "-//W3C//DTD SVG 1.1//EN" "http://www.w3.org/Graphics/SVG/1.1/DTD/svg11.dtd"><svg height="1024" node-id="1" sillyvg="true" template-height="1024" template-width="1024" version="1.1" viewBox="0 0 1024 1024" width="1024" xmlns="http://www.w3.org/2000/svg" xmlns:xlink="http://www.w3.org/1999/xlink"><defs node-id="20"><linearGradient gradientUnits="userSpaceOnUse" id="paint0_linear_604_1423" node-id="8" spreadMethod="pad" x1="-139.458" x2="-139.458" y1="0" y2="1302.92"><stop offset="0.0677083" stop-color="#ff8cd1"></stop><stop offset="0.828125" stop-color="#ffe05b"></stop></linearGradient><linearGradient gradientUnits="userSpaceOnUse" id="paint1_linear_604_1423" node-id="11" spreadMethod="pad" x1="1111.1" x2="1111.1" y1="585.143" y2="1008.59"><stop offset="0" stop-color="#ffb022"></stop><stop offset="1" stop-color="#ffd6be"></stop></linearGradient><linearGradient gradientUnits="userSpaceOnUse" id="paint2_linear_604_1423" node-id="14" spreadMethod="pad" x1="-197.901" x2="-197.901" y1="654.56" y2="1032.68"><stop offset="0" stop-color="#fed54c"></stop><stop offset="1" stop-color="#fedd3a"></stop></linearGradient><clipPath id="clip0_604_1423" node-id="17"><path d="M 160.00 0.00 L 864.00 0.00 C 952.37 0.00 1024.00 71.63 1024.00 160.00 L 1024.00 864.00 C 1024.00 952.37 952.37 1024.00 864.00 1024.00 L 160.00 1024.00 C 71.63 1024.00 0.00 952.37 0.00 864.00 L 0.00 160.00 C -0.00 71.63 71.63 0.00 160.00 0.00 Z" fill="#000000" fill-rule="nonzero" node-id="41" stroke="none" target-height="1024" target-width="1024" target-x="0" target-y="0"></path></clipPath></defs><g clip-path="url(#clip0_604_1423)" id="sillyvg_g_0" node-id="45"><path d="M 160.00 0.00 L 864.00 0.00 C 952.37 0.00 1024.00 71.63 1024.00 160.00 L 1024.00 864.00 C 1024.00 952.37 952.37 1024.00 864.00 1024.00 L 160.00 1024.00 C 71.63 1024.00 0.00 952.37 0.00 864.00 L 0.00 160.00 C -0.00 71.63 71.63 0.00 160.00 0.00 Z" fill="url(#paint0_linear_604_1423)" fill-rule="nonzero" node-id="47" stroke="none" target-height="1024" target-width="1024" target-x="0" target-y="0"></path><path d="M 1111.10 675.98 C 1111.10 675.98 965.89 585.14 856.21 585.14 C 711.12 585.14 614.12 709.03 496.76 709.03 C 359.99 709.03 342.77 673.23 266.07 673.23 C 157.67 673.23 14.60 740.35 -60.85 716.13 C -121.74 696.58 -195.05 657.09 -195.05 657.09 L -195.05 988.66 L 1111.10 1008.59 L 1111.10 675.98 Z" fill="url(#paint1_linear_604_1423)" fill-rule="evenodd" node-id="49" stroke="none" target-height="423.45" target-width="1306.15" target-x="-195.05" target-y="585.14"></path><path d="M -197.90 897.51 C -197.90 897.51 -191.28 688.90 -41.17 656.28 C 90.08 636.89 191.26 787.45 308.62 787.45 C 445.40 787.45 509.86 700.07 642.65 700.07 C 739.51 700.07 834.08 776.03 965.98 749.70 C 1258.93 691.21 1108.25 681.18 1108.25 681.18 L 1108.25 1012.75 L -197.90 1032.68 L -197.90 897.51 Z" fill="url(#paint2_linear_604_1423)" fill-rule="evenodd" node-id="51" stroke="none" target-height="395.79004" target-width="1456.8301" target-x="-197.9" target-y="636.89"></path><path d="M 487.62 243.81 C 487.62 290.94 449.41 329.14 402.29 329.14 C 355.16 329.14 316.95 290.94 316.95 243.81 C 316.95 196.68 355.16 158.48 402.29 158.48 C 449.41 158.48 487.62 196.68 487.62 243.81 Z" fill="#fff9c7" fill-rule="nonzero" node-id="53" stroke="none" target-height="170.66002" target-width="170.66998" target-x="316.95" target-y="158.48"></path></g></svg>