<?xml version="1.0" standalone="no"?><!DOCTYPE svg PUBLIC "-//W3C//DTD SVG 1.1//EN" "http://www.w3.org/Graphics/SVG/1.1/DTD/svg11.dtd"><svg height="1024" node-id="1" sillyvg="true" template-height="1024" template-width="1024" version="1.1" viewBox="0 0 1024 1024" width="1024" xmlns="http://www.w3.org/2000/svg" xmlns:xlink="http://www.w3.org/1999/xlink"><defs node-id="47"><linearGradient gradientUnits="userSpaceOnUse" id="paint0_linear_609_3765" node-id="29" spreadMethod="pad" x1="462.808" x2="623.435" y1="222.871" y2="556.173"><stop offset="0" stop-color="#a0a6c3"></stop><stop offset="1" stop-color="#a09ec4"></stop></linearGradient><linearGradient gradientUnits="userSpaceOnUse" id="paint1_linear_609_3765" node-id="32" spreadMethod="pad" x1="1341.97" x2="1024" y1="865.017" y2="-158.983"><stop offset="0" stop-color="#a098c5"></stop><stop offset="1" stop-color="#a0a7c3"></stop></linearGradient><linearGradient gradientUnits="userSpaceOnUse" id="paint2_linear_609_3765" node-id="35" spreadMethod="pad" x1="461.454" x2="349.477" y1="3.92859" y2="227.909"><stop offset="0" stop-color="#ffffff"></stop><stop offset="1" stop-color="#ffffff" stop-opacity="0.01"></stop></linearGradient><linearGradient gradientUnits="userSpaceOnUse" id="paint3_linear_609_3765" node-id="38" spreadMethod="pad" x1="223.814" x2="292.903" y1="7.23787" y2="598.724"><stop offset="0" stop-color="#bac1f7"></stop><stop offset="1" stop-color="#f1f1f1" stop-opacity="0.501584"></stop></linearGradient><linearGradient gradientUnits="userSpaceOnUse" id="paint4_linear_609_3765" node-id="41" spreadMethod="pad" x1="220.116" x2="432.92" y1="-152.243" y2="234.892"><stop offset="0" stop-color="#ffffff"></stop><stop offset="1" stop-color="#ffffff" stop-opacity="0.01"></stop></linearGradient><clipPath id="clip0_609_3765" node-id="44"><path d="M 160.00 0.00 L 864.00 0.00 C 952.37 0.00 1024.00 71.63 1024.00 160.00 L 1024.00 864.00 C 1024.00 952.37 952.37 1024.00 864.00 1024.00 L 160.00 1024.00 C 71.63 1024.00 0.00 952.37 0.00 864.00 L 0.00 160.00 C -0.00 71.63 71.63 0.00 160.00 0.00 Z" fill="#000000" fill-rule="nonzero" node-id="80" stroke="none" target-height="1024" target-width="1024" target-x="0" target-y="0"></path></clipPath></defs><g clip-path="url(#clip0_609_3765)" id="sillyvg_g_0" node-id="84"><path d="M 160.00 0.00 L 864.00 0.00 C 952.37 0.00 1024.00 71.63 1024.00 160.00 L 1024.00 864.00 C 1024.00 952.37 952.37 1024.00 864.00 1024.00 L 160.00 1024.00 C 71.63 1024.00 0.00 952.37 0.00 864.00 L 0.00 160.00 C -0.00 71.63 71.63 0.00 160.00 0.00 Z" fill="url(#paint0_linear_609_3765)" fill-rule="nonzero" node-id="86" stroke="none" target-height="1024" target-width="1024" target-x="0" target-y="0"></path><path d="M 1024.00 512.00 C 1024.00 647.79 970.06 778.02 874.04 874.04 C 778.02 970.06 647.79 1024.00 512.00 1024.00 C 376.21 1024.00 245.98 970.06 149.96 874.04 C 53.94 778.02 0.00 647.79 0.00 512.00 C 0.00 376.21 53.94 245.98 149.96 149.96 C 245.98 53.94 376.21 0.00 512.00 0.00 C 647.79 -0.00 778.02 53.94 874.04 149.96 C 970.06 245.98 1024.00 376.21 1024.00 512.00 Z" fill="url(#paint1_linear_609_3765)" fill-rule="nonzero" node-id="88" stroke="none" target-height="1024" target-width="1024" target-x="0" target-y="0"></path><path d="M 430.00 428.07 C 407.50 409.46 375.00 426.00 357.50 411.00 C 334.11 390.95 328.80 385.71 307.44 380.23 C 287.94 375.23 270.28 386.54 251.50 361.50 C 238.00 343.50 225.27 345.32 208.97 349.32 C 192.68 353.32 187.68 348.89 165.75 330.75 C 151.25 318.75 138.50 309.21 108.00 315.50 C 9.54 335.81 11.97 310.21 -6.53 303.19 C -24.31 343.06 -2.93 383.59 -10.04 428.07 C 62.42 435.67 100.75 434.89 129.00 444.00 C 160.00 454.00 461.33 515.00 466.67 512.00 C 472.00 509.00 475.54 461.39 475.54 461.39 C 445.28 455.92 444.87 440.37 430.00 428.07 Z" fill="#36b294" fill-rule="nonzero" node-id="90" stroke="none" target-height="211.81" target-width="499.85" target-x="-24.31" target-y="303.19"></path><path d="M 430.00 428.07 C 407.50 409.46 375.00 426.00 357.50 411.00 C 334.11 390.95 328.80 385.71 307.44 380.23 C 287.94 375.23 270.28 386.54 251.50 361.50 C 238.00 343.50 225.27 345.32 208.97 349.32 C 192.68 353.32 187.68 348.89 165.75 330.75 C 151.25 318.75 138.50 309.21 108.00 315.50 C 9.54 335.81 11.97 310.21 -6.53 303.19 C -24.31 343.06 -2.93 383.59 -10.04 428.07 C 62.42 435.67 100.75 434.89 129.00 444.00 C 160.00 454.00 461.33 515.00 466.67 512.00 C 472.00 509.00 475.54 461.39 475.54 461.39 C 445.28 455.92 444.87 440.37 430.00 428.07 Z" fill="#5d6583" fill-opacity="0.738227" fill-rule="nonzero" node-id="92" stroke="none" target-height="211.81" target-width="499.85" target-x="-24.31" target-y="303.19"></path><path d="M 845.01 554.04 C 839.42 554.04 834.90 549.51 834.90 543.93 L 834.90 435.14 C 834.90 429.56 839.42 425.04 845.01 425.04 C 850.59 425.04 855.12 429.56 855.12 435.14 L 855.12 543.93 C 855.12 549.51 850.59 554.04 845.01 554.04 Z" fill="#674447" fill-rule="nonzero" node-id="94" stroke="none" target-height="128.99997" target-width="20.21997" target-x="834.9" target-y="425.04"></path><path d="M 845.01 554.04 C 839.42 554.04 834.90 549.51 834.90 543.93 L 834.90 435.14 C 834.90 429.56 839.42 425.04 845.01 425.04 C 850.59 425.04 855.12 429.56 855.12 435.14 L 855.12 543.93 C 855.12 549.51 850.59 554.04 845.01 554.04 Z" fill="#8588a6" fill-opacity="0.469706" fill-rule="nonzero" node-id="96" stroke="none" target-height="128.99997" target-width="20.21997" target-x="834.9" target-y="425.04"></path><path d="M 908.67 425.87 C 908.67 461.03 880.17 489.54 845.01 489.54 C 809.84 489.54 781.34 461.03 781.34 425.87 C 781.34 390.71 809.84 282.62 845.01 282.62 C 880.17 282.62 908.67 390.71 908.67 425.87 Z" fill="#43ab5f" fill-rule="nonzero" node-id="98" stroke="none" target-height="206.92001" target-width="127.329956" target-x="781.34" target-y="282.62"></path><path d="M 908.67 425.87 C 908.67 461.03 880.17 489.54 845.01 489.54 C 809.84 489.54 781.34 461.03 781.34 425.87 C 781.34 390.71 809.84 282.62 845.01 282.62 C 880.17 282.62 908.67 390.71 908.67 425.87 Z" fill="#a0a7c3" fill-opacity="0.398585" fill-rule="nonzero" node-id="100" stroke="none" target-height="206.92001" target-width="127.329956" target-x="781.34" target-y="282.62"></path><path d="M 845.01 282.62 C 836.18 282.62 827.77 289.44 820.13 300.20 L 820.13 300.20 C 852.32 300.20 878.40 399.13 878.40 431.31 C 878.40 459.31 858.65 482.65 832.33 488.26 C 836.43 489.09 840.66 489.54 845.00 489.54 C 880.17 489.54 908.67 461.03 908.67 425.87 C 908.67 390.71 880.17 282.62 845.01 282.62 Z" fill="#71be63" fill-rule="nonzero" node-id="102" stroke="none" target-height="206.92001" target-width="88.53998" target-x="820.13" target-y="282.62"></path><path d="M 845.01 282.62 C 836.18 282.62 827.77 289.44 820.13 300.20 L 820.13 300.20 C 852.32 300.20 878.40 399.13 878.40 431.31 C 878.40 459.31 858.65 482.65 832.33 488.26 C 836.43 489.09 840.66 489.54 845.00 489.54 C 880.17 489.54 908.67 461.03 908.67 425.87 C 908.67 390.71 880.17 282.62 845.01 282.62 Z" fill="#a0a7c3" fill-opacity="0.45" fill-rule="nonzero" node-id="104" stroke="none" target-height="206.92001" target-width="88.53998" target-x="820.13" target-y="282.62"></path><path d="M 328.59 130.00 C 328.59 111.12 343.90 95.81 362.78 95.81 C 365.63 95.81 368.36 96.26 371.00 96.92 C 379.93 87.28 392.58 81.15 406.74 81.15 C 433.72 81.15 455.59 103.02 455.59 130.00 L 328.59 130.00 Z" fill="#ffffff" fill-opacity="0.299991" fill-rule="nonzero" group-id="1" node-id="108" stroke="none" target-height="48.85" target-width="127" target-x="328.59" target-y="81.15"></path><path d="M 527.76 496.00 C 514.30 496.00 512.05 482.69 510.73 480.00 C 496.00 450.00 478.17 464.00 448.91 464.00 C 426.03 464.00 421.35 430.67 408.59 432.00 C 395.82 433.33 375.25 454.67 357.51 448.00 C 332.07 438.43 331.27 424.00 306.44 416.00 C 284.53 408.94 266.01 414.00 255.37 400.00 C 234.65 372.74 219.72 402.50 187.27 384.00 C 154.26 365.18 144.00 400.00 119.17 400.00 C 93.09 400.00 102.15 368.00 68.10 368.00 C 48.81 368.00 17.37 393.35 -7.03 400.00 C -15.47 436.62 -0.00 472.86 -0.00 512.00 C -0.00 532.18 1.32 552.05 3.62 571.63 C 11.45 578.89 19.92 585.28 28.41 588.93 C 58.84 602.00 698.00 613.23 698.00 613.23 L 698.00 560.00 C 651.18 560.00 651.18 528.00 612.88 528.00 C 561.27 528.00 566.06 496.00 527.76 496.00 Z" fill="#59928e" fill-rule="nonzero" node-id="111" stroke="none" target-height="248.04999" target-width="713.47" target-x="-15.47" target-y="365.18"></path><path d="M 214.00 867.10 L 688.00 613.23 L 676.00 587.33 C 561.23 587.33 362.07 470.66 0.00 512.00 C 0.00 639.53 -32.47 751.65 44.67 841.29 C 93.13 852.86 214.00 867.10 214.00 867.10 Z" fill="#739a8f" fill-rule="nonzero" node-id="113" stroke="none" target-height="396.43997" target-width="720.47" target-x="-32.47" target-y="470.66"></path><path d="M 676.00 587.33 C 570.75 587.33 394.44 489.32 86.71 504.91 C 360.30 505.14 528.08 627.61 614.00 627.61 L 638.00 618.66 L 676.71 588.88 L 676.00 587.33 Z" fill="#87ada2" fill-rule="nonzero" node-id="115" stroke="none" target-height="138.28998" target-width="590" target-x="86.71" target-y="489.32"></path><path d="M 457.32 115.33 C 461.59 115.33 465.69 116.01 469.66 117.00 C 483.05 102.53 490.68 93.33 523.32 93.33 C 555.95 93.33 586.04 120.51 587.43 150.53 C 588.82 180.54 576.99 192.67 475.43 192.67 C 411.03 192.67 411.03 172.32 411.03 150.53 C 411.03 128.73 435.57 115.33 457.32 115.33 Z" fill="url(#paint2_linear_609_3765)" fill-opacity="0.9" fill-rule="nonzero" group-id="2" node-id="119" stroke="none" target-height="99.34" target-width="177.79001" target-x="411.03" target-y="93.33"></path><path d="M -14.56 706.26 C -29.62 884.96 2.64 1084.24 210.32 1084.24 C 1488.31 1084.24 1024.00 794.77 1024.00 512.00 C 1024.00 506.66 1023.76 501.37 1023.60 496.07 C 665.49 497.71 358.35 791.82 -14.56 706.26 Z" fill="#71be63" fill-rule="nonzero" node-id="122" stroke="none" target-height="588.17" target-width="1517.93" target-x="-29.62" target-y="496.07"></path><path d="M -14.56 706.26 C -29.62 884.96 2.64 1084.24 210.32 1084.24 C 1488.31 1084.24 1024.00 794.77 1024.00 512.00 C 1024.00 506.66 1023.76 501.37 1023.60 496.07 C 665.49 497.71 358.35 791.82 -14.56 706.26 Z" fill="#477468" fill-rule="nonzero" node-id="124" stroke="none" target-height="588.17" target-width="1517.93" target-x="-29.62" target-y="496.07"></path><path d="M 698.00 618.66 C 691.67 618.66 686.53 613.53 686.53 607.20 L 686.53 483.74 C 686.53 477.41 691.66 472.28 698.00 472.28 C 704.34 472.28 709.47 477.41 709.47 483.74 L 709.47 607.20 C 709.47 613.53 704.34 618.66 698.00 618.66 Z" fill="#674447" fill-rule="nonzero" node-id="126" stroke="none" target-height="146.37997" target-width="22.939941" target-x="686.53" target-y="472.28"></path><path d="M 698.00 618.66 C 691.67 618.66 686.53 613.53 686.53 607.20 L 686.53 483.74 C 686.53 477.41 691.66 472.28 698.00 472.28 C 704.34 472.28 709.47 477.41 709.47 483.74 L 709.47 607.20 C 709.47 613.53 704.34 618.66 698.00 618.66 Z" fill="#8588a6" fill-opacity="0.469706" fill-rule="nonzero" node-id="128" stroke="none" target-height="146.37997" target-width="22.939941" target-x="686.53" target-y="472.28"></path><path d="M 770.25 473.22 C 770.25 513.12 737.90 545.47 698.00 545.47 C 658.10 545.47 625.75 513.12 625.75 473.22 C 625.75 433.32 658.10 310.67 698.00 310.67 C 737.90 310.67 770.25 433.32 770.25 473.22 Z" fill="#43ab5f" fill-rule="nonzero" node-id="130" stroke="none" target-height="234.79996" target-width="144.5" target-x="625.75" target-y="310.67"></path><path d="M 770.25 473.22 C 770.25 513.12 737.90 545.47 698.00 545.47 C 658.10 545.47 625.75 513.12 625.75 473.22 C 625.75 433.32 658.10 310.67 698.00 310.67 C 737.90 310.67 770.25 433.32 770.25 473.22 Z" fill="#a0a7c3" fill-opacity="0.398585" fill-rule="nonzero" node-id="132" stroke="none" target-height="234.79996" target-width="144.5" target-x="625.75" target-y="310.67"></path><path d="M 698.00 310.67 C 687.98 310.67 678.45 318.41 669.77 330.62 L 669.78 330.62 C 706.30 330.62 735.90 442.88 735.90 479.40 C 735.90 511.16 713.48 537.65 683.61 544.02 C 688.26 544.96 693.07 545.47 698.00 545.47 C 737.90 545.47 770.25 513.12 770.25 473.22 C 770.25 433.32 737.90 310.67 698.00 310.67 Z" fill="#71be63" fill-rule="nonzero" node-id="134" stroke="none" target-height="234.79996" target-width="100.47998" target-x="669.77" target-y="310.67"></path><path d="M 698.00 310.67 C 687.98 310.67 678.45 318.41 669.77 330.62 L 669.78 330.62 C 706.30 330.62 735.90 442.88 735.90 479.40 C 735.90 511.16 713.48 537.65 683.61 544.02 C 688.26 544.96 693.07 545.47 698.00 545.47 C 737.90 545.47 770.25 513.12 770.25 473.22 C 770.25 433.32 737.90 310.67 698.00 310.67 Z" fill="#a0a7c3" fill-opacity="0.45" fill-rule="nonzero" node-id="136" stroke="none" target-height="234.79996" target-width="100.47998" target-x="669.77" target-y="310.67"></path><path d="M 297.22 4.10 C 296.97 2.10 298.39 0.27 300.40 0.03 C 302.40 -0.22 304.23 1.21 304.48 3.21 L 319.33 124.21 C 319.58 126.21 318.15 128.04 316.15 128.28 C 314.14 128.53 312.32 127.10 312.07 125.10 L 297.22 4.10 Z M 721.39 33.59 C 719.38 33.83 717.96 35.66 718.20 37.66 L 730.09 134.46 C 730.33 136.47 732.16 137.89 734.16 137.65 C 736.17 137.40 737.59 135.57 737.35 133.57 L 725.46 36.77 C 725.22 34.77 723.39 33.34 721.39 33.59 Z M 732.89 480.91 C 730.88 481.15 729.46 482.98 729.70 484.98 L 741.59 581.78 C 741.83 583.78 743.66 585.21 745.66 584.96 C 747.67 584.72 749.09 582.89 748.85 580.89 L 736.96 484.09 C 736.72 482.09 734.89 480.66 732.89 480.91 Z M 386.03 90.84 C 385.78 88.83 387.21 87.01 389.21 86.76 C 391.22 86.52 393.04 87.94 393.29 89.95 L 397.75 126.25 C 397.99 128.25 396.56 130.07 394.56 130.32 C 392.56 130.57 390.73 129.14 390.49 127.14 L 386.03 90.84 Z M 408.29 271.96 C 408.25 270.11 409.62 268.49 411.50 268.26 C 413.50 268.01 415.33 269.44 415.57 271.44 L 420.03 307.74 C 420.27 309.74 418.85 311.57 416.85 311.81 L 416.85 311.81 C 414.84 312.06 413.02 310.63 412.77 308.63 L 408.31 272.33 C 408.30 272.21 408.29 272.08 408.29 271.96 Z M 456.07 631.24 C 454.19 631.48 452.82 633.09 452.86 634.95 C 452.86 635.07 452.87 635.20 452.88 635.32 L 457.34 671.62 C 457.58 673.62 459.41 675.05 461.41 674.80 C 463.42 674.56 464.85 672.73 464.60 670.73 L 460.14 634.43 C 459.91 632.55 458.29 631.18 456.44 631.22 C 456.32 631.22 456.19 631.23 456.07 631.24 Z M 478.35 812.74 L 478.35 812.74 C 480.36 812.49 482.18 813.92 482.43 815.92 L 482.43 815.92 L 486.88 852.22 C 487.13 854.23 485.70 856.05 483.70 856.30 C 483.57 856.31 483.45 856.32 483.33 856.32 C 481.47 856.36 479.85 854.99 479.62 853.11 L 475.17 816.81 C 475.16 816.77 475.16 816.73 475.15 816.68 C 475.15 816.64 475.15 816.61 475.14 816.57 C 475.14 816.55 475.14 816.54 475.14 816.52 C 475.14 816.49 475.14 816.47 475.14 816.44 C 475.10 814.59 476.47 812.97 478.35 812.74 Z M 500.63 994.23 C 498.76 994.46 497.39 996.08 497.42 997.93 C 497.43 997.99 497.43 998.05 497.43 998.11 C 497.43 998.14 497.44 998.16 497.44 998.19 C 497.44 998.23 497.45 998.27 497.45 998.31 L 501.91 1034.61 C 502.15 1036.61 503.98 1038.04 505.98 1037.79 C 507.99 1037.55 509.41 1035.72 509.17 1033.72 L 504.71 997.42 L 504.71 997.42 C 504.48 995.54 502.86 994.17 501.01 994.21 C 500.88 994.21 500.76 994.22 500.63 994.23 Z M 708.21 326.53 C 706.20 326.77 704.78 328.60 705.02 330.60 L 709.48 366.90 C 709.73 368.91 711.55 370.33 713.56 370.09 C 713.81 370.06 714.05 370.00 714.28 369.92 C 715.89 369.38 716.96 367.76 716.74 366.01 L 712.28 329.71 C 712.04 327.71 710.21 326.28 708.21 326.53 Z M 613.13 283.58 C 611.12 283.83 609.70 285.65 609.94 287.66 L 614.40 323.95 C 614.64 325.96 616.47 327.39 618.48 327.14 C 620.48 326.89 621.90 325.07 621.66 323.06 L 617.20 286.76 C 616.96 284.76 615.13 283.33 613.13 283.58 L 613.13 283.58 Z M 443.68 493.73 C 441.68 493.97 440.25 495.80 440.50 497.80 L 444.95 534.10 C 445.20 536.11 447.02 537.53 449.03 537.28 C 451.03 537.04 452.46 535.21 452.21 533.21 L 447.76 496.91 C 447.53 495.03 445.91 493.66 444.06 493.70 C 443.93 493.70 443.81 493.71 443.68 493.73 Z M 633.71 481.25 C 633.47 479.25 634.89 477.42 636.90 477.18 L 636.93 477.17 L 636.95 477.17 L 636.98 477.17 C 637.02 477.16 637.05 477.16 637.09 477.16 C 637.15 477.15 637.21 477.15 637.27 477.15 C 639.12 477.11 640.74 478.48 640.97 480.36 L 645.43 516.66 C 645.68 518.66 644.25 520.49 642.25 520.73 C 640.24 520.98 638.42 519.55 638.17 517.55 L 633.71 481.25 Z M 660.67 670.77 C 658.79 671.00 657.42 672.62 657.46 674.47 C 657.46 674.59 657.47 674.72 657.48 674.84 L 661.94 711.14 C 662.19 713.15 664.01 714.57 666.02 714.33 C 668.02 714.08 669.45 712.26 669.20 710.25 L 664.74 673.95 L 664.74 673.95 C 664.51 672.07 662.89 670.70 661.04 670.74 C 660.92 670.74 660.79 670.75 660.67 670.77 Z M 681.25 868.44 C 681.01 866.43 682.43 864.61 684.44 864.36 C 686.44 864.12 688.27 865.54 688.51 867.55 L 692.97 903.85 C 693.22 905.85 691.79 907.67 689.79 907.92 C 687.78 908.17 685.96 906.74 685.71 904.74 L 681.25 868.44 Z M 972.60 597.34 C 972.36 595.34 973.78 593.51 975.79 593.26 L 975.79 593.26 C 977.79 593.02 979.62 594.44 979.86 596.45 L 984.32 632.75 L 984.32 632.75 C 984.53 634.50 983.47 636.12 981.86 636.66 C 981.63 636.74 981.39 636.79 981.14 636.82 C 979.13 637.07 977.31 635.64 977.06 633.64 L 972.60 597.34 Z M 578.19 107.54 C 577.94 105.54 579.37 103.71 581.37 103.47 C 583.38 103.22 585.20 104.64 585.45 106.65 L 589.90 142.95 C 590.15 144.95 588.72 146.78 586.72 147.02 C 584.71 147.27 582.89 145.84 582.64 143.84 L 578.19 107.54 Z M 559.30 759.13 C 559.05 757.13 560.48 755.30 562.48 755.05 C 564.49 754.81 566.31 756.24 566.56 758.24 L 571.02 794.54 C 571.26 796.54 569.84 798.37 567.83 798.61 C 565.83 798.86 564.00 797.43 563.76 795.43 L 559.30 759.13 Z M 804.00 211.27 C 801.99 211.52 800.57 213.34 800.81 215.35 L 805.27 251.65 C 805.51 253.65 807.34 255.08 809.35 254.83 C 811.35 254.59 812.77 252.76 812.53 250.76 L 808.07 214.46 C 807.83 212.45 806.00 211.03 804.00 211.27 Z M 827.77 404.87 C 825.76 405.11 824.34 406.94 824.58 408.94 L 829.04 445.24 C 829.29 447.25 831.11 448.67 833.12 448.43 C 835.12 448.18 836.54 446.35 836.30 444.35 L 831.84 408.05 C 831.60 406.05 829.77 404.62 827.77 404.87 Z M 848.35 602.54 C 848.11 600.53 849.53 598.71 851.54 598.46 C 853.54 598.21 855.37 599.64 855.61 601.64 L 860.07 637.94 C 860.32 639.95 858.89 641.77 856.88 642.02 C 854.88 642.26 853.06 640.84 852.81 638.84 L 848.35 602.54 Z M 215.12 113.57 C 214.88 111.56 216.30 109.74 218.31 109.49 C 220.31 109.25 222.14 110.67 222.38 112.68 L 226.84 148.97 C 227.06 150.73 225.99 152.34 224.38 152.89 C 224.15 152.96 223.91 153.02 223.66 153.05 C 221.65 153.30 219.83 151.87 219.58 149.87 L 215.12 113.57 Z M 313.26 395.40 C 313.01 393.40 314.44 391.57 316.44 391.33 L 316.48 391.32 L 316.49 391.32 L 316.53 391.32 L 316.55 391.31 L 316.58 391.31 C 316.66 391.31 316.74 391.30 316.82 391.30 C 318.67 391.26 320.29 392.63 320.52 394.51 L 324.98 430.81 C 325.22 432.81 323.80 434.64 321.79 434.88 L 321.79 434.88 C 319.79 435.13 317.96 433.71 317.72 431.70 L 313.26 395.40 Z M 241.36 303.25 C 239.74 303.79 238.68 305.41 238.90 307.16 L 243.35 343.46 C 243.38 343.71 243.44 343.95 243.52 344.18 C 244.06 345.80 245.67 346.86 247.43 346.64 L 247.43 346.64 C 249.43 346.40 250.86 344.57 250.61 342.57 L 250.61 342.57 L 246.16 306.27 C 245.91 304.26 244.08 302.84 242.08 303.09 C 241.83 303.12 241.59 303.17 241.36 303.25 Z M 262.67 500.75 C 262.45 499.00 263.51 497.38 265.13 496.84 C 265.36 496.77 265.60 496.71 265.85 496.68 C 267.85 496.43 269.68 497.86 269.93 499.86 L 274.38 536.16 C 274.63 538.17 273.20 539.99 271.20 540.24 L 271.20 540.24 C 269.44 540.45 267.83 539.39 267.29 537.78 C 267.21 537.55 267.15 537.30 267.12 537.05 L 262.67 500.75 Z M 286.44 694.35 L 286.44 694.35 L 290.89 730.65 C 291.14 732.65 292.96 734.08 294.97 733.83 C 296.97 733.59 298.40 731.76 298.15 729.76 L 298.15 729.76 L 293.69 693.46 C 293.45 691.45 291.62 690.03 289.62 690.27 L 289.62 690.27 C 287.62 690.52 286.19 692.34 286.44 694.35 Z M 337.16 272.89 L 337.16 272.89 C 339.17 272.64 340.99 274.07 341.24 276.07 L 345.69 312.37 C 345.94 314.38 344.51 316.20 342.51 316.45 C 340.50 316.69 338.68 315.27 338.43 313.26 L 333.98 276.96 C 333.73 274.96 335.16 273.14 337.16 272.89 Z M 507.22 539.63 C 505.21 539.87 503.79 541.70 504.03 543.70 L 508.49 580.00 L 508.49 580.00 C 508.74 582.00 510.56 583.43 512.57 583.18 C 514.57 582.94 516.00 581.11 515.75 579.11 L 511.29 542.81 C 511.05 540.80 509.22 539.38 507.22 539.63 Z M 323.01 828.44 C 322.76 826.44 324.19 824.62 326.19 824.37 C 328.20 824.12 330.02 825.55 330.27 827.55 L 334.72 863.85 C 334.97 865.86 333.54 867.68 331.54 867.93 C 329.54 868.17 327.71 866.75 327.46 864.74 L 323.01 828.44 Z M 143.33 787.80 C 141.33 788.04 139.90 789.87 140.15 791.87 L 144.61 828.17 C 144.85 830.18 146.68 831.60 148.68 831.36 C 150.69 831.11 152.11 829.28 151.87 827.28 L 147.41 790.98 C 147.16 788.98 145.34 787.55 143.33 787.80 Z M 627.77 986.92 C 627.52 984.91 628.95 983.09 630.95 982.85 C 632.96 982.60 634.78 984.02 635.03 986.03 L 639.49 1022.33 C 639.73 1024.33 638.31 1026.16 636.30 1026.40 C 634.30 1026.65 632.47 1025.22 632.23 1023.22 L 627.77 986.92 Z M 374.95 982.85 C 372.95 983.09 371.52 984.91 371.77 986.92 L 376.23 1023.22 C 376.47 1025.22 378.30 1026.65 380.30 1026.40 C 382.31 1026.16 383.73 1024.33 383.49 1022.33 L 379.03 986.03 C 378.78 984.02 376.96 982.60 374.95 982.85 Z M 579.01 596.83 C 578.76 594.82 580.19 593.00 582.19 592.75 C 584.20 592.50 586.02 593.93 586.27 595.93 L 590.72 632.23 C 590.97 634.24 589.54 636.06 587.54 636.31 C 585.53 636.55 583.71 635.13 583.46 633.12 L 579.01 596.83 Z M 826.00 836.56 C 824.00 836.80 822.57 838.63 822.82 840.63 L 827.27 876.93 C 827.52 878.94 829.34 880.36 831.35 880.12 C 833.35 879.87 834.78 878.05 834.53 876.04 L 830.08 839.74 C 829.83 837.74 828.01 836.31 826.00 836.56 Z M 932.53 779.68 C 932.28 777.68 933.71 775.85 935.72 775.61 C 937.72 775.36 939.54 776.79 939.79 778.79 L 944.25 815.09 C 944.49 817.09 943.07 818.92 941.06 819.16 C 939.06 819.41 937.23 817.99 936.99 815.98 L 932.53 779.68 Z M 813.81 714.65 C 811.81 714.90 810.38 716.73 810.63 718.73 L 815.08 755.03 C 815.33 757.03 817.15 758.46 819.16 758.21 C 821.16 757.97 822.59 756.14 822.34 754.14 L 817.89 717.84 C 817.64 715.83 815.82 714.41 813.81 714.65 Z M 79.20 718.73 C 78.95 716.73 80.38 714.90 82.38 714.65 C 84.39 714.41 86.21 715.83 86.46 717.84 L 90.91 754.14 C 91.16 756.14 89.73 757.97 87.73 758.21 C 85.73 758.46 83.90 757.03 83.65 755.03 L 79.20 718.73 Z M 192.10 617.13 C 190.09 617.38 188.67 619.20 188.91 621.21 L 193.37 657.50 C 193.62 659.51 195.44 660.93 197.44 660.69 C 199.45 660.44 200.88 658.62 200.63 656.61 L 196.17 620.32 C 195.93 618.31 194.10 616.88 192.10 617.13 Z M 237.67 877.21 C 237.43 875.20 238.85 873.38 240.86 873.13 C 242.86 872.88 244.69 874.31 244.93 876.32 L 252.19 919.40 C 252.44 921.41 251.01 923.23 249.01 923.48 C 247.00 923.73 245.18 922.30 244.93 920.30 L 237.67 877.21 Z M 81.52 298.58 C 81.27 296.57 82.70 294.75 84.70 294.50 C 86.71 294.26 88.53 295.68 88.78 297.69 L 96.20 358.19 C 96.45 360.19 95.03 362.01 93.02 362.26 C 91.02 362.51 89.19 361.08 88.94 359.08 L 81.52 298.58 Z M 106.77 504.27 C 106.53 502.27 107.95 500.44 109.96 500.20 C 110.08 500.18 110.21 500.17 110.33 500.17 C 112.18 500.13 113.80 501.50 114.03 503.38 L 121.46 563.88 C 121.71 565.88 120.28 567.71 118.28 567.96 C 116.27 568.20 114.45 566.78 114.20 564.77 L 114.20 564.77 L 106.77 504.27 Z M 157.28 915.66 L 157.28 915.66 L 164.71 976.16 C 164.96 978.16 166.78 979.59 168.79 979.34 L 168.79 979.34 C 170.79 979.10 172.22 977.27 171.97 975.27 L 164.54 914.77 C 164.51 914.52 164.46 914.28 164.38 914.04 C 163.84 912.43 162.22 911.37 160.47 911.58 C 160.22 911.62 159.98 911.67 159.75 911.75 C 158.13 912.29 157.07 913.90 157.28 915.66 Z M 354.08 595.62 L 354.08 595.62 C 353.87 593.86 354.93 592.25 356.54 591.71 C 356.77 591.63 357.02 591.57 357.27 591.54 C 359.02 591.33 360.64 592.39 361.18 594.00 C 361.26 594.23 361.31 594.48 361.34 594.73 L 368.77 655.22 C 369.02 657.23 367.59 659.05 365.59 659.30 L 365.58 659.30 C 363.58 659.54 361.76 658.12 361.51 656.12 L 354.08 595.62 Z M 9.25 589.61 C 9.00 587.60 10.43 585.78 12.43 585.53 C 14.44 585.28 16.26 586.71 16.51 588.71 L 23.94 649.21 C 24.18 651.22 22.76 653.04 20.75 653.29 C 18.75 653.53 16.92 652.11 16.68 650.10 L 9.25 589.61 Z M 32.54 439.42 C 30.54 439.67 29.11 441.49 29.36 443.49 L 35.30 491.89 C 35.55 493.90 37.37 495.32 39.38 495.08 C 41.38 494.83 42.81 493.01 42.56 491.00 L 36.62 442.60 C 36.37 440.60 34.55 439.17 32.54 439.42 Z M 853.30 289.17 C 853.05 287.17 854.48 285.34 856.48 285.10 C 858.49 284.85 860.31 286.28 860.56 288.28 L 862.05 300.38 C 862.29 302.39 860.87 304.21 858.86 304.46 C 856.86 304.70 855.03 303.28 854.79 301.27 L 853.30 289.17 Z M 881.53 519.07 C 881.28 517.06 882.71 515.24 884.71 514.99 C 886.72 514.74 888.54 516.17 888.79 518.17 L 890.27 530.27 C 890.52 532.28 889.09 534.10 887.09 534.35 C 885.08 534.60 883.26 533.17 883.01 531.16 L 881.53 519.07 Z M 490.77 138.81 C 488.76 139.06 487.34 140.88 487.59 142.89 L 489.07 154.99 C 489.32 156.99 491.14 158.42 493.15 158.17 C 495.15 157.93 496.58 156.10 496.33 154.10 L 494.85 142.00 C 494.60 139.99 492.77 138.57 490.77 138.81 Z M 519.00 368.70 C 516.99 368.95 515.57 370.77 515.81 372.78 L 517.30 384.88 C 517.54 386.88 519.37 388.31 521.38 388.06 C 523.38 387.82 524.80 385.99 524.56 383.99 L 523.07 371.89 C 522.83 369.88 521.00 368.46 519.00 368.70 Z M 119.68 171.45 C 117.67 171.69 116.25 173.52 116.49 175.53 L 131.35 296.52 C 131.59 298.53 133.42 299.95 135.42 299.70 C 137.43 299.46 138.85 297.63 138.61 295.63 L 123.75 174.63 C 123.51 172.63 121.68 171.20 119.68 171.45 Z M 560.66 438.64 C 558.66 438.88 557.23 440.71 557.48 442.71 L 561.94 479.01 C 562.18 481.02 564.01 482.44 566.01 482.19 C 568.02 481.95 569.44 480.12 569.20 478.12 L 564.74 441.82 C 564.49 439.82 562.67 438.39 560.66 438.64 Z M 681.45 162.74 C 681.21 160.74 682.63 158.91 684.64 158.66 C 686.64 158.42 688.47 159.84 688.71 161.85 L 693.17 198.15 C 693.41 200.15 691.99 201.98 689.98 202.22 C 687.98 202.47 686.15 201.04 685.91 199.04 L 681.45 162.74 Z M 917.99 180.68 C 917.74 178.68 919.17 176.85 921.17 176.61 C 923.18 176.36 925.00 177.79 925.25 179.79 L 932.68 240.29 C 932.92 242.29 931.50 244.12 929.49 244.37 C 927.49 244.61 925.66 243.19 925.42 241.18 L 917.99 180.68 Z M 943.25 386.38 C 943.00 384.37 944.42 382.55 946.43 382.30 C 948.43 382.06 950.26 383.48 950.50 385.49 L 957.93 445.98 C 958.18 447.99 956.75 449.81 954.75 450.06 C 952.74 450.31 950.92 448.88 950.67 446.88 L 943.25 386.38 Z M 996.94 793.69 C 994.94 793.93 993.51 795.76 993.76 797.76 L 1001.19 858.26 C 1001.43 860.27 1003.26 861.69 1005.26 861.45 C 1007.27 861.20 1008.69 859.38 1008.44 857.37 L 1001.02 796.87 C 1000.77 794.87 998.95 793.44 996.94 793.69 Z M 775.20 966.89 C 774.96 964.88 776.38 963.06 778.39 962.81 C 780.39 962.56 782.22 963.99 782.46 966.00 L 789.89 1026.49 C 790.14 1028.50 788.71 1030.32 786.71 1030.57 C 784.70 1030.81 782.88 1029.39 782.63 1027.38 L 775.20 966.89 Z" fill="url(#paint3_linear_609_3765)" fill-opacity="0.800059" fill-rule="evenodd" group-id="3" node-id="140" stroke="none" target-height="1038.26" target-width="999.69" target-x="9" target-y="-0.22"></path><path d="M 265.69 254.76 L 349.84 254.76 C 375.76 254.76 396.77 233.67 396.77 207.65 C 396.77 181.63 375.76 160.53 349.84 160.53 C 342.01 160.53 334.64 162.46 328.15 165.85 C 319.12 139.56 294.25 120.67 264.99 120.67 C 228.11 120.67 198.20 150.69 198.20 187.72 C 198.20 188.47 198.22 189.23 198.24 189.98 C 187.47 195.79 180.15 207.20 180.15 220.33 C 180.15 239.35 195.51 254.76 214.45 254.76 L 264.99 254.76 C 265.10 254.76 265.69 254.76 265.69 254.76 L 264.99 254.76 L 265.69 254.76 Z" fill="url(#paint4_linear_609_3765)" fill-opacity="0.9" fill-rule="nonzero" group-id="4" node-id="145" stroke="none" target-height="134.09" target-width="216.62" target-x="180.15" target-y="120.67"></path></g></svg>