<svg xmlns="http://www.w3.org/2000/svg" fill="none" viewBox="0 0 1024 1024" height="1024" width="1024">
<g clip-path="url(#clip0_604_1948)">
<rect fill="url(#paint0_linear_604_1948)" rx="160" height="1024" width="1024"></rect>
<path fill="#5F83ED" d="M1094 628.319C1094 628.319 948.791 536.39 839.109 536.39C694.026 536.39 597.023 661.766 479.665 661.766C342.889 661.766 325.678 625.537 248.979 625.537C140.577 625.537 -2.49669 693.471 -77.9503 668.953C-138.84 649.166 -212.143 609.203 -212.143 609.203V944.773L1094 964.942V628.319Z" clip-rule="evenodd" fill-rule="evenodd"></path>
<path fill="#5462DC" d="M-190.616 852.519C-190.616 852.519 -183.995 641.4 -33.8838 608.389C97.3613 588.758 198.548 741.129 315.906 741.129C452.683 741.129 517.142 652.7 649.938 652.7C746.793 652.7 841.369 729.581 973.263 702.932C1266.22 643.739 1115.53 633.583 1115.53 633.583V969.154L-190.616 989.323V852.519Z" clip-rule="evenodd" fill-rule="evenodd"></path>
<path fill="url(#paint1_linear_604_1948)" d="M0 828.992C0 828.992 63.0139 744.303 112.467 735.777C161.92 727.251 189.29 809.806 189.29 809.806C189.29 809.806 212.444 806.194 225.02 809.806C237.596 813.418 247.554 828.992 247.554 828.992C247.554 828.992 263.571 779.245 330.082 779.245C396.593 779.245 430.383 846.453 430.383 846.453C430.383 846.453 452.522 828.992 475.578 828.992C498.633 828.992 524.73 846.453 524.73 846.453C524.73 846.453 541.016 779.245 609.735 779.245C678.453 779.245 707.765 836.279 707.765 836.279C707.765 836.279 735.531 818.761 762.509 818.761C789.487 818.761 821.68 836.279 821.68 836.279C821.68 836.279 830.714 780.947 870.9 748.333C911.086 715.72 998.582 735.777 998.582 735.777L1046.44 760.971V1024H0V828.992Z" clip-rule="evenodd" fill-rule="evenodd"></path>
</g>
<defs>
<linearGradient gradientUnits="userSpaceOnUse" y2="1001.41" x2="834.761" y1="31.6235" x1="125.49" id="paint0_linear_604_1948">
<stop stop-color="#1F5DD4"></stop>
<stop stop-color="#6176F6" offset="1"></stop>
</linearGradient>
<linearGradient gradientUnits="userSpaceOnUse" y2="1104.59" x2="-142.514" y1="728.139" x1="-142.514" id="paint1_linear_604_1948">
<stop stop-color="#2E63DC"></stop>
<stop stop-color="#431C71" offset="1"></stop>
</linearGradient>
<clipPath id="clip0_604_1948">
<rect fill="white" rx="160" height="1024" width="1024"></rect>
</clipPath>
</defs>
</svg>
