<svg xmlns="http://www.w3.org/2000/svg" xmlns:xlink="http://www.w3.org/1999/xlink" viewBox="0 0 456.01 262.12"><defs><style>.cls-1,.cls-2,.cls-26,.cls-27,.cls-3,.cls-4,.cls-5,.cls-6{fill:none;stroke-miterlimit:10;}.cls-1,.cls-2,.cls-3,.cls-4,.cls-5,.cls-6{stroke-width:2px;}.cls-1{stroke:url(#未命名的渐变_26);}.cls-2{stroke:url(#未命名的渐变_26-2);}.cls-3{stroke:url(#未命名的渐变_26-3);}.cls-4{stroke:url(#未命名的渐变_26-4);}.cls-5{stroke:url(#未命名的渐变_26-5);}.cls-6{stroke:url(#未命名的渐变_26-6);}.cls-10,.cls-11,.cls-12,.cls-7,.cls-9{opacity:0.4;}.cls-7{fill:url(#未命名的渐变_26-7);}.cls-8{opacity:0.7;}.cls-9{fill:url(#未命名的渐变_26-8);}.cls-10{fill:url(#未命名的渐变_26-9);}.cls-11{fill:url(#未命名的渐变_26-10);}.cls-12{fill:url(#未命名的渐变_26-11);}.cls-13{fill:#8cd7ff;}.cls-14{fill:#67c8ff;}.cls-15{fill:#40a8f5;}.cls-16{fill:#53b9f5;}.cls-17{fill:#3d92f5;}.cls-18{fill:#3d9ef5;}.cls-19{fill:#fff;}.cls-20{fill:#ffb056;}.cls-21{fill:#398eed;}.cls-22{fill:#e49056;}.cls-23{fill:#fae6d2;}.cls-24{fill:#ffeed2;}.cls-25{fill:#ebfcff;}.cls-26{stroke:#e49056;stroke-width:0.25px;}.cls-27{stroke:#4986d9;stroke-width:0.13px;}</style><linearGradient id="未命名的渐变_26" x1="1" y1="91.35" x2="1" y2="181.12" gradientUnits="userSpaceOnUse"><stop offset="0" stop-color="#81cfff"/><stop offset="1" stop-color="#5ecfff" stop-opacity="0"/></linearGradient><linearGradient id="未命名的渐变_26-2" x1="455.01" y1="72.11" x2="455.01" y2="161.88" xlink:href="#未命名的渐变_26"/><linearGradient id="未命名的渐变_26-3" x1="40.9" y1="143.88" x2="40.9" y2="199.51" xlink:href="#未命名的渐变_26"/><linearGradient id="未命名的渐变_26-4" x1="64.97" y1="95.36" x2="64.97" y2="123.17" xlink:href="#未命名的渐变_26"/><linearGradient id="未命名的渐变_26-5" x1="397.23" y1="104.2" x2="397.23" y2="132.02" xlink:href="#未命名的渐变_26"/><linearGradient id="未命名的渐变_26-6" x1="424.75" y1="133.49" x2="424.75" y2="189.13" xlink:href="#未命名的渐变_26"/><linearGradient id="未命名的渐变_26-7" x1="232.75" y1="224.43" x2="232.75" y2="262.12" xlink:href="#未命名的渐变_26"/><linearGradient id="未命名的渐变_26-8" x1="349.36" y1="26.68" x2="349.36" y2="204.03" xlink:href="#未命名的渐变_26"/><linearGradient id="未命名的渐变_26-9" x1="201.45" y1="55.61" x2="201.45" y2="204.03" xlink:href="#未命名的渐变_26"/><linearGradient id="未命名的渐变_26-10" x1="122.98" y1="26.68" x2="122.98" y2="204.03" xlink:href="#未命名的渐变_26"/><linearGradient id="未命名的渐变_26-11" x1="273.51" y1="0" x2="273.51" y2="209.54" xlink:href="#未命名的渐变_26"/></defs><title>暂无消息</title><g id="图层_2" data-name="图层 2"><g id="图层_1-2" data-name="图层 1"><line class="cls-1" x1="1" y1="91.35" x2="1" y2="181.12"/><line class="cls-2" x1="455.01" y1="72.11" x2="455.01" y2="161.88"/><line class="cls-3" x1="40.9" y1="143.88" x2="40.9" y2="199.51"/><line class="cls-4" x1="64.97" y1="95.36" x2="64.97" y2="123.17"/><line class="cls-5" x1="397.23" y1="104.2" x2="397.23" y2="132.02"/><line class="cls-6" x1="424.75" y1="133.49" x2="424.75" y2="189.13"/><path class="cls-7" d="M412.28,262.12c-23-23-61-37.69-179.53-37.69S76.24,239.1,53.21,262.12Z"/><g class="cls-8"><path class="cls-9" d="M380.66,26.68H318.07a2.71,2.71,0,0,0-2.82,2.59V201.44a2.71,2.71,0,0,0,2.82,2.59h62.59a2.72,2.72,0,0,0,2.82-2.59V29.27A2.72,2.72,0,0,0,380.66,26.68ZM328.3,147a.9.9,0,0,1-.95.87h-3.6a.9.9,0,0,1-.95-.87V127.27a.91.91,0,0,1,.95-.87h3.6a.91.91,0,0,1,.95.87Zm0-30.23a.91.91,0,0,1-.95.87h-3.6a.91.91,0,0,1-.95-.87V97a.91.91,0,0,1,.95-.87h3.6a.91.91,0,0,1,.95.87Zm0-30.24a.91.91,0,0,1-.95.87h-3.6a.91.91,0,0,1-.95-.87V66.8a.91.91,0,0,1,.95-.87h3.6a.91.91,0,0,1,.95.87Zm0-30.24a.91.91,0,0,1-.95.87h-3.6a.91.91,0,0,1-.95-.87V36.56a.91.91,0,0,1,.95-.87h3.6a.91.91,0,0,1,.95.87ZM340,147a.9.9,0,0,1-.94.87h-3.61a.91.91,0,0,1-.95-.87V127.27a.92.92,0,0,1,.95-.87h3.61a.91.91,0,0,1,.94.87Zm0-30.23a.91.91,0,0,1-.94.87h-3.61a.92.92,0,0,1-.95-.87V97a.92.92,0,0,1,.95-.87h3.61A.91.91,0,0,1,340,97Zm0-30.24a.91.91,0,0,1-.94.87h-3.61a.92.92,0,0,1-.95-.87V66.8a.92.92,0,0,1,.95-.87h3.61a.91.91,0,0,1,.94.87Zm0-30.24a.91.91,0,0,1-.94.87h-3.61a.92.92,0,0,1-.95-.87V36.56a.92.92,0,0,1,.95-.87h3.61a.91.91,0,0,1,.94.87ZM351.7,147a.9.9,0,0,1-.94.87h-3.61a.9.9,0,0,1-.94-.87V127.27a.91.91,0,0,1,.94-.87h3.61a.91.91,0,0,1,.94.87Zm0-30.23a.91.91,0,0,1-.94.87h-3.61a.91.91,0,0,1-.94-.87V97a.91.91,0,0,1,.94-.87h3.61a.91.91,0,0,1,.94.87Zm0-30.24a.91.91,0,0,1-.94.87h-3.61a.91.91,0,0,1-.94-.87V66.8a.91.91,0,0,1,.94-.87h3.61a.91.91,0,0,1,.94.87Zm0-30.24a.91.91,0,0,1-.94.87h-3.61a.91.91,0,0,1-.94-.87V36.56a.91.91,0,0,1,.94-.87h3.61a.91.91,0,0,1,.94.87ZM363.4,147a.9.9,0,0,1-.94.87h-3.61a.9.9,0,0,1-.94-.87V127.27a.91.91,0,0,1,.94-.87h3.61a.91.91,0,0,1,.94.87Zm0-30.23a.91.91,0,0,1-.94.87h-3.61a.91.91,0,0,1-.94-.87V97a.91.91,0,0,1,.94-.87h3.61a.91.91,0,0,1,.94.87Zm0-30.24a.91.91,0,0,1-.94.87h-3.61a.91.91,0,0,1-.94-.87V66.8a.91.91,0,0,1,.94-.87h3.61a.91.91,0,0,1,.94.87Zm0-30.24a.91.91,0,0,1-.94.87h-3.61a.91.91,0,0,1-.94-.87V36.56a.91.91,0,0,1,.94-.87h3.61a.91.91,0,0,1,.94.87ZM375.11,147a.91.91,0,0,1-.95.87h-3.61a.9.9,0,0,1-.94-.87V127.27a.91.91,0,0,1,.94-.87h3.61a.92.92,0,0,1,.95.87Zm0-30.23a.92.92,0,0,1-.95.87h-3.61a.91.91,0,0,1-.94-.87V97a.91.91,0,0,1,.94-.87h3.61a.92.92,0,0,1,.95.87Zm0-30.24a.92.92,0,0,1-.95.87h-3.61a.91.91,0,0,1-.94-.87V66.8a.91.91,0,0,1,.94-.87h3.61a.92.92,0,0,1,.95.87Zm0-30.24a.92.92,0,0,1-.95.87h-3.61a.91.91,0,0,1-.94-.87V36.56a.91.91,0,0,1,.94-.87h3.61a.92.92,0,0,1,.95.87Z"/><path class="cls-10" d="M231.1,55.61H171.8A2.71,2.71,0,0,0,169,58.2V201.44A2.71,2.71,0,0,0,171.8,204h59.3a2.71,2.71,0,0,0,2.82-2.59V58.2A2.71,2.71,0,0,0,231.1,55.61ZM182.47,159.37a1.16,1.16,0,0,1-1.2,1.11h-5.4a1.16,1.16,0,0,1-1.2-1.11v-5.22a1.15,1.15,0,0,1,1.2-1.1h5.4a1.15,1.15,0,0,1,1.2,1.1Zm0-12.88a1.15,1.15,0,0,1-1.2,1.1h-5.4a1.15,1.15,0,0,1-1.2-1.1v-5.22a1.16,1.16,0,0,1,1.2-1.11h5.4a1.16,1.16,0,0,1,1.2,1.11Zm0-12.89a1.16,1.16,0,0,1-1.2,1.11h-5.4a1.16,1.16,0,0,1-1.2-1.11v-5.22a1.15,1.15,0,0,1,1.2-1.1h5.4a1.15,1.15,0,0,1,1.2,1.1Zm0-12.88a1.15,1.15,0,0,1-1.2,1.1h-5.4a1.15,1.15,0,0,1-1.2-1.1V115.5a1.16,1.16,0,0,1,1.2-1.11h5.4a1.16,1.16,0,0,1,1.2,1.11Zm0-12.89a1.16,1.16,0,0,1-1.2,1.11h-5.4a1.16,1.16,0,0,1-1.2-1.11v-5.21a1.15,1.15,0,0,1,1.2-1.11h5.4a1.15,1.15,0,0,1,1.2,1.11Zm0-12.88a1.15,1.15,0,0,1-1.2,1.1h-5.4a1.15,1.15,0,0,1-1.2-1.1V89.73a1.16,1.16,0,0,1,1.2-1.11h5.4a1.16,1.16,0,0,1,1.2,1.11Zm0-12.89a1.16,1.16,0,0,1-1.2,1.11h-5.4a1.16,1.16,0,0,1-1.2-1.11V76.85a1.15,1.15,0,0,1,1.2-1.11h5.4a1.15,1.15,0,0,1,1.2,1.11Zm0-12.88a1.15,1.15,0,0,1-1.2,1.1h-5.4a1.15,1.15,0,0,1-1.2-1.1V64a1.16,1.16,0,0,1,1.2-1.11h5.4a1.16,1.16,0,0,1,1.2,1.11Zm10.08,90.19a1.16,1.16,0,0,1-1.2,1.11H186a1.16,1.16,0,0,1-1.21-1.11v-5.22a1.16,1.16,0,0,1,1.21-1.1h5.4a1.15,1.15,0,0,1,1.2,1.1Zm0-12.88a1.15,1.15,0,0,1-1.2,1.1H186a1.16,1.16,0,0,1-1.21-1.1v-5.22a1.16,1.16,0,0,1,1.21-1.11h5.4a1.16,1.16,0,0,1,1.2,1.11Zm0-12.89a1.16,1.16,0,0,1-1.2,1.11H186a1.16,1.16,0,0,1-1.21-1.11v-5.22a1.16,1.16,0,0,1,1.21-1.1h5.4a1.15,1.15,0,0,1,1.2,1.1Zm0-12.88a1.15,1.15,0,0,1-1.2,1.1H186a1.16,1.16,0,0,1-1.21-1.1V115.5a1.16,1.16,0,0,1,1.21-1.11h5.4a1.16,1.16,0,0,1,1.2,1.11Zm0-12.89a1.16,1.16,0,0,1-1.2,1.11H186a1.16,1.16,0,0,1-1.21-1.11v-5.21a1.16,1.16,0,0,1,1.21-1.11h5.4a1.15,1.15,0,0,1,1.2,1.11Zm0-12.88a1.15,1.15,0,0,1-1.2,1.1H186a1.16,1.16,0,0,1-1.21-1.1V89.73A1.16,1.16,0,0,1,186,88.62h5.4a1.16,1.16,0,0,1,1.2,1.11Zm0-12.89a1.16,1.16,0,0,1-1.2,1.11H186a1.16,1.16,0,0,1-1.21-1.11V76.85A1.16,1.16,0,0,1,186,75.74h5.4a1.15,1.15,0,0,1,1.2,1.11Zm0-12.88a1.15,1.15,0,0,1-1.2,1.1H186a1.16,1.16,0,0,1-1.21-1.1V64A1.16,1.16,0,0,1,186,62.85h5.4a1.16,1.16,0,0,1,1.2,1.11Zm10.08,90.19a1.16,1.16,0,0,1-1.21,1.11H196a1.16,1.16,0,0,1-1.2-1.11v-5.22a1.15,1.15,0,0,1,1.2-1.1h5.4a1.16,1.16,0,0,1,1.21,1.1Zm0-12.88a1.16,1.16,0,0,1-1.21,1.1H196a1.15,1.15,0,0,1-1.2-1.1v-5.22a1.16,1.16,0,0,1,1.2-1.11h5.4a1.16,1.16,0,0,1,1.21,1.11Zm0-12.89a1.16,1.16,0,0,1-1.21,1.11H196a1.16,1.16,0,0,1-1.2-1.11v-5.22a1.15,1.15,0,0,1,1.2-1.1h5.4a1.16,1.16,0,0,1,1.21,1.1Zm0-12.88a1.16,1.16,0,0,1-1.21,1.1H196a1.15,1.15,0,0,1-1.2-1.1V115.5a1.16,1.16,0,0,1,1.2-1.11h5.4a1.16,1.16,0,0,1,1.21,1.11Zm0-12.89a1.16,1.16,0,0,1-1.21,1.11H196a1.16,1.16,0,0,1-1.2-1.11v-5.21a1.15,1.15,0,0,1,1.2-1.11h5.4a1.16,1.16,0,0,1,1.21,1.11Zm0-12.88a1.16,1.16,0,0,1-1.21,1.1H196a1.15,1.15,0,0,1-1.2-1.1V89.73a1.16,1.16,0,0,1,1.2-1.11h5.4a1.16,1.16,0,0,1,1.21,1.11Zm0-12.89a1.16,1.16,0,0,1-1.21,1.11H196a1.16,1.16,0,0,1-1.2-1.11V76.85a1.15,1.15,0,0,1,1.2-1.11h5.4a1.16,1.16,0,0,1,1.21,1.11Zm0-12.88a1.16,1.16,0,0,1-1.21,1.1H196a1.15,1.15,0,0,1-1.2-1.1V64a1.16,1.16,0,0,1,1.2-1.11h5.4A1.16,1.16,0,0,1,202.63,64Zm25.21,90.19a1.16,1.16,0,0,1-1.2,1.11H206.1a1.16,1.16,0,0,1-1.2-1.11v-5.22a1.15,1.15,0,0,1,1.2-1.1h20.54a1.15,1.15,0,0,1,1.2,1.1Zm0-12.88a1.15,1.15,0,0,1-1.2,1.1H206.1a1.15,1.15,0,0,1-1.2-1.1v-5.22a1.16,1.16,0,0,1,1.2-1.11h20.54a1.16,1.16,0,0,1,1.2,1.11Zm0-12.89a1.16,1.16,0,0,1-1.2,1.11H206.1a1.16,1.16,0,0,1-1.2-1.11v-5.22a1.15,1.15,0,0,1,1.2-1.1h20.54a1.15,1.15,0,0,1,1.2,1.1Zm0-12.88a1.15,1.15,0,0,1-1.2,1.1H206.1a1.15,1.15,0,0,1-1.2-1.1V115.5a1.16,1.16,0,0,1,1.2-1.11h20.54a1.16,1.16,0,0,1,1.2,1.11Zm0-12.89a1.16,1.16,0,0,1-1.2,1.11H206.1a1.16,1.16,0,0,1-1.2-1.11v-5.21a1.15,1.15,0,0,1,1.2-1.11h20.54a1.15,1.15,0,0,1,1.2,1.11Zm0-12.88a1.15,1.15,0,0,1-1.2,1.1H206.1a1.15,1.15,0,0,1-1.2-1.1V89.73a1.16,1.16,0,0,1,1.2-1.11h20.54a1.16,1.16,0,0,1,1.2,1.11Zm0-12.89a1.16,1.16,0,0,1-1.2,1.11H206.1a1.16,1.16,0,0,1-1.2-1.11V76.85a1.15,1.15,0,0,1,1.2-1.11h20.54a1.15,1.15,0,0,1,1.2,1.11Zm0-12.88a1.15,1.15,0,0,1-1.2,1.1H206.1a1.15,1.15,0,0,1-1.2-1.1V64a1.16,1.16,0,0,1,1.2-1.11h20.54a1.16,1.16,0,0,1,1.2,1.11Z"/><path class="cls-11" d="M161.13,26.68H84.83A2.71,2.71,0,0,0,82,29.27V201.44A2.71,2.71,0,0,0,84.83,204h76.3a2.71,2.71,0,0,0,2.82-2.59V29.27A2.71,2.71,0,0,0,161.13,26.68ZM154.34,161a1.16,1.16,0,0,1-1.2,1.11H92.83A1.16,1.16,0,0,1,91.62,161v-5.21a1.16,1.16,0,0,1,1.21-1.11h60.31a1.15,1.15,0,0,1,1.2,1.11Zm0-14.67a1.15,1.15,0,0,1-1.2,1.1H92.83a1.16,1.16,0,0,1-1.21-1.1v-5.22A1.16,1.16,0,0,1,92.83,140h60.31a1.16,1.16,0,0,1,1.2,1.11Zm0-14.68a1.16,1.16,0,0,1-1.2,1.11H92.83a1.16,1.16,0,0,1-1.21-1.11v-5.22a1.16,1.16,0,0,1,1.21-1.1h60.31a1.15,1.15,0,0,1,1.2,1.1Zm0-14.68a1.16,1.16,0,0,1-1.2,1.11H92.83a1.16,1.16,0,0,1-1.21-1.11v-5.21a1.16,1.16,0,0,1,1.21-1.11h60.31a1.15,1.15,0,0,1,1.2,1.11Zm0-14.67a1.15,1.15,0,0,1-1.2,1.1H92.83a1.16,1.16,0,0,1-1.21-1.1V97a1.16,1.16,0,0,1,1.21-1.11h60.31a1.16,1.16,0,0,1,1.2,1.11Zm0-14.68a1.16,1.16,0,0,1-1.2,1.11H92.83a1.16,1.16,0,0,1-1.21-1.11V82.35a1.16,1.16,0,0,1,1.21-1.1h60.31a1.15,1.15,0,0,1,1.2,1.1Zm0-14.68a1.16,1.16,0,0,1-1.2,1.11H92.83a1.16,1.16,0,0,1-1.21-1.11V67.68a1.16,1.16,0,0,1,1.21-1.11h60.31a1.15,1.15,0,0,1,1.2,1.11Zm0-14.67a1.15,1.15,0,0,1-1.2,1.1H92.83a1.16,1.16,0,0,1-1.21-1.1V53a1.16,1.16,0,0,1,1.21-1.11h60.31a1.16,1.16,0,0,1,1.2,1.11Zm0-14.68a1.16,1.16,0,0,1-1.2,1.11H92.83a1.16,1.16,0,0,1-1.21-1.11V38.32a1.16,1.16,0,0,1,1.21-1.1h60.31a1.15,1.15,0,0,1,1.2,1.1Z"/><path class="cls-12" d="M306.21,0H240.82a2.51,2.51,0,0,0-2.42,2.59V206.94a2.51,2.51,0,0,0,2.42,2.6h65.39a2.51,2.51,0,0,0,2.41-2.6V2.59A2.51,2.51,0,0,0,306.21,0Zm-5.82,134.28a1.06,1.06,0,0,1-1,1.1H247.67a1.06,1.06,0,0,1-1-1.1v-5.22a1.07,1.07,0,0,1,1-1.11h51.69a1.07,1.07,0,0,1,1,1.11Zm0-14.68a1.07,1.07,0,0,1-1,1.11H247.67a1.07,1.07,0,0,1-1-1.11v-5.22a1.06,1.06,0,0,1,1-1.1h51.69a1.06,1.06,0,0,1,1,1.1Zm0-14.68a1.07,1.07,0,0,1-1,1.11H247.67a1.07,1.07,0,0,1-1-1.11V99.71a1.07,1.07,0,0,1,1-1.11h51.69a1.07,1.07,0,0,1,1,1.11Zm0-14.67a1.06,1.06,0,0,1-1,1.1H247.67a1.06,1.06,0,0,1-1-1.1V85a1.07,1.07,0,0,1,1-1.11h51.69a1.07,1.07,0,0,1,1,1.11Zm0-14.68a1.07,1.07,0,0,1-1,1.11H247.67a1.07,1.07,0,0,1-1-1.11V70.35a1.06,1.06,0,0,1,1-1.1h51.69a1.06,1.06,0,0,1,1,1.1Zm0-14.68a1.07,1.07,0,0,1-1,1.11H247.67a1.07,1.07,0,0,1-1-1.11V55.68a1.07,1.07,0,0,1,1-1.11h51.69a1.07,1.07,0,0,1,1,1.11Zm0-14.67a1.06,1.06,0,0,1-1,1.1H247.67a1.06,1.06,0,0,1-1-1.1V41a1.07,1.07,0,0,1,1-1.11h51.69a1.07,1.07,0,0,1,1,1.11Zm0-14.68a1.07,1.07,0,0,1-1,1.11H247.67a1.07,1.07,0,0,1-1-1.11V26.32a1.06,1.06,0,0,1,1-1.1h51.69a1.06,1.06,0,0,1,1,1.1Zm0-14.68a1.07,1.07,0,0,1-1,1.11H247.67a1.07,1.07,0,0,1-1-1.11V11.65a1.07,1.07,0,0,1,1-1.11h51.69a1.07,1.07,0,0,1,1,1.11Z"/></g><path class="cls-13" d="M244.31,123.54v3.1a1.91,1.91,0,0,1-1.91,1.91H231.46a1.91,1.91,0,0,1-1.91-1.91v-3.1a1.9,1.9,0,0,1,1.91-1.91H242.4A1.9,1.9,0,0,1,244.31,123.54Zm-1.55,3.35v-1s0-.28-.38-.28-.38.28-.38.28v1s0,.28.38.28S242.76,126.89,242.76,126.89Zm0-2.79v-1s0-.28-.38-.28-.38.28-.38.28v1s0,.28.38.28S242.76,124.1,242.76,124.1Zm-1.58,2.79v-1s0-.28-.38-.28-.38.28-.38.28v1s0,.28.38.28S241.18,126.89,241.18,126.89Zm0-2.79v-1s0-.28-.38-.28-.38.28-.38.28v1s0,.28.38.28S241.18,124.1,241.18,124.1Zm-1.58,2.79v-1s0-.28-.38-.28-.38.28-.38.28v1s0,.28.38.28S239.6,126.89,239.6,126.89Zm0-2.79v-1s0-.28-.38-.28-.38.28-.38.28v1s0,.28.38.28S239.6,124.1,239.6,124.1ZM238,126.89v-1s0-.28-.38-.28-.38.28-.38.28v1s0,.28.38.28S238,126.89,238,126.89Zm0-2.79v-1s0-.28-.38-.28-.38.28-.38.28v1s0,.28.38.28S238,124.1,238,124.1Zm-1.58,2.79v-1s0-.28-.38-.28-.38.28-.38.28v1s0,.28.38.28S236.44,126.89,236.44,126.89Zm0-2.79v-1s0-.28-.38-.28-.38.28-.38.28v1s0,.28.38.28S236.44,124.1,236.44,124.1Zm-1.58,2.79v-1s0-.28-.38-.28-.38.28-.38.28v1s0,.28.38.28S234.86,126.89,234.86,126.89Zm0-2.79v-1s0-.28-.38-.28-.38.28-.38.28v1s0,.28.38.28S234.86,124.1,234.86,124.1Zm-1.58,2.79v-1s0-.28-.38-.28-.38.28-.38.28v1s0,.28.38.28S233.28,126.89,233.28,126.89Zm0-2.79v-1s0-.28-.38-.28-.38.28-.38.28v1s0,.28.38.28S233.28,124.1,233.28,124.1Zm-1.58,2.79v-1s0-.28-.38-.28-.38.28-.38.28v1s0,.28.38.28S231.7,126.89,231.7,126.89Zm0-2.79v-1s0-.28-.38-.28-.38.28-.38.28v1s0,.28.38.28S231.7,124.1,231.7,124.1Z"/><path class="cls-14" d="M273.27,195.39v32.72s0,6.55-36.07,6.55-36.07-6.55-36.07-6.55V195.39s0,6.56,36.07,6.56S273.27,195.39,273.27,195.39Z"/><path class="cls-13" d="M278.53,57.39v5.8l-1.08,1.22c-2.56,1.68-11.19,4.52-40.25,4.52s-37.7-2.84-40.26-4.52l-1.08-1.22v-5.8s0,5.74,41.34,5.74S278.53,57.39,278.53,57.39Z"/><path class="cls-15" d="M277.45,64.41l-8.25,9.3-.4.07c-6,1-15.79,1.88-31.6,1.88s-25.58-.84-31.61-1.88l-.4-.07-8.25-9.3c2.56,1.68,11.19,4.52,40.26,4.52S274.89,66.09,277.45,64.41Z"/><path class="cls-16" d="M278.53,57.39s0,5.74-41.33,5.74-41.34-5.74-41.34-5.74c7.18-4.48,18.51-7,41.34-7S272.15,53.12,278.53,57.39Z"/><path class="cls-15" d="M273.27,93a11,11,0,0,1-2.79,7.4,4.39,4.39,0,0,1-.49.49c-4,1.78-12.94,3.77-32.79,3.77s-28.75-2-32.78-3.76c0,0-.21-.25-.51-.68-.93-1.31-2.78-4.29-2.78-7.22,0,0,0,6.55,36.07,6.55S273.27,93,273.27,93Z"/><path class="cls-16" d="M205.39,91.36c4.43,1.67,13.43,3.37,31.81,3.37S264.58,93,269,91.36c.36-.13.68-.27,1-.4,0,0,3,.82,3.28,2,0,0,0,6.55-36.07,6.55S201.13,93,201.13,93c.71-1.76,3.29-2,3.29-2C204.71,91.1,205,91.23,205.39,91.36Z"/><path class="cls-16" d="M203.91,193.47a4.69,4.69,0,0,1,.51-.09c4,1.78,13,3.76,32.78,3.76s28.77-2,32.79-3.77c0,0,.2,0,.49.15.86.29,2.58,1,2.79,1.87,0,0,0,6.56-36.07,6.56s-36.07-6.56-36.07-6.56A3.79,3.79,0,0,1,203.91,193.47Z"/><path class="cls-13" d="M227.07,134.59a4,4,0,0,0,2.73,1.08h14.79a4.07,4.07,0,0,0,4-4V118.56a4.07,4.07,0,0,0-4-4H229.8a4.07,4.07,0,0,0-4.05,4v13.06A4,4,0,0,0,227.07,134.59Zm43.41-34.2v93.13c-.29-.1-.49-.15-.49-.15-4,1.78-12.94,3.77-32.79,3.77s-28.75-2-32.78-3.76a4.69,4.69,0,0,0-.51.09V100.21c.3.43.51.68.51.68,4,1.78,13,3.76,32.78,3.76s28.77-2,32.79-3.77A4.39,4.39,0,0,0,270.48,100.39Zm-14.71,90V156.08l-6.13-.13s-1-4.93-12.71-4.93c-11.18,0-13,5.06-13,5.06l-5.89,0v34.25h37.68Z"/><path class="cls-13" d="M268.81,73.81c4.45,3.33,4.39,13,.2,17.55-4.43,1.67-13.43,3.37-31.81,3.37s-27.38-1.7-31.81-3.37c-4.19-4.53-4.26-14.19.19-17.52v-.06c6,1,15.79,1.88,31.61,1.88s25.57-.84,31.6-1.88Zm-9.44,15.92V79.06c-5.77.46-13,.75-22.17.75s-16.41-.29-22.18-.75V89.73c5.77.46,13,.74,22.18.74S253.6,90.19,259.37,89.73Z"/><polygon class="cls-15" points="259.37 79.06 259.37 89.73 255.77 84.14 259.37 79.06"/><path class="cls-16" d="M259.37,79.06l-3.6,5.08c-5.11.31-11.24.5-18.57.5s-13.45-.19-18.57-.5L215,79.06c5.77.46,13,.75,22.18.75S253.6,79.52,259.37,79.06Z"/><path class="cls-17" d="M255.77,84.14l3.6,5.59c-5.77.46-13,.74-22.17.74s-16.41-.28-22.18-.74l3.61-5.59c5.12.31,11.24.5,18.57.5S250.66,84.45,255.77,84.14Z"/><path class="cls-15" d="M255.77,156.08v34.28h-1.5V158l-6.33-.11s-.87-4.27-11-4.27c-9.68,0-11.22,4.38-11.22,4.38l-6,0v32.3h-1.63V156.11l5.89,0s1.77-5.06,13-5.06c11.71,0,12.71,4.93,12.71,4.93Z"/><path class="cls-16" d="M254.27,158v32.33H219.72v-32.3l6,0s1.54-4.38,11.22-4.38c10.14,0,11,4.27,11,4.27Zm-3.57,30.78V176.24a13.71,13.71,0,1,0-27.41,0v12.57Z"/><path class="cls-15" d="M250.7,176.24v12.57H223.29V176.24a13.71,13.71,0,1,1,27.41,0Z"/><path class="cls-18" d="M248.64,118.56v13.06a4,4,0,0,1-1.29,2.95,2.31,2.31,0,0,0,.36-1.25V118.66a2.35,2.35,0,0,0-.82-1.78l.75-1A4,4,0,0,1,248.64,118.56Z"/><path class="cls-16" d="M247.71,118.66v14.66a2.31,2.31,0,0,1-.36,1.25,4,4,0,0,1-2.76,1.1H229.8a4,4,0,0,1-2.73-1.08,2.31,2.31,0,0,1-.38-1.27V118.66a2.31,2.31,0,0,1,.82-1.77,2.24,2.24,0,0,1,1.53-.58h16.32a2.29,2.29,0,0,1,1.53.57A2.35,2.35,0,0,1,247.71,118.66Zm-3.4,8v-3.1a1.9,1.9,0,0,0-1.91-1.91H231.46a1.9,1.9,0,0,0-1.91,1.91v3.1a1.91,1.91,0,0,0,1.91,1.91H242.4A1.91,1.91,0,0,0,244.31,126.64Z"/><path class="cls-15" d="M244.59,114.51a4,4,0,0,1,3,1.4l-.75,1a2.29,2.29,0,0,0-1.53-.57H229a2.24,2.24,0,0,0-1.53.58h0l-.75-1a4,4,0,0,1,3.05-1.4Z"/><path class="cls-19" d="M242.76,125.9v1s0,.28-.38.28-.38-.28-.38-.28v-1s0-.28.38-.28S242.76,125.9,242.76,125.9Z"/><path class="cls-19" d="M242.76,123.11v1s0,.28-.38.28-.38-.28-.38-.28v-1s0-.28.38-.28S242.76,123.11,242.76,123.11Z"/><path class="cls-19" d="M241.18,125.9v1s0,.28-.38.28-.38-.28-.38-.28v-1s0-.28.38-.28S241.18,125.9,241.18,125.9Z"/><path class="cls-19" d="M241.18,123.11v1s0,.28-.38.28-.38-.28-.38-.28v-1s0-.28.38-.28S241.18,123.11,241.18,123.11Z"/><path class="cls-19" d="M239.6,125.9v1s0,.28-.38.28-.38-.28-.38-.28v-1s0-.28.38-.28S239.6,125.9,239.6,125.9Z"/><path class="cls-19" d="M239.6,123.11v1s0,.28-.38.28-.38-.28-.38-.28v-1s0-.28.38-.28S239.6,123.11,239.6,123.11Z"/><path class="cls-19" d="M238,125.9v1s0,.28-.38.28-.38-.28-.38-.28v-1s0-.28.38-.28S238,125.9,238,125.9Z"/><path class="cls-19" d="M238,123.11v1s0,.28-.38.28-.38-.28-.38-.28v-1s0-.28.38-.28S238,123.11,238,123.11Z"/><path class="cls-19" d="M236.44,125.9v1s0,.28-.38.28-.38-.28-.38-.28v-1s0-.28.38-.28S236.44,125.9,236.44,125.9Z"/><path class="cls-19" d="M236.44,123.11v1s0,.28-.38.28-.38-.28-.38-.28v-1s0-.28.38-.28S236.44,123.11,236.44,123.11Z"/><path class="cls-19" d="M234.86,125.9v1s0,.28-.38.28-.38-.28-.38-.28v-1s0-.28.38-.28S234.86,125.9,234.86,125.9Z"/><path class="cls-19" d="M234.86,123.11v1s0,.28-.38.28-.38-.28-.38-.28v-1s0-.28.38-.28S234.86,123.11,234.86,123.11Z"/><path class="cls-19" d="M233.28,125.9v1s0,.28-.38.28-.38-.28-.38-.28v-1s0-.28.38-.28S233.28,125.9,233.28,125.9Z"/><path class="cls-19" d="M233.28,123.11v1s0,.28-.38.28-.38-.28-.38-.28v-1s0-.28.38-.28S233.28,123.11,233.28,123.11Z"/><path class="cls-19" d="M231.7,125.9v1s0,.28-.38.28-.38-.28-.38-.28v-1s0-.28.38-.28S231.7,125.9,231.7,125.9Z"/><path class="cls-19" d="M231.7,123.11v1s0,.28-.38.28-.38-.28-.38-.28v-1s0-.28.38-.28S231.7,123.11,231.7,123.11Z"/><path class="cls-18" d="M227.51,116.89a2.31,2.31,0,0,0-.82,1.77v14.66a2.31,2.31,0,0,0,.38,1.27,4,4,0,0,1-1.32-3V118.56a4,4,0,0,1,1-2.65l.75,1Z"/><polygon class="cls-15" points="215.02 79.06 218.63 84.14 215.02 89.73 215.02 79.06"/><path d="M296,149.06c-.06.15-.45.76-.45.76l-.15.14-.47-.18-.45.31-.4-.23s-.06-.49-.36.1c-.12-.27-.86-.23-1.74-.75a3.15,3.15,0,0,1-1.06-2.71c.11-.61.69-.94.34-1.32s-.48-.24-.75-.08-.6-.32-1.62-.65l-.28-.08c-1.25-.35-1.28-1.37-1.48-2.57s1.25-2.67,2.42-3.67a7.74,7.74,0,0,1,5.85-1.12c1.72.52,3.43,1,4.08,4.66a6.36,6.36,0,0,1-1.61,6.05,4,4,0,0,1-1.07.88C296.46,148.82,296.2,148.52,296,149.06Z"/><path class="cls-20" d="M292.94,230.24c.3-.69.55-1.55-.53-1.07l-.1,0,0-5a4.1,4.1,0,0,1,.88.7,27.49,27.49,0,0,1,2.57,2.66c0-.2-.05-.38-.06-.46,0-.31.44-.67.85-.17s2.56.59,3.84.36a3.91,3.91,0,0,0,.46-.11c1.12-.37.79.46.42,1.12s-.42,1.58-.54,3.42-2.14,2.27-3.64,2.44c-1.33.15-2.25-1.24-4.32-3.11A2.59,2.59,0,0,1,292.94,230.24Z"/><path class="cls-20" d="M292.73,231.08a19.83,19.83,0,0,0,0,2.62c0,1.85-1.93,2.46-3.41,2.77s-2.62-1.4-5.55-3.38-5.22-5.69-4.24-6.67c.89-.59,3.24-.2,5,1.19a28.38,28.38,0,0,1,2.81,2.4h0c0-.19-.09-.36-.1-.44-.06-.31.37-.71.83-.25s3.07.33,4.2-.11l.1,0c1.08-.48.83.38.53,1.07A2.59,2.59,0,0,0,292.73,231.08Z"/><path class="cls-21" d="M301.47,185.08l-1.16,20.18,0,22.06c-1.28.23-3.47.09-3.84-.36l-1.06-20.49-1-16.14a.68.68,0,0,0-.73-.64.7.7,0,0,0-.44.21.68.68,0,0,0-.19.44l-.93,17.94.14,15.95,0,5c-1.13.44-3.76.56-4.2.11l-1.7-22.26-.32-21.75C289.66,185.89,299.62,185.33,301.47,185.08Z"/><path class="cls-22" d="M306.74,166.83a3.22,3.22,0,0,1-1.34,1,4.88,4.88,0,0,1-3.3.2c.15-3.55.27-6.22.27-6.22l1-7.76a1.27,1.27,0,0,1,.27.53C304.28,157,306.09,164,306.74,166.83Z"/><path class="cls-20" d="M303.37,154l-1,7.76s-.12,2.67-.27,6.22c-.07,1.59-.14,3.35-.2,5.12-.19,5.23-.33,10.59-.15,11.9a1,1,0,0,1-.28.06c-1.85.25-11.81.81-15.38.23a3.31,3.31,0,0,1-1-.29c.28-1.58-1.11-21.23-1.11-21.23s-2.92,2.15-4.57,3.4a5,5,0,0,1-.75-1.36h0a26.82,26.82,0,0,1-1-5.44l5.57-5.27a3.22,3.22,0,0,1,1.66-.84,38.67,38.67,0,0,0,5.37-1.22c.76,1,5.7,1.53,6.78-.2l5.54.7A1.35,1.35,0,0,1,303.37,154Z"/><path class="cls-23" d="M305.76,170.37a1.63,1.63,0,0,1-1.07,1.76l-2.79,1c.06-1.77.13-3.53.2-5.12a4.88,4.88,0,0,0,3.3-.2Z"/><path class="cls-24" d="M278.62,165.83l-1.9,1.62a.94.94,0,0,1-1.39-.21l-8.2-12.8s-2.68-2.23-2.66-3.63c0-.9,1.45-2.25,1.7-2.29s-.17-1.28-.19-2.66.46-1.61.91-1.61,0,.46,0,1.87,1.67,5.79,2.15,6.66l7.06,9,1.49-1.42A26.82,26.82,0,0,0,278.62,165.83Z"/><path class="cls-24" d="M291,146.56A2.89,2.89,0,0,0,292,149c.77.47,1.43.44,1.53.69l.33-.69.33.8.25-.67.57.56.08-.8s.37.93.43.8c.19-.5.23-.43.5-.64-.12,1.33-.46,3.57.47,3.72l.54.08c-1.08,1.73-6,1.17-6.78.2a2.46,2.46,0,0,0,1.16-.67c.59-1,.78-2.82,0-3.28a5.92,5.92,0,0,1-1.75-2.22,4.22,4.22,0,0,1-.19-1.33c0-.5-.14-.51-.27-1h0c.89.3,1.14.59,1.36.46a.64.64,0,0,1,.87.14C291.65,145.5,291.12,146,291,146.56Z"/><path class="cls-25" d="M297.05,234.19c1.14-.13,2.59-.4,3.27-1.35,0,.89,0,.85-1.05,1.36s-2.62,1.08-3.61.36a29.89,29.89,0,0,1-3-2.9h0a5.11,5.11,0,0,1,0-.58C294.8,233,295.72,234.34,297.05,234.19Z"/><path class="cls-25" d="M290.62,236.7a4.87,4.87,0,0,1-2.88.08c-1-.23-2.82-2.57-4.06-3.26a14.29,14.29,0,0,1-4.16-4.45c-1-1.72-.51-2.13-.18-2.35-.42,1.28,1.74,4.55,4.42,6.37,2.93,2,4.07,3.68,5.55,3.38,1.17-.24,2.64-.68,3.19-1.75C292.77,236.15,291.56,236.36,290.62,236.7Z"/><path class="cls-26" d="M292.31,229.21l.1,0c1.08-.48.83.38.53,1.07a2.59,2.59,0,0,0-.21.84"/><path class="cls-26" d="M286.88,231.11c.67.19.6-.56.5-1.09"/><path class="cls-26" d="M295.12,228.63c.65.25.66-.5.6-1"/><path class="cls-27" d="M279.35,226.71h0c-.33.22-.85.63.18,2.35a14.29,14.29,0,0,0,4.16,4.45c1.24.69,3.06,3,4.06,3.26a4.87,4.87,0,0,0,2.88-.08c.94-.34,2.15-.55,1.88-2"/><path class="cls-27" d="M300.32,232.84h0c0,.89,0,.85-1.05,1.36s-2.62,1.08-3.61.36a29.89,29.89,0,0,1-3-2.9h0"/></g></g></svg>