<svg height="262" node-id="1" sillyvg="true" template-height="262" template-width="456" version="1.1" viewBox="0 0 456 262" width="456" xmlns="http://www.w3.org/2000/svg" xmlns:xlink="http://www.w3.org/1999/xlink"><defs node-id="76"><linearGradient gradientUnits="userSpaceOnUse" id="未命名的渐变_26" node-id="5" spreadMethod="pad" x1="1" x2="1" y1="91.35" y2="181.12"><stop offset="0" stop-color="#81cfff"></stop><stop offset="1" stop-color="#5ecfff" stop-opacity="0"></stop></linearGradient><linearGradient gradientUnits="userSpaceOnUse" id="未命名的渐变_26-2" node-id="8" spreadMethod="pad" x1="455.01" x2="455.01" y1="72.11" y2="161.88"><stop offset="0" stop-color="#81cfff"></stop><stop offset="1" stop-color="#5ecfff" stop-opacity="0"></stop></linearGradient><linearGradient gradientUnits="userSpaceOnUse" id="未命名的渐变_26-3" node-id="9" spreadMethod="pad" x1="40.9" x2="40.9" y1="143.88" y2="199.51"><stop offset="0" stop-color="#81cfff"></stop><stop offset="1" stop-color="#5ecfff" stop-opacity="0"></stop></linearGradient><linearGradient gradientUnits="userSpaceOnUse" id="未命名的渐变_26-4" node-id="10" spreadMethod="pad" x1="64.97" x2="64.97" y1="95.36" y2="123.17"><stop offset="0" stop-color="#81cfff"></stop><stop offset="1" stop-color="#5ecfff" stop-opacity="0"></stop></linearGradient><linearGradient gradientUnits="userSpaceOnUse" id="未命名的渐变_26-5" node-id="11" spreadMethod="pad" x1="397.23" x2="397.23" y1="104.2" y2="132.02"><stop offset="0" stop-color="#81cfff"></stop><stop offset="1" stop-color="#5ecfff" stop-opacity="0"></stop></linearGradient><linearGradient gradientUnits="userSpaceOnUse" id="未命名的渐变_26-6" node-id="12" spreadMethod="pad" x1="424.75" x2="424.75" y1="133.49" y2="189.13"><stop offset="0" stop-color="#81cfff"></stop><stop offset="1" stop-color="#5ecfff" stop-opacity="0"></stop></linearGradient><linearGradient gradientUnits="userSpaceOnUse" id="未命名的渐变_26-7" node-id="13" spreadMethod="pad" x1="232.75" x2="232.75" y1="224.43" y2="262.12"><stop offset="0" stop-color="#81cfff"></stop><stop offset="1" stop-color="#5ecfff" stop-opacity="0"></stop></linearGradient><linearGradient gradientUnits="userSpaceOnUse" id="未命名的渐变_26-8" node-id="14" spreadMethod="pad" x1="349.36" x2="349.36" y1="26.68" y2="204.03"><stop offset="0" stop-color="#81cfff"></stop><stop offset="1" stop-color="#5ecfff" stop-opacity="0"></stop></linearGradient><linearGradient gradientUnits="userSpaceOnUse" id="未命名的渐变_26-9" node-id="15" spreadMethod="pad" x1="201.45" x2="201.45" y1="55.61" y2="204.03"><stop offset="0" stop-color="#81cfff"></stop><stop offset="1" stop-color="#5ecfff" stop-opacity="0"></stop></linearGradient><linearGradient gradientUnits="userSpaceOnUse" id="未命名的渐变_26-10" node-id="16" spreadMethod="pad" x1="122.98" x2="122.98" y1="26.68" y2="204.03"><stop offset="0" stop-color="#81cfff"></stop><stop offset="1" stop-color="#5ecfff" stop-opacity="0"></stop></linearGradient><linearGradient gradientUnits="userSpaceOnUse" id="未命名的渐变_26-11" node-id="17" spreadMethod="pad" x1="273.51" x2="273.51" y1="0" y2="209.54"><stop offset="0" stop-color="#81cfff"></stop><stop offset="1" stop-color="#5ecfff" stop-opacity="0"></stop></linearGradient><linearGradient gradientTransform="matrix(0.67 -0.74 0.74 0.67 1505.1 63.23)" gradientUnits="userSpaceOnUse" id="未命名的渐变_5" node-id="18" spreadMethod="pad" x1="-891.25" x2="-881.19" y1="-852.32" y2="-852.32"><stop offset="0" stop-color="#2d8ce9"></stop><stop offset="0.36" stop-color="#4db3ff"></stop><stop offset="0.97" stop-color="#2d8ce9"></stop></linearGradient><linearGradient gradientTransform="matrix(0.67 -0.74 0.74 0.67 1505.1 63.23)" gradientUnits="userSpaceOnUse" id="未命名的渐变_33" node-id="22" spreadMethod="pad" x1="-865.08" x2="-910.4" y1="-941.93" y2="-915.77"><stop offset="0" stop-color="#4db3ff"></stop><stop offset="0.26" stop-color="#59ceff"></stop><stop offset="0.49" stop-color="#4db3ff"></stop><stop offset="0.75" stop-color="#59ceff"></stop><stop offset="1" stop-color="#4db3ff"></stop></linearGradient></defs><g node-id="273"><path d="M 1.00 91.35 L 1.00 181.12" fill="none" group-id="1" node-id="167" stroke="url(#未命名的渐变_26)" stroke-linecap="butt" stroke-width="2" target-height="89.77" target-width="0" target-x="1" target-y="91.35"></path><path d="M 455.01 72.11 L 455.01 161.88" fill="none" group-id="1" node-id="169" stroke="url(#未命名的渐变_26-2)" stroke-linecap="butt" stroke-width="2" target-height="89.770004" target-width="0" target-x="455.01" target-y="72.11"></path><path d="M 40.90 143.88 L 40.90 199.51" fill="none" group-id="1" node-id="171" stroke="url(#未命名的渐变_26-3)" stroke-linecap="butt" stroke-width="2" target-height="55.62999" target-width="0" target-x="40.9" target-y="143.88"></path><path d="M 64.97 95.36 L 64.97 123.17" fill="none" group-id="1" node-id="173" stroke="url(#未命名的渐变_26-4)" stroke-linecap="butt" stroke-width="2" target-height="27.809998" target-width="0" target-x="64.97" target-y="95.36"></path><path d="M 397.23 104.20 L 397.23 132.02" fill="none" group-id="1" node-id="175" stroke="url(#未命名的渐变_26-5)" stroke-linecap="butt" stroke-width="2" target-height="27.820007" target-width="0" target-x="397.23" target-y="104.2"></path><path d="M 424.75 133.49 L 424.75 189.13" fill="none" group-id="1" node-id="177" stroke="url(#未命名的渐变_26-6)" stroke-linecap="butt" stroke-width="2" target-height="55.64" target-width="0" target-x="424.75" target-y="133.49"></path><g node-id="274"><path d="M 412.28 262.12 C 389.28 239.12 351.28 224.43 232.75 224.43 C 114.22 224.43 76.24 239.10 53.21 262.12 Z" fill="url(#未命名的渐变_26-7)" fill-opacity="0.4" fill-rule="nonzero" group-id="1,2" node-id="181" stroke="none" target-height="37.690002" target-width="359.07" target-x="53.21" target-y="224.43"></path></g><g node-id="275"><g node-id="279"><path d="M 380.66 26.68 L 318.07 26.68 C 316.58 26.62 315.31 27.78 315.25 29.27 L 315.25 201.44 C 315.31 202.93 316.58 204.09 318.07 204.03 L 380.66 204.03 C 382.15 204.09 383.41 202.93 383.48 201.44 L 383.48 29.27 C 383.41 27.78 382.15 26.62 380.66 26.68 Z M 328.30 147.00 C 328.29 147.24 328.19 147.47 328.01 147.64 C 327.83 147.80 327.59 147.88 327.35 147.87 L 323.75 147.87 C 323.51 147.88 323.27 147.80 323.09 147.64 C 322.91 147.47 322.81 147.24 322.80 147.00 L 322.80 127.27 C 322.81 127.03 322.92 126.80 323.09 126.64 C 323.27 126.47 323.51 126.39 323.75 126.40 L 327.35 126.40 C 327.59 126.39 327.83 126.47 328.01 126.64 C 328.18 126.80 328.29 127.03 328.30 127.27 Z M 328.30 116.77 C 328.29 117.01 328.18 117.24 328.01 117.40 C 327.83 117.57 327.59 117.65 327.35 117.64 L 323.75 117.64 C 323.51 117.65 323.27 117.57 323.09 117.40 C 322.92 117.24 322.81 117.01 322.80 116.77 L 322.80 97.00 C 322.81 96.76 322.92 96.53 323.09 96.37 C 323.27 96.20 323.51 96.12 323.75 96.13 L 327.35 96.13 C 327.59 96.12 327.83 96.20 328.01 96.37 C 328.18 96.53 328.29 96.76 328.30 97.00 Z M 328.30 86.53 C 328.29 86.77 328.18 87.00 328.01 87.16 C 327.83 87.33 327.59 87.41 327.35 87.40 L 323.75 87.40 C 323.51 87.41 323.27 87.33 323.09 87.16 C 322.92 87.00 322.81 86.77 322.80 86.53 L 322.80 66.80 C 322.81 66.56 322.92 66.33 323.09 66.17 C 323.27 66.00 323.51 65.92 323.75 65.93 L 327.35 65.93 C 327.59 65.92 327.83 66.00 328.01 66.17 C 328.18 66.33 328.29 66.56 328.30 66.80 Z M 328.30 56.29 C 328.29 56.53 328.18 56.76 328.01 56.92 C 327.83 57.09 327.59 57.17 327.35 57.16 L 323.75 57.16 C 323.51 57.17 323.27 57.09 323.09 56.92 C 322.92 56.76 322.81 56.53 322.80 56.29 L 322.80 36.56 C 322.81 36.32 322.92 36.09 323.09 35.93 C 323.27 35.76 323.51 35.68 323.75 35.69 L 327.35 35.69 C 327.59 35.68 327.83 35.76 328.01 35.93 C 328.18 36.09 328.29 36.32 328.30 36.56 Z M 340.00 147.00 C 339.99 147.24 339.89 147.47 339.71 147.63 C 339.54 147.79 339.30 147.88 339.06 147.87 L 335.45 147.87 C 335.21 147.88 334.97 147.80 334.79 147.63 C 334.62 147.47 334.51 147.24 334.50 147.00 L 334.50 127.27 C 334.53 126.77 334.95 126.38 335.45 126.40 L 339.06 126.40 C 339.56 126.38 339.98 126.77 340.00 127.27 Z M 340.00 116.77 C 339.98 117.27 339.56 117.66 339.06 117.64 L 335.45 117.64 C 334.95 117.66 334.53 117.27 334.50 116.77 L 334.50 97.00 C 334.53 96.50 334.95 96.11 335.45 96.13 L 339.06 96.13 C 339.56 96.11 339.98 96.50 340.00 97.00 Z M 340.00 86.53 C 339.98 87.03 339.56 87.42 339.06 87.40 L 335.45 87.40 C 334.95 87.42 334.53 87.03 334.50 86.53 L 334.50 66.80 C 334.53 66.30 334.95 65.91 335.45 65.93 L 339.06 65.93 C 339.56 65.91 339.98 66.30 340.00 66.80 Z M 340.00 56.29 C 339.98 56.79 339.56 57.18 339.06 57.16 L 335.45 57.16 C 334.95 57.18 334.53 56.79 334.50 56.29 L 334.50 36.56 C 334.53 36.06 334.95 35.67 335.45 35.69 L 339.06 35.69 C 339.56 35.67 339.98 36.06 340.00 36.56 Z M 351.70 147.00 C 351.69 147.24 351.59 147.47 351.41 147.63 C 351.24 147.79 351.00 147.88 350.76 147.87 L 347.15 147.87 C 346.91 147.88 346.67 147.79 346.50 147.63 C 346.32 147.47 346.22 147.24 346.21 147.00 L 346.21 127.27 C 346.23 126.77 346.65 126.38 347.15 126.40 L 350.76 126.40 C 351.26 126.38 351.68 126.77 351.70 127.27 Z M 351.70 116.77 C 351.68 117.27 351.26 117.66 350.76 117.64 L 347.15 117.64 C 346.65 117.66 346.23 117.27 346.21 116.77 L 346.21 97.00 C 346.23 96.50 346.65 96.11 347.15 96.13 L 350.76 96.13 C 351.26 96.11 351.68 96.50 351.70 97.00 Z M 351.70 86.53 C 351.68 87.03 351.26 87.42 350.76 87.40 L 347.15 87.40 C 346.65 87.42 346.23 87.03 346.21 86.53 L 346.21 66.80 C 346.23 66.30 346.65 65.91 347.15 65.93 L 350.76 65.93 C 351.26 65.91 351.68 66.30 351.70 66.80 Z M 351.70 56.29 C 351.68 56.79 351.26 57.18 350.76 57.16 L 347.15 57.16 C 346.65 57.18 346.23 56.79 346.21 56.29 L 346.21 36.56 C 346.23 36.06 346.65 35.67 347.15 35.69 L 350.76 35.69 C 351.26 35.67 351.68 36.06 351.70 36.56 Z M 363.40 147.00 C 363.39 147.24 363.29 147.47 363.11 147.63 C 362.94 147.79 362.70 147.88 362.46 147.87 L 358.85 147.87 C 358.61 147.88 358.37 147.79 358.20 147.63 C 358.02 147.47 357.92 147.24 357.91 147.00 L 357.91 127.27 C 357.93 126.77 358.35 126.38 358.85 126.40 L 362.46 126.40 C 362.96 126.38 363.38 126.77 363.40 127.27 Z M 363.40 116.77 C 363.38 117.27 362.96 117.66 362.46 117.64 L 358.85 117.64 C 358.35 117.66 357.93 117.27 357.91 116.77 L 357.91 97.00 C 357.93 96.50 358.35 96.11 358.85 96.13 L 362.46 96.13 C 362.96 96.11 363.38 96.50 363.40 97.00 Z M 363.40 86.53 C 363.38 87.03 362.96 87.42 362.46 87.40 L 358.85 87.40 C 358.35 87.42 357.93 87.03 357.91 86.53 L 357.91 66.80 C 357.93 66.30 358.35 65.91 358.85 65.93 L 362.46 65.93 C 362.96 65.91 363.38 66.30 363.40 66.80 Z M 363.40 56.29 C 363.38 56.79 362.96 57.18 362.46 57.16 L 358.85 57.16 C 358.35 57.18 357.93 56.79 357.91 56.29 L 357.91 36.56 C 357.93 36.06 358.35 35.67 358.85 35.69 L 362.46 35.69 C 362.96 35.67 363.38 36.06 363.40 36.56 Z M 375.11 147.00 C 375.10 147.24 374.99 147.47 374.82 147.63 C 374.64 147.80 374.40 147.88 374.16 147.87 L 370.55 147.87 C 370.31 147.88 370.07 147.79 369.90 147.63 C 369.72 147.47 369.62 147.24 369.61 147.00 L 369.61 127.27 C 369.63 126.77 370.05 126.38 370.55 126.40 L 374.16 126.40 C 374.66 126.38 375.08 126.77 375.11 127.27 Z M 375.11 116.77 C 375.08 117.27 374.66 117.66 374.16 117.64 L 370.55 117.64 C 370.05 117.66 369.63 117.27 369.61 116.77 L 369.61 97.00 C 369.63 96.50 370.05 96.11 370.55 96.13 L 374.16 96.13 C 374.66 96.11 375.08 96.50 375.11 97.00 Z M 375.11 86.53 C 375.08 87.03 374.66 87.42 374.16 87.40 L 370.55 87.40 C 370.05 87.42 369.63 87.03 369.61 86.53 L 369.61 66.80 C 369.63 66.30 370.05 65.91 370.55 65.93 L 374.16 65.93 C 374.66 65.91 375.08 66.30 375.11 66.80 Z M 375.11 56.29 C 375.08 56.79 374.66 57.18 374.16 57.16 L 370.55 57.16 C 370.05 57.18 369.63 56.79 369.61 56.29 L 369.61 36.56 C 369.63 36.06 370.05 35.67 370.55 35.69 L 374.16 35.69 C 374.66 35.67 375.08 36.06 375.11 36.56 Z" fill="url(#未命名的渐变_26-8)" fill-opacity="0.28" fill-rule="nonzero" group-id="1,3,7" node-id="188" stroke="none" target-height="177.47" target-width="68.23001" target-x="315.25" target-y="26.62"></path></g><g node-id="280"><path d="M 231.10 55.61 L 171.80 55.61 C 170.31 55.56 169.06 56.71 169.00 58.20 L 169.00 201.44 C 169.08 202.91 170.33 204.05 171.80 204.00 L 231.10 204.00 C 232.59 204.06 233.86 202.90 233.92 201.41 L 233.92 58.20 C 233.86 56.71 232.59 55.55 231.10 55.61 Z M 182.47 159.37 C 182.44 160.01 181.91 160.50 181.27 160.48 L 175.87 160.48 C 175.23 160.50 174.70 160.01 174.67 159.37 L 174.67 154.15 C 174.68 153.84 174.82 153.56 175.04 153.35 C 175.27 153.14 175.56 153.04 175.87 153.05 L 181.27 153.05 C 181.58 153.04 181.87 153.14 182.10 153.35 C 182.32 153.56 182.46 153.84 182.47 154.15 Z M 182.47 146.49 C 182.46 146.80 182.32 147.08 182.10 147.29 C 181.87 147.50 181.58 147.60 181.27 147.59 L 175.87 147.59 C 175.56 147.60 175.27 147.50 175.04 147.29 C 174.82 147.08 174.68 146.80 174.67 146.49 L 174.67 141.27 C 174.70 140.63 175.23 140.14 175.87 140.16 L 181.27 140.16 C 181.91 140.14 182.44 140.63 182.47 141.27 Z M 182.47 133.60 C 182.44 134.24 181.91 134.73 181.27 134.71 L 175.87 134.71 C 175.23 134.73 174.70 134.24 174.67 133.60 L 174.67 128.38 C 174.68 128.07 174.82 127.79 175.04 127.58 C 175.27 127.37 175.56 127.27 175.87 127.28 L 181.27 127.28 C 181.58 127.27 181.87 127.37 182.10 127.58 C 182.32 127.79 182.46 128.07 182.47 128.38 Z M 182.47 120.72 C 182.46 121.03 182.32 121.31 182.10 121.52 C 181.87 121.73 181.58 121.83 181.27 121.82 L 175.87 121.82 C 175.56 121.83 175.27 121.73 175.04 121.52 C 174.82 121.31 174.68 121.03 174.67 120.72 L 174.67 115.50 C 174.70 114.86 175.23 114.37 175.87 114.39 L 181.27 114.39 C 181.91 114.37 182.44 114.86 182.47 115.50 Z M 182.47 107.83 C 182.44 108.47 181.91 108.96 181.27 108.94 L 175.87 108.94 C 175.23 108.96 174.70 108.47 174.67 107.83 L 174.67 102.62 C 174.68 102.31 174.81 102.02 175.04 101.81 C 175.26 101.61 175.56 101.50 175.87 101.51 L 181.27 101.51 C 181.58 101.50 181.88 101.61 182.10 101.81 C 182.33 102.02 182.46 102.31 182.47 102.62 Z M 182.47 94.95 C 182.46 95.26 182.32 95.54 182.10 95.75 C 181.87 95.96 181.58 96.06 181.27 96.05 L 175.87 96.05 C 175.56 96.06 175.27 95.96 175.04 95.75 C 174.82 95.54 174.68 95.26 174.67 94.95 L 174.67 89.73 C 174.70 89.09 175.23 88.60 175.87 88.62 L 181.27 88.62 C 181.91 88.60 182.44 89.09 182.47 89.73 Z M 182.47 82.06 C 182.44 82.70 181.91 83.19 181.27 83.17 L 175.87 83.17 C 175.23 83.19 174.70 82.70 174.67 82.06 L 174.67 76.85 C 174.68 76.54 174.81 76.25 175.04 76.04 C 175.26 75.84 175.56 75.73 175.87 75.74 L 181.27 75.74 C 181.58 75.73 181.88 75.84 182.10 76.04 C 182.33 76.25 182.46 76.54 182.47 76.85 Z M 182.47 69.18 C 182.46 69.49 182.32 69.77 182.10 69.98 C 181.87 70.19 181.58 70.29 181.27 70.28 L 175.87 70.28 C 175.56 70.29 175.27 70.19 175.04 69.98 C 174.82 69.77 174.68 69.49 174.67 69.18 L 174.67 64.00 C 174.70 63.36 175.23 62.87 175.87 62.89 L 181.27 62.89 C 181.91 62.87 182.44 63.36 182.47 64.00 Z M 192.55 159.37 C 192.52 160.01 191.99 160.50 191.35 160.48 L 186.00 160.48 C 185.69 160.49 185.39 160.38 185.16 160.18 C 184.94 159.97 184.80 159.68 184.79 159.37 L 184.79 154.15 C 184.82 153.51 185.36 153.02 186.00 153.05 L 191.40 153.05 C 191.71 153.04 192.00 153.14 192.23 153.35 C 192.45 153.56 192.59 153.84 192.60 154.15 Z M 192.55 146.49 C 192.54 146.80 192.40 147.08 192.18 147.29 C 191.95 147.50 191.66 147.60 191.35 147.59 L 186.00 147.59 C 185.36 147.62 184.82 147.13 184.79 146.49 L 184.79 141.27 C 184.80 140.96 184.94 140.67 185.16 140.46 C 185.39 140.26 185.69 140.15 186.00 140.16 L 191.40 140.16 C 192.04 140.14 192.57 140.63 192.60 141.27 Z M 192.55 133.60 C 192.52 134.24 191.99 134.73 191.35 134.71 L 186.00 134.71 C 185.69 134.72 185.39 134.61 185.16 134.41 C 184.94 134.20 184.80 133.91 184.79 133.60 L 184.79 128.38 C 184.82 127.74 185.36 127.25 186.00 127.28 L 191.40 127.28 C 191.71 127.27 192.00 127.37 192.23 127.58 C 192.45 127.79 192.59 128.07 192.60 128.38 Z M 192.55 120.72 C 192.54 121.03 192.40 121.31 192.18 121.52 C 191.95 121.73 191.66 121.83 191.35 121.82 L 186.00 121.82 C 185.36 121.85 184.82 121.36 184.79 120.72 L 184.79 115.50 C 184.80 115.19 184.94 114.90 185.16 114.69 C 185.39 114.49 185.69 114.38 186.00 114.39 L 191.40 114.39 C 192.04 114.37 192.57 114.86 192.60 115.50 Z M 192.55 107.83 C 192.52 108.47 191.99 108.96 191.35 108.94 L 186.00 108.94 C 185.69 108.95 185.39 108.84 185.16 108.64 C 184.94 108.43 184.80 108.14 184.79 107.83 L 184.79 102.62 C 184.80 102.31 184.94 102.02 185.16 101.81 C 185.39 101.61 185.69 101.50 186.00 101.51 L 191.40 101.51 C 191.71 101.50 192.01 101.61 192.23 101.81 C 192.46 102.02 192.59 102.31 192.60 102.62 Z M 192.55 94.95 C 192.54 95.26 192.40 95.54 192.18 95.75 C 191.95 95.96 191.66 96.06 191.35 96.05 L 186.00 96.05 C 185.36 96.08 184.82 95.59 184.79 94.95 L 184.79 89.73 C 184.80 89.42 184.94 89.13 185.16 88.92 C 185.39 88.72 185.69 88.61 186.00 88.62 L 191.40 88.62 C 192.04 88.60 192.57 89.09 192.60 89.73 Z M 192.55 82.06 C 192.52 82.70 191.99 83.19 191.35 83.17 L 186.00 83.17 C 185.69 83.18 185.39 83.07 185.16 82.87 C 184.94 82.66 184.80 82.37 184.79 82.06 L 184.79 76.85 C 184.80 76.54 184.94 76.25 185.16 76.04 C 185.39 75.84 185.69 75.73 186.00 75.74 L 191.40 75.74 C 191.71 75.73 192.01 75.84 192.23 76.04 C 192.46 76.25 192.59 76.54 192.60 76.85 Z M 192.55 69.18 C 192.54 69.49 192.40 69.77 192.18 69.98 C 191.95 70.19 191.66 70.29 191.35 70.28 L 186.00 70.28 C 185.36 70.31 184.82 69.82 184.79 69.18 L 184.79 64.00 C 184.79 63.69 184.92 63.38 185.15 63.17 C 185.38 62.95 185.69 62.84 186.00 62.85 L 191.40 62.85 C 192.04 62.83 192.57 63.32 192.60 63.96 Z M 202.63 159.37 C 202.62 159.68 202.48 159.97 202.26 160.18 C 202.03 160.38 201.73 160.49 201.42 160.48 L 196.00 160.48 C 195.36 160.50 194.83 160.01 194.80 159.37 L 194.80 154.15 C 194.81 153.84 194.95 153.56 195.17 153.35 C 195.40 153.14 195.69 153.04 196.00 153.05 L 201.40 153.05 C 202.04 153.02 202.58 153.51 202.61 154.15 Z M 202.63 146.49 C 202.60 147.13 202.06 147.62 201.42 147.59 L 196.00 147.59 C 195.69 147.60 195.40 147.50 195.17 147.29 C 194.95 147.08 194.81 146.80 194.80 146.49 L 194.80 141.27 C 194.83 140.63 195.36 140.14 196.00 140.16 L 201.40 140.16 C 201.71 140.15 202.01 140.26 202.24 140.46 C 202.46 140.67 202.60 140.96 202.61 141.27 Z M 202.63 133.60 C 202.62 133.91 202.48 134.20 202.26 134.41 C 202.03 134.61 201.73 134.72 201.42 134.71 L 196.00 134.71 C 195.36 134.73 194.83 134.24 194.80 133.60 L 194.80 128.38 C 194.81 128.07 194.95 127.79 195.17 127.58 C 195.40 127.37 195.69 127.27 196.00 127.28 L 201.40 127.28 C 202.04 127.25 202.58 127.74 202.61 128.38 Z M 202.63 120.72 C 202.60 121.36 202.06 121.85 201.42 121.82 L 196.00 121.82 C 195.69 121.83 195.40 121.73 195.17 121.52 C 194.95 121.31 194.81 121.03 194.80 120.72 L 194.80 115.50 C 194.83 114.86 195.36 114.37 196.00 114.39 L 201.40 114.39 C 201.71 114.38 202.01 114.49 202.24 114.69 C 202.46 114.90 202.60 115.19 202.61 115.50 Z M 202.63 107.83 C 202.62 108.14 202.48 108.43 202.26 108.64 C 202.03 108.84 201.73 108.95 201.42 108.94 L 196.00 108.94 C 195.36 108.96 194.83 108.47 194.80 107.83 L 194.80 102.62 C 194.81 102.31 194.94 102.02 195.17 101.81 C 195.39 101.61 195.69 101.50 196.00 101.51 L 201.40 101.51 C 201.71 101.50 202.01 101.61 202.24 101.81 C 202.46 102.02 202.60 102.31 202.61 102.62 Z M 202.63 94.95 C 202.60 95.59 202.06 96.08 201.42 96.05 L 196.00 96.05 C 195.69 96.06 195.40 95.96 195.17 95.75 C 194.95 95.54 194.81 95.26 194.80 94.95 L 194.80 89.73 C 194.83 89.09 195.36 88.60 196.00 88.62 L 201.40 88.62 C 201.71 88.61 202.01 88.72 202.24 88.92 C 202.46 89.13 202.60 89.42 202.61 89.73 Z M 202.63 82.06 C 202.62 82.37 202.48 82.66 202.26 82.87 C 202.03 83.07 201.73 83.18 201.42 83.17 L 196.00 83.17 C 195.36 83.19 194.83 82.70 194.80 82.06 L 194.80 76.85 C 194.81 76.54 194.94 76.25 195.17 76.04 C 195.39 75.84 195.69 75.73 196.00 75.74 L 201.40 75.74 C 201.71 75.73 202.01 75.84 202.24 76.04 C 202.46 76.25 202.60 76.54 202.61 76.85 Z M 202.63 69.18 C 202.60 69.82 202.06 70.31 201.42 70.28 L 196.00 70.28 C 195.69 70.29 195.40 70.19 195.17 69.98 C 194.95 69.77 194.81 69.49 194.80 69.18 L 194.80 64.00 C 194.83 63.36 195.36 62.87 196.00 62.89 L 201.40 62.89 C 201.71 62.87 202.02 62.98 202.25 63.19 C 202.48 63.40 202.62 63.69 202.63 64.00 Z M 227.84 159.37 C 227.81 160.01 227.28 160.50 226.64 160.48 L 206.10 160.48 C 205.46 160.50 204.93 160.01 204.90 159.37 L 204.90 154.15 C 204.91 153.84 205.05 153.56 205.27 153.35 C 205.50 153.14 205.79 153.04 206.10 153.05 L 226.64 153.05 C 226.95 153.04 227.24 153.14 227.47 153.35 C 227.69 153.56 227.83 153.84 227.84 154.15 Z M 227.84 146.49 C 227.83 146.80 227.69 147.08 227.47 147.29 C 227.24 147.50 226.95 147.60 226.64 147.59 L 206.10 147.59 C 205.79 147.60 205.50 147.50 205.27 147.29 C 205.05 147.08 204.91 146.80 204.90 146.49 L 204.90 141.27 C 204.93 140.63 205.46 140.14 206.10 140.16 L 226.64 140.16 C 227.28 140.14 227.81 140.63 227.84 141.27 Z M 227.84 133.60 C 227.81 134.24 227.28 134.73 226.64 134.71 L 206.10 134.71 C 205.46 134.73 204.93 134.24 204.90 133.60 L 204.90 128.38 C 204.91 128.07 205.05 127.79 205.27 127.58 C 205.50 127.37 205.79 127.27 206.10 127.28 L 226.64 127.28 C 226.95 127.27 227.24 127.37 227.47 127.58 C 227.69 127.79 227.83 128.07 227.84 128.38 Z M 227.84 120.72 C 227.83 121.03 227.69 121.31 227.47 121.52 C 227.24 121.73 226.95 121.83 226.64 121.82 L 206.10 121.82 C 205.79 121.83 205.50 121.73 205.27 121.52 C 205.05 121.31 204.91 121.03 204.90 120.72 L 204.90 115.50 C 204.93 114.86 205.46 114.37 206.10 114.39 L 226.64 114.39 C 227.28 114.37 227.81 114.86 227.84 115.50 Z M 227.84 107.83 C 227.81 108.47 227.28 108.96 226.64 108.94 L 206.10 108.94 C 205.46 108.96 204.93 108.47 204.90 107.83 L 204.90 102.62 C 204.91 102.31 205.04 102.02 205.27 101.81 C 205.49 101.61 205.79 101.50 206.10 101.51 L 226.64 101.51 C 226.95 101.50 227.25 101.61 227.47 101.81 C 227.70 102.02 227.83 102.31 227.84 102.62 Z M 227.84 94.95 C 227.83 95.26 227.69 95.54 227.47 95.75 C 227.24 95.96 226.95 96.06 226.64 96.05 L 206.10 96.05 C 205.79 96.06 205.50 95.96 205.27 95.75 C 205.05 95.54 204.91 95.26 204.90 94.95 L 204.90 89.73 C 204.93 89.09 205.46 88.60 206.10 88.62 L 226.64 88.62 C 227.28 88.60 227.81 89.09 227.84 89.73 Z M 227.84 82.06 C 227.81 82.70 227.28 83.19 226.64 83.17 L 206.10 83.17 C 205.46 83.19 204.93 82.70 204.90 82.06 L 204.90 76.85 C 204.91 76.54 205.04 76.25 205.27 76.04 C 205.49 75.84 205.79 75.73 206.10 75.74 L 226.64 75.74 C 226.95 75.73 227.25 75.84 227.47 76.04 C 227.70 76.25 227.83 76.54 227.84 76.85 Z M 227.84 69.18 C 227.83 69.49 227.69 69.77 227.47 69.98 C 227.24 70.19 226.95 70.29 226.64 70.28 L 206.10 70.28 C 205.79 70.29 205.50 70.19 205.27 69.98 C 205.05 69.77 204.91 69.49 204.90 69.18 L 204.90 64.00 C 204.93 63.36 205.46 62.87 206.10 62.89 L 226.64 62.89 C 227.28 62.87 227.81 63.36 227.84 64.00 Z" fill="url(#未命名的渐变_26-9)" fill-opacity="0.28" fill-rule="nonzero" group-id="1,3,8" node-id="193" stroke="none" target-height="148.51" target-width="64.92" target-x="169" target-y="55.55"></path></g><g node-id="281"><path d="M 161.13 26.68 L 84.83 26.68 C 84.11 26.65 83.41 26.90 82.88 27.39 C 82.35 27.87 82.03 28.55 82.00 29.27 L 82.00 201.44 C 82.08 202.93 83.34 204.07 84.83 204.00 L 161.13 204.00 C 162.62 204.06 163.89 202.90 163.95 201.41 L 163.95 29.27 C 163.89 27.78 162.62 26.62 161.13 26.68 Z M 154.34 161.00 C 154.31 161.64 153.78 162.13 153.14 162.11 L 92.83 162.11 C 92.52 162.12 92.22 162.01 91.99 161.81 C 91.77 161.60 91.63 161.31 91.62 161.00 L 91.62 155.79 C 91.63 155.48 91.77 155.19 91.99 154.98 C 92.22 154.78 92.52 154.67 92.83 154.68 L 153.14 154.68 C 153.45 154.67 153.75 154.78 153.97 154.98 C 154.20 155.19 154.33 155.48 154.34 155.79 Z M 154.34 146.33 C 154.33 146.64 154.19 146.92 153.97 147.13 C 153.74 147.34 153.45 147.44 153.14 147.43 L 92.83 147.43 C 92.19 147.46 91.65 146.97 91.62 146.33 L 91.62 141.11 C 91.63 140.80 91.77 140.51 91.99 140.30 C 92.22 140.10 92.52 139.99 92.83 140.00 L 153.14 140.00 C 153.78 139.98 154.31 140.47 154.34 141.11 Z M 154.34 131.65 C 154.31 132.29 153.78 132.78 153.14 132.76 L 92.83 132.76 C 92.52 132.77 92.22 132.66 91.99 132.46 C 91.77 132.25 91.63 131.96 91.62 131.65 L 91.62 126.43 C 91.65 125.79 92.19 125.30 92.83 125.33 L 153.14 125.33 C 153.45 125.32 153.74 125.42 153.97 125.63 C 154.19 125.84 154.33 126.12 154.34 126.43 Z M 154.34 116.97 C 154.31 117.61 153.78 118.10 153.14 118.08 L 92.83 118.08 C 92.52 118.09 92.22 117.98 91.99 117.78 C 91.77 117.57 91.63 117.28 91.62 116.97 L 91.62 111.76 C 91.63 111.45 91.77 111.16 91.99 110.95 C 92.22 110.75 92.52 110.64 92.83 110.65 L 153.14 110.65 C 153.45 110.64 153.75 110.75 153.97 110.95 C 154.20 111.16 154.33 111.45 154.34 111.76 Z M 154.34 102.30 C 154.33 102.61 154.19 102.89 153.97 103.10 C 153.74 103.31 153.45 103.41 153.14 103.40 L 92.83 103.40 C 92.19 103.43 91.65 102.94 91.62 102.30 L 91.62 97.00 C 91.63 96.69 91.77 96.40 91.99 96.19 C 92.22 95.99 92.52 95.88 92.83 95.89 L 153.14 95.89 C 153.78 95.87 154.31 96.36 154.34 97.00 Z M 154.34 87.62 C 154.31 88.26 153.78 88.75 153.14 88.73 L 92.83 88.73 C 92.52 88.74 92.22 88.63 91.99 88.43 C 91.77 88.22 91.63 87.93 91.62 87.62 L 91.62 82.35 C 91.65 81.71 92.19 81.22 92.83 81.25 L 153.14 81.25 C 153.45 81.24 153.74 81.34 153.97 81.55 C 154.19 81.76 154.33 82.04 154.34 82.35 Z M 154.34 72.94 C 154.31 73.58 153.78 74.07 153.14 74.05 L 92.83 74.05 C 92.52 74.06 92.22 73.95 91.99 73.75 C 91.77 73.54 91.63 73.25 91.62 72.94 L 91.62 67.68 C 91.63 67.37 91.77 67.08 91.99 66.87 C 92.22 66.67 92.52 66.56 92.83 66.57 L 153.14 66.57 C 153.45 66.56 153.75 66.67 153.97 66.87 C 154.20 67.08 154.33 67.37 154.34 67.68 Z M 154.34 58.27 C 154.33 58.58 154.19 58.86 153.97 59.07 C 153.74 59.28 153.45 59.38 153.14 59.37 L 92.83 59.37 C 92.19 59.40 91.65 58.91 91.62 58.27 L 91.62 53.00 C 91.63 52.69 91.77 52.40 91.99 52.19 C 92.22 51.99 92.52 51.88 92.83 51.89 L 153.14 51.89 C 153.78 51.87 154.31 52.36 154.34 53.00 Z M 154.34 43.59 C 154.31 44.23 153.78 44.72 153.14 44.70 L 92.83 44.70 C 92.52 44.71 92.22 44.60 91.99 44.40 C 91.77 44.19 91.63 43.90 91.62 43.59 L 91.62 38.32 C 91.65 37.68 92.19 37.19 92.83 37.22 L 153.14 37.22 C 153.45 37.21 153.74 37.31 153.97 37.52 C 154.19 37.73 154.33 38.01 154.34 38.32 Z" fill="url(#未命名的渐变_26-10)" fill-opacity="0.28" fill-rule="nonzero" group-id="1,3,9" node-id="198" stroke="none" target-height="177.45001" target-width="81.95" target-x="82" target-y="26.62"></path></g><path d="M 306.21 0.00 L 240.82 0.00 C 239.44 0.05 238.36 1.21 238.40 2.59 L 238.40 206.94 C 238.38 207.61 238.62 208.25 239.07 208.74 C 239.52 209.23 240.15 209.52 240.82 209.54 L 306.21 209.54 C 307.59 209.49 308.67 208.32 308.62 206.94 L 308.62 2.59 C 308.67 1.21 307.59 0.05 306.21 0.00 Z M 300.39 134.28 C 300.41 134.86 299.97 135.35 299.39 135.38 L 247.67 135.38 C 247.09 135.35 246.65 134.86 246.67 134.28 L 246.67 129.06 C 246.65 128.48 247.09 127.99 247.67 127.95 L 299.36 127.95 C 299.94 127.99 300.38 128.48 300.36 129.06 Z M 300.39 119.60 C 300.41 120.18 299.97 120.67 299.39 120.71 L 247.67 120.71 C 247.09 120.67 246.65 120.18 246.67 119.60 L 246.67 114.38 C 246.65 113.80 247.09 113.31 247.67 113.28 L 299.36 113.28 C 299.94 113.31 300.38 113.80 300.36 114.38 Z M 300.39 104.92 C 300.41 105.50 299.97 105.99 299.39 106.03 L 247.67 106.03 C 247.09 105.99 246.65 105.50 246.67 104.92 L 246.67 99.71 C 246.65 99.13 247.09 98.64 247.67 98.60 L 299.36 98.60 C 299.94 98.64 300.38 99.13 300.36 99.71 Z M 300.39 90.25 C 300.41 90.83 299.97 91.32 299.39 91.35 L 247.67 91.35 C 247.09 91.32 246.65 90.83 246.67 90.25 L 246.67 85.00 C 246.65 84.42 247.09 83.93 247.67 83.89 L 299.36 83.89 C 299.94 83.93 300.38 84.42 300.36 85.00 Z M 300.39 75.57 C 300.41 76.15 299.97 76.64 299.39 76.68 L 247.67 76.68 C 247.09 76.64 246.65 76.15 246.67 75.57 L 246.67 70.35 C 246.65 69.77 247.09 69.28 247.67 69.25 L 299.36 69.25 C 299.94 69.28 300.38 69.77 300.36 70.35 Z M 300.39 60.89 C 300.41 61.47 299.97 61.96 299.39 62.00 L 247.67 62.00 C 247.09 61.96 246.65 61.47 246.67 60.89 L 246.67 55.68 C 246.65 55.10 247.09 54.61 247.67 54.57 L 299.36 54.57 C 299.94 54.61 300.38 55.10 300.36 55.68 Z M 300.39 46.22 C 300.41 46.80 299.97 47.29 299.39 47.32 L 247.67 47.32 C 247.09 47.29 246.65 46.80 246.67 46.22 L 246.67 41.00 C 246.65 40.42 247.09 39.93 247.67 39.89 L 299.36 39.89 C 299.94 39.93 300.38 40.42 300.36 41.00 Z M 300.39 31.54 C 300.41 32.12 299.97 32.61 299.39 32.65 L 247.67 32.65 C 247.09 32.61 246.65 32.12 246.67 31.54 L 246.67 26.32 C 246.65 25.74 247.09 25.25 247.67 25.22 L 299.36 25.22 C 299.94 25.25 300.38 25.74 300.36 26.32 Z M 300.39 16.86 C 300.41 17.44 299.97 17.93 299.39 17.97 L 247.67 17.97 C 247.09 17.93 246.65 17.44 246.67 16.86 L 246.67 11.65 C 246.65 11.07 247.09 10.58 247.67 10.54 L 299.36 10.54 C 299.94 10.58 300.38 11.07 300.36 11.65 Z" fill="url(#未命名的渐变_26-11)" fill-opacity="0.28" fill-rule="nonzero" group-id="1,3,10" node-id="203" stroke="none" target-height="209.54" target-width="70.31001" target-x="238.36" target-y="0"></path></g><path d="M 254.42 118.60 L 305.52 164.94 C 306.52 165.83 307.12 167.09 307.18 168.42 C 307.25 169.76 306.77 171.06 305.87 172.05 C 304.97 173.04 303.72 173.62 302.39 173.68 C 301.06 173.75 299.75 173.29 298.76 172.39 L 247.66 126.00 L 247.56 125.88 C 248.20 125.34 248.79 124.76 249.35 124.14 L 253.85 119.14 C 254.04 118.93 254.23 118.71 254.40 118.50 Z" fill="url(#未命名的渐变_5)" fill-rule="nonzero" group-id="1" node-id="207" stroke="none" target-height="55.25" target-width="59.690002" target-x="247.56" target-y="118.5"></path><path d="M 195.43 66.23 C 205.79 54.80 227.27 57.40 243.43 72.03 C 259.28 86.40 264.07 107.03 254.43 118.58 C 254.26 118.79 254.07 119.01 253.88 119.22 L 249.38 124.22 C 259.72 112.75 255.00 91.63 238.90 77.00 C 223.00 62.58 201.90 59.85 191.37 70.73 L 191.37 70.73 Z" fill="#2d8ce9" fill-rule="nonzero" group-id="1" node-id="209" stroke="none" target-height="69.42" target-width="72.70001" target-x="191.37" target-y="54.8"></path><path d="M 201.38 118.37 C 185.24 103.74 180.56 82.62 190.92 71.19 L 191.37 70.72 C 201.89 59.84 223.00 62.57 238.90 77.00 C 255.04 91.64 259.72 112.76 249.35 124.19 C 248.79 124.81 248.20 125.39 247.56 125.93 C 236.67 135.29 216.63 132.21 201.38 118.37 Z M 202.57 117.05 C 217.07 130.19 236.35 132.53 245.66 122.26 C 246.20 121.67 246.70 121.05 247.15 120.39 L 247.15 120.39 C 254.42 109.82 249.90 92.30 236.25 79.92 C 222.60 67.54 204.76 64.73 194.94 73.00 L 194.94 73.00 C 194.33 73.51 193.76 74.07 193.22 74.66 C 183.88 84.94 188.09 103.91 202.57 117.05 Z" fill="#53bef5" fill-rule="nonzero" group-id="1" node-id="211" stroke="none" target-height="75.45" target-width="79.16" target-x="180.56" target-y="59.84"></path><path d="M 193.19 74.68 C 193.73 74.08 194.30 73.52 194.91 73.00 C 186.54 82.28 191.35 100.32 205.82 113.45 C 220.29 126.58 238.72 129.61 247.15 120.37 C 246.70 121.03 246.20 121.65 245.66 122.24 C 236.35 132.51 217.07 130.17 202.57 117.03 C 188.07 103.89 183.88 84.94 193.19 74.68 Z" fill="#2d8ce9" fill-rule="nonzero" group-id="1" node-id="213" stroke="none" target-height="59.509995" target-width="63.26999" target-x="183.88" target-y="73"></path><path d="M 194.94 73.00 C 204.76 64.74 222.63 67.53 236.27 79.90 C 249.91 92.27 254.44 109.80 247.17 120.37 L 247.17 120.37 C 238.74 129.61 220.32 126.58 205.84 113.45 C 191.36 100.32 186.54 82.30 194.91 73.00 Z" fill="url(#未命名的渐变_33)" fill-opacity="0.51" fill-rule="nonzero" group-id="1,4" node-id="217" stroke="none" target-height="64.87" target-width="67.90001" target-x="186.54" target-y="64.74"></path><path d="M 185.00 236.25 C 183.72 235.46 182.58 234.44 181.90 234.12 C 179.33 232.92 179.05 233.65 177.97 232.92 C 177.72 232.76 177.57 232.49 177.56 232.20 C 176.67 233.89 179.56 234.08 180.27 234.20 C 181.24 234.54 182.14 235.02 182.97 235.63 C 184.19 236.61 185.55 237.40 187.00 238.00 C 188.23 238.19 189.48 237.76 190.33 236.85 C 190.67 236.48 190.61 236.09 190.33 235.59 C 190.33 236.37 189.14 237.22 187.90 237.31 C 186.66 237.40 186.23 237.00 185.00 236.25 Z" fill="#ebfcff" fill-rule="nonzero" group-id="1" node-id="220" stroke="none" target-height="5.9900055" target-width="14" target-x="176.67" target-y="232.2"></path><path d="M 192.79 233.21 C 192.56 233.34 192.42 233.58 192.42 233.84 C 192.42 234.10 192.56 234.34 192.79 234.47 C 194.03 234.71 195.30 234.79 196.57 234.71 C 197.34 234.71 199.74 234.71 200.51 234.82 C 201.28 234.93 208.81 235.32 208.96 235.10 C 208.91 234.89 209.19 234.31 208.81 234.10 C 208.81 234.21 208.75 234.25 208.63 234.26 C 208.29 234.26 203.13 234.05 201.68 233.90 C 200.23 233.75 195.25 233.66 194.56 233.71 C 193.87 233.76 192.82 233.73 192.79 233.21 Z" fill="#ebfcff" fill-rule="nonzero" group-id="1" node-id="222" stroke="none" target-height="2.1100006" target-width="16.770004" target-x="192.42" target-y="233.21"></path><path d="M 179.44 227.92 C 179.59 229.01 178.80 229.51 178.23 230.41 C 177.84 230.93 177.59 231.55 177.51 232.20 L 177.51 232.20 C 177.52 232.49 177.67 232.76 177.92 232.92 C 179.00 233.65 179.28 232.92 181.85 234.12 C 182.53 234.44 183.67 235.46 184.95 236.25 C 186.23 237.04 186.66 237.42 187.95 237.32 C 189.24 237.22 190.38 236.38 190.38 235.60 C 190.38 234.82 188.90 234.82 188.00 234.30 C 187.10 233.78 184.61 231.30 183.73 230.63 C 182.85 229.96 183.40 229.63 183.67 229.32 C 183.63 229.23 183.57 229.16 183.49 229.10 C 183.34 229.01 183.17 228.98 183.00 229.00 C 182.83 229.00 183.16 229.62 182.31 230.05 C 181.46 230.48 180.16 229.55 180.01 229.11 C 179.86 228.79 179.86 228.43 180.01 228.11 C 179.98 227.99 179.89 227.90 179.78 227.86 C 179.66 227.82 179.54 227.85 179.44 227.92 Z" fill="#ffb056" fill-rule="nonzero" group-id="1" node-id="224" stroke="none" target-height="9.599991" target-width="12.87001" target-x="177.51" target-y="227.82"></path><path d="M 198.06 228.92 L 198.06 229.25 C 198.06 230.08 196.41 230.13 195.54 230.11 C 195.06 230.09 194.60 229.88 194.28 229.52 C 194.07 229.31 193.89 229.09 193.73 228.84 C 193.34 228.26 193.00 228.51 192.61 228.73 C 192.22 228.95 192.97 229.29 193.17 229.79 C 193.37 230.29 192.75 232.68 192.79 233.21 C 192.83 233.74 193.90 233.79 194.59 233.74 C 195.28 233.69 200.25 233.74 201.71 233.93 C 203.17 234.12 208.32 234.33 208.66 234.29 C 208.78 234.29 208.83 234.29 208.84 234.13 C 208.81 233.73 208.81 233.32 208.84 232.92 C 209.00 231.84 207.14 231.98 206.05 231.92 C 203.73 231.45 201.45 230.81 199.23 229.99 C 198.57 229.72 198.55 229.23 198.75 228.41 C 198.06 228.33 198.01 228.41 198.01 228.81 Z" fill="#ffb056" fill-rule="nonzero" group-id="1" node-id="226" stroke="none" target-height="6.0700073" target-width="16.779999" target-x="192.22" target-y="228.26"></path><path d="M 190.26 187.75 L 190.26 187.75 L 190.93 203.75 L 191.93 207.16 C 191.93 207.16 192.13 224.88 192.22 227.41 C 192.84 227.71 193.53 227.87 194.22 227.88 C 195.63 227.97 197.29 227.71 198.06 226.94 L 198.06 226.94 C 198.16 226.85 198.24 226.75 198.30 226.64 L 197.43 206.15 L 194.34 187.42 C 193.25 187.57 191.80 187.67 190.26 187.75 Z" fill="#398eed" fill-rule="nonzero" group-id="1" node-id="228" stroke="none" target-height="40.550003" target-width="8.040009" target-x="190.26" target-y="187.42"></path><path d="M 190.93 203.77 L 190.26 187.77 L 190.26 187.77 C 187.97 187.88 185.49 187.93 183.87 187.95 L 185.60 207.80 C 185.60 207.80 181.15 223.63 180.37 226.33 C 180.37 226.41 180.40 226.50 180.44 226.57 C 180.81 227.27 182.44 227.96 183.89 228.18 C 184.50 228.33 185.14 228.29 185.73 228.07 L 191.09 207.70 Z" fill="#398eed" fill-rule="nonzero" group-id="1" node-id="230" stroke="none" target-height="40.559998" target-width="10.720001" target-x="180.37" target-y="187.77"></path><path d="M 190.29 157.19 C 190.29 157.19 189.46 157.02 189.46 157.19 C 189.55 157.41 189.68 157.62 189.85 157.79 C 190.02 157.61 190.17 157.41 190.29 157.19 Z" fill="#e49056" fill-rule="nonzero" group-id="1" node-id="232" stroke="none" target-height="0.769989" target-width="0.8299866" target-x="189.46" target-y="157.02"></path><path d="M 195.68 170.31 C 195.68 170.31 196.09 169.79 196.02 169.66 C 195.95 169.53 194.45 166.16 194.19 165.66 C 194.19 166.05 194.19 166.46 194.25 166.87 L 195.42 169.71 Z" fill="#e49056" fill-rule="nonzero" group-id="1" node-id="234" stroke="none" target-height="4.649994" target-width="1.8999939" target-x="194.19" target-y="165.66"></path><path d="M 194.25 166.85 C 194.25 166.44 194.25 166.03 194.19 165.64 C 194.06 162.97 193.94 160.76 193.88 160.10 L 193.33 159.84 C 192.51 159.47 191.07 158.84 190.80 158.70 C 190.42 158.48 190.08 158.18 189.80 157.83 C 189.63 157.66 189.50 157.45 189.41 157.23 L 188.89 157.76 C 187.47 159.04 186.38 160.64 185.70 162.42 C 184.81 164.78 181.50 183.14 182.43 187.94 L 183.82 187.94 C 185.44 187.94 187.92 187.87 190.21 187.76 C 191.75 187.68 193.21 187.58 194.21 187.45 C 194.73 187.42 195.23 187.30 195.71 187.10 C 195.28 185.48 194.46 178.53 194.71 177.72 C 194.71 177.37 194.66 176.72 194.62 175.98 L 192.62 172.57 C 193.72 171.81 194.65 170.83 195.37 169.70 Z" fill="#ffb056" fill-rule="nonzero" group-id="1" node-id="236" stroke="none" target-height="30.710007" target-width="14.210007" target-x="181.5" target-y="157.23"></path><path d="M 180.00 228.10 C 179.85 228.42 179.85 228.78 180.00 229.10 C 180.15 229.54 181.45 230.47 182.30 230.04 C 183.15 229.61 182.82 229.04 182.99 228.99 C 183.14 228.97 183.30 229.01 183.43 229.08 L 183.88 228.14 C 182.46 227.92 180.80 227.23 180.43 226.53 Z" fill="#fae6d2" fill-rule="nonzero" group-id="1" node-id="238" stroke="none" target-height="3.9400024" target-width="4.029999" target-x="179.85" target-y="226.53"></path><path d="M 194.17 227.91 L 194.28 229.52 C 194.60 229.88 195.06 230.09 195.54 230.11 C 196.41 230.11 198.05 230.11 198.06 229.25 L 198.06 228.85 L 198.00 227.00 C 197.23 227.77 195.57 228.00 194.16 227.94 Z" fill="#fae6d2" fill-rule="nonzero" group-id="1" node-id="240" stroke="none" target-height="3.1100006" target-width="3.899994" target-x="194.16" target-y="227"></path><path d="M 212.17 173.91 C 211.89 173.91 210.22 173.81 210.22 173.81 C 209.95 173.90 209.69 173.97 209.84 174.09 C 210.65 174.26 211.48 174.34 212.31 174.32 C 212.67 174.32 212.86 173.85 212.95 173.46 C 213.04 173.07 212.95 172.76 213.40 172.62 L 213.54 172.62 L 213.54 172.62 C 213.16 172.50 212.70 172.24 212.54 172.54 C 212.38 172.84 212.45 173.89 212.17 173.91 Z" fill="#fae6d2" fill-rule="nonzero" group-id="1" node-id="242" stroke="none" target-height="2.0999908" target-width="3.8499908" target-x="209.69" target-y="172.24"></path><path d="M 196.92 173.34 L 207.03 173.87 C 207.17 173.32 208.12 173.41 208.56 173.46 C 209.00 173.51 209.86 172.74 210.25 172.76 C 210.33 172.76 210.41 172.79 210.48 172.83 C 210.48 172.70 210.00 172.52 209.77 172.58 C 209.54 172.64 208.77 173.20 208.45 173.19 C 208.13 173.18 206.93 173.05 206.84 173.46 L 196.75 172.92 Z" fill="#fae6d2" fill-rule="nonzero" group-id="1" node-id="244" stroke="none" target-height="1.3499908" target-width="13.729996" target-x="196.75" target-y="172.52"></path><path d="M 190.29 157.19 C 190.17 157.42 190.02 157.63 189.85 157.83 C 190.13 158.18 190.47 158.48 190.85 158.70 C 191.12 158.81 192.56 159.47 193.38 159.84 C 193.25 159.16 193.45 158.47 193.93 157.97 L 193.82 157.89 L 193.43 157.60 C 192.48 156.90 191.83 155.86 191.60 154.70 L 191.60 154.50 C 191.31 155.46 190.86 156.37 190.29 157.19 Z" fill="#ffeed2" fill-rule="nonzero" group-id="1" node-id="246" stroke="none" target-height="5.3399963" target-width="4.0799866" target-x="189.85" target-y="154.5"></path><path d="M 192.21 151.50 C 191.66 152.40 191.42 153.45 191.52 154.50 L 191.52 154.70 C 191.75 155.86 192.40 156.90 193.35 157.60 L 193.74 157.89 L 193.85 157.97 C 194.19 158.21 194.58 158.40 194.98 158.52 C 196.16 158.81 197.39 158.36 198.11 157.39 C 198.65 157.14 199.11 157.73 199.48 157.10 C 199.86 156.30 199.10 155.46 199.79 153.95 C 200.36 152.17 199.68 150.22 198.12 149.18 C 196.22 148.09 193.56 149.12 192.21 151.50 Z" fill="#ffeed2" fill-rule="nonzero" group-id="1" node-id="248" stroke="none" target-height="10.720001" target-width="8.940002" target-x="191.42" target-y="148.09"></path><path d="M 194.69 176.00 L 195.09 176.67 L 207.09 175.90 C 208.15 175.90 212.91 176.53 213.71 175.51 C 214.51 174.49 214.71 173.93 214.41 173.37 C 214.11 172.81 213.91 172.57 213.53 172.62 L 213.39 172.62 C 212.92 172.76 213.03 173.06 212.94 173.46 C 212.85 173.86 212.66 174.35 212.30 174.32 C 211.47 174.34 210.64 174.26 209.83 174.09 C 209.68 173.97 209.94 173.90 210.21 173.81 C 210.48 173.72 210.66 173.63 210.66 173.46 C 210.66 173.29 210.66 172.94 210.47 172.83 C 210.40 172.79 210.32 172.76 210.24 172.76 C 209.85 172.76 208.99 173.50 208.55 173.46 C 208.11 173.42 207.16 173.32 207.02 173.87 L 196.91 173.34 L 196.74 172.92 L 195.67 170.31 L 195.41 169.69 C 194.69 170.82 193.76 171.80 192.66 172.56 Z" fill="#ffeed2" fill-rule="nonzero" group-id="1" node-id="250" stroke="none" target-height="6.9799957" target-width="22.050003" target-x="192.66" target-y="169.69"></path><path d="M 192.67 172.56 C 192.09 173.00 191.40 173.27 190.67 173.34 C 189.79 171.62 188.00 168.00 188.00 168.00" fill="none" group-id="1" node-id="252" stroke="#e49056" stroke-linecap="butt" stroke-width="0.23" target-height="5.3399963" target-width="4.669998" target-x="188" target-y="168"></path><path d="M 192.78 163.29 L 194.25 166.85" fill="none" group-id="1" node-id="254" stroke="#e49056" stroke-linecap="butt" stroke-width="0.23" target-height="3.5600128" target-width="1.4700012" target-x="192.78" target-y="163.29"></path><path d="M 190.26 187.75 L 190.93 203.77" fill="none" group-id="1" node-id="256" stroke="#3972d9" stroke-linecap="butt" stroke-width="0.25" target-height="16.020004" target-width="0.66999817" target-x="190.26" target-y="187.75"></path><path d="M 208.84 234.13 C 209.22 234.31 208.94 234.89 208.99 235.13 C 208.84 235.35 201.32 234.93 200.54 234.85 C 199.76 234.77 197.37 234.72 196.60 234.74 C 195.33 234.82 194.06 234.74 192.82 234.50 C 192.59 234.37 192.45 234.13 192.45 233.87 C 192.45 233.61 192.59 233.37 192.82 233.24" fill="none" group-id="1" node-id="258" stroke="#4986d9" stroke-linecap="butt" stroke-width="0.1" target-height="2.1100006" target-width="16.770004" target-x="192.45" target-y="233.24"></path><path d="M 190.33 235.60 C 190.61 236.10 190.67 236.49 190.33 236.86 C 189.48 237.77 188.23 238.19 187.00 238.00 C 185.54 237.41 184.16 236.62 182.92 235.65 C 182.09 235.04 181.19 234.56 180.22 234.22 C 179.53 234.07 176.62 233.88 177.51 232.22 L 177.51 232.22" fill="none" group-id="1" node-id="260" stroke="#4986d9" stroke-linecap="butt" stroke-width="0.1" target-height="5.970001" target-width="14.050003" target-x="176.62" target-y="232.22"></path><path d="M 191.17 153.13 C 191.43 152.43 191.38 152.38 191.36 152.36 C 191.31 152.31 191.28 152.24 191.28 152.17 C 191.28 152.17 191.28 152.09 191.28 152.03 C 191.08 151.12 191.26 150.17 191.80 149.41 C 192.55 148.52 193.70 148.05 194.86 148.17 C 195.00 148.10 195.13 148.02 195.24 147.91 C 195.61 147.58 196.07 147.18 197.50 147.50 C 198.93 147.82 199.24 148.70 199.34 149.12 C 199.34 149.19 199.34 149.27 199.34 149.28 L 199.54 149.28 C 200.20 149.31 200.80 149.69 201.11 150.28 C 201.38 150.88 201.38 151.58 201.11 152.18 C 201.06 152.29 201.03 152.41 201.03 152.53 C 201.03 152.53 201.21 152.62 201.30 152.65 C 201.55 152.73 201.90 152.83 202.03 153.13 C 202.13 153.41 202.11 153.71 201.96 153.97 C 201.83 154.32 201.47 154.53 201.10 154.47 C 200.78 154.44 200.49 154.27 200.31 154.00 C 200.22 154.18 200.08 154.33 199.91 154.43 C 199.71 154.56 199.47 154.60 199.24 154.54 C 198.72 154.39 198.29 154.03 198.05 153.54 C 197.77 153.78 197.42 153.92 197.05 153.92 L 197.05 153.92 C 196.77 153.93 196.51 153.79 196.37 153.55 C 196.29 153.44 196.24 153.38 196.15 153.37 C 196.06 153.36 195.91 153.61 195.82 153.81 C 195.73 154.01 195.61 154.24 195.45 154.28 L 195.32 154.28 L 195.32 154.14 C 195.32 153.79 195.14 153.24 194.90 153.14 C 194.90 153.14 194.79 153.14 194.63 153.33 C 194.32 153.65 194.09 154.05 193.99 154.48 C 194.13 154.82 194.02 155.21 193.72 155.42 C 193.65 155.44 193.57 155.44 193.50 155.42 C 193.31 155.41 193.11 155.36 192.93 155.30 L 192.74 155.30 C 192.68 155.28 192.63 155.28 192.57 155.30 C 192.48 155.35 192.37 155.35 192.28 155.30 C 192.13 155.20 192.22 155.02 192.28 154.90 L 192.28 154.81 L 192.28 154.81 C 192.12 154.94 191.90 154.98 191.71 154.91 C 191.10 154.54 190.87 153.77 191.17 153.13 Z" fill="#000000" fill-rule="nonzero" group-id="1" node-id="262" stroke="none" target-height="8.26001" target-width="11.26001" target-x="190.87" target-y="147.18"></path><path d="M 194.97 152.83 L 195.22 153.03 L 195.37 153.37 L 195.27 154.23 L 194.73 154.91 L 194.39 155.05 L 194.07 155.02 L 193.82 154.82 L 193.67 154.48 L 193.77 153.62 L 194.31 152.94 L 194.65 152.80 L 194.97 152.83 Z" fill="#ffeed2" fill-rule="nonzero" group-id="1,5" node-id="266" stroke="none" target-height="2.25" target-width="1.699997" target-x="193.67" target-y="152.8"></path><path d="M 194.78 153.29 L 195.01 153.58 L 194.96 154.10 L 194.62 154.51 L 194.26 154.56 L 194.03 154.27 L 194.09 153.75 L 194.42 153.33 L 194.78 153.29 Z" fill="#e55c5c" fill-opacity="0.2" fill-rule="nonzero" group-id="1,6" node-id="271" stroke="none" target-height="1.2700043" target-width="0.9799957" target-x="194.03" target-y="153.29"></path><text align="left" editable="true" ellipsis="false" fill="#53bef5" flags="1" font-family="'Noto Sans CJK SC'" font-size="18.9378" font-stretch="normal" font-style="normal" font-weight="400" group-id="1" height="28.027945" letter-spacing="0" node-id="73" stroke="none" target-x="206.01" target-y="146.00215" vertical-align="center" width="8.976518" x="206.01" xml:space="preserve" y="167.97">?</text></g></svg>