<svg xmlns:xlink="http://www.w3.org/1999/xlink" xmlns="http://www.w3.org/2000/svg" version="1.1" viewBox="0 0 1200 1200" height="1200px" width="1200px">
    <title>咆哮怪</title>
    <g fill-rule="evenodd" fill="none" stroke-width="1" stroke="none" id="咆哮怪">
        <rect height="1200" width="1199" y="0" x="1" fill="#FFFFFF" id="矩形"></rect>
        <g transform="translate(235.000000, 127.000000)" id="编组">
            <path fill="#E8AACE" id="形状结合" d="M720.465098,226.835167 L720.465098,946.946806 L0.000579643043,946.946806 L0.000579643043,226.835167 L720.465098,226.835167 Z M141.534023,586.832314 C117.173479,586.832314 44.3475796,623.500516 28.0162197,629.348592 C16.3543459,633.524577 7.61550891,631.479868 0.0558725809,623.621362 L0.0563788025,798.78051 C4.39568447,788.052409 12.3873786,783.929205 31.9198988,791.261407 C59.799413,801.726939 114.03951,826.987154 141.534023,826.987154 C189.338644,826.987154 228.091946,773.226662 228.091946,706.909734 C228.091946,640.592806 189.338644,586.832314 141.534023,586.832314 Z"></path>
            <path fill="#F349AC" id="形状结合" d="M445.982546,486.075357 C445.982546,581.457295 442.452977,643.641146 435.393839,672.626911 C434.440856,676.539989 433.537606,680.460282 432.644435,684.385312 L431.456032,689.621275 C431.356916,690.057803 431.257706,690.494376 431.15835,690.93099 L430.560003,693.551146 C422.14617,730.239543 411.923521,767.172682 367.65071,802.335782 C314.944984,844.196616 267.357129,848.455762 212.408582,855.977737 C157.460036,863.499711 149.774925,856.576258 98.849542,847.470164 C64.8992866,841.399435 31.9496324,831.574901 0.000579643043,817.996562 L0.000579643043,584.235242 C18.3979709,577.233284 40.8055135,572.514262 67.2232073,570.078176 C87.0364777,568.251112 101.966082,568.074548 116.527367,568.055983 L118.557238,568.054268 L118.557238,568.054268 L122.613542,568.053385 C135.130222,568.050346 147.840686,568.010096 163.621609,566.981779 C188.074932,565.388351 213.386073,563.08015 239.555032,560.057177 C276.674825,558.844732 314.560598,551.312284 353.212352,537.459833 C391.864106,523.607382 422.787504,506.479223 445.982546,486.075357 Z M141.534023,590.432873 C117.173479,590.432873 44.3475796,627.101074 28.0162197,632.94915 C16.3543459,637.125135 7.61550891,635.080426 0.0558725809,627.22192 L0.0563788025,802.381068 C4.39568447,791.652967 12.3873786,787.529763 31.9198988,794.861965 C59.799413,805.327497 114.03951,830.587712 141.534023,830.587712 C189.338644,830.587712 228.091946,776.82722 228.091946,710.510292 C228.091946,644.193365 189.338644,590.432873 141.534023,590.432873 Z"></path>
            <path transform="translate(360.232839, 114.017895) scale(1, -1) translate(-360.232839, -114.017895)" fill="#387E8D" id="形状结合" d="M452.103614,0.000506220999 C441.375513,4.33980652 437.25231,12.3314908 444.584511,31.8639868 C455.050043,59.7434666 480.310258,113.983496 480.310258,141.477976 C480.310258,189.282537 426.549766,228.035791 360.232839,228.035791 C293.915911,228.035791 240.155419,189.282537 240.155419,141.477976 C240.155419,117.117461 276.823621,44.2916523 282.671696,27.9603125 C286.847682,16.2984531 284.802973,7.55962698 276.944466,-1.59872116e-14 Z"></path>
            <path transform="translate(259.890223, 410.157712) rotate(-11.000000) translate(-259.890223, -410.157712)" fill="#F5F8F8" stroke-width="1.2" stroke="#979797" id="椭圆形" d="M259.884605,350.147232 C300.378616,350.150948 337.136679,357.339686 364.173446,368.216161 C378.512559,373.984565 390.112575,380.786735 398.066771,388.107986 C405.709323,395.14239 409.984697,402.646902 409.984697,410.171537 C409.984697,417.696372 405.709797,425.200311 398.067883,432.233476 C390.114527,439.553272 378.515702,446.353295 364.177763,452.119022 C337.143857,462.990189 300.389071,470.171905 259.895841,470.168191 C219.401831,470.164475 182.643767,462.975737 155.607,452.099262 C141.267887,446.330858 129.667871,439.528688 121.713675,432.207438 C114.071124,425.173033 109.795749,417.668521 109.795749,410.143887 C109.795749,402.619052 114.070649,395.115112 121.712563,388.081947 C129.665919,380.762151 141.264744,373.962128 155.602683,368.196401 C182.636589,357.325234 219.391375,350.143518 259.884605,350.147232 Z"></path>
            <path transform="translate(283.164525, 380.289835) rotate(-11.000000) translate(-283.164525, -380.289835)" stroke-linecap="round" stroke-width="6" stroke="#387E8D" id="路径-4" d="M142.67645,388.072086 C181.717568,377.570577 227.362751,372.374379 279.611999,372.48349 C331.861246,372.592601 379.87478,377.797392 423.652601,388.097863"></path>
            <path transform="translate(291.684337, 486.786913) scale(1, -1) rotate(9.000000) translate(-291.684337, -486.786913)" stroke-linecap="round" stroke-width="6" stroke="#000000" id="路径-4" d="M183.615955,492.791857 C213.649113,484.708793 248.761668,480.705862 288.953618,480.783064 C329.145569,480.860266 366.078602,484.857745 399.752719,492.7755"></path>
            <ellipse ry="33.0057057" rx="33.0207016" cy="410.386718" cx="258.71151" transform="translate(258.711510, 410.386718) rotate(-11.000000) translate(-258.711510, -410.386718)" fill="#000000" id="椭圆形"></ellipse>
            <path stroke-linecap="round" stroke-width="6" stroke="#FFFFFF" id="路径-19" d="M0.000719723195,586.890986 C9.49787052,579.113262 35.3189704,573.508992 77.4640193,570.078176 C140.681593,564.931953 158.623266,576.565582 280.389514,554.12702 C361.567012,539.167979 416.046392,516.484091 443.827653,486.075357 C451.151408,613.639962 439.806928,702.2537 409.794212,751.916571 C364.775138,826.410877 326.528306,832.042479 223.334229,850.931921 C154.538177,863.524882 80.0936745,852.546429 0.000719723195,817.996562"></path>
            <path opacity="0.342739287" fill="#E8AACE" id="椭圆形" d="M265.707456,789.872237 C314.603419,793.963655 398.074533,722.094839 398.074533,698.416343 C398.074533,674.737847 392.69301,656.145032 382.349574,655.676022 C373.041005,655.253937 348.080567,676.783137 334.416194,676.783137 C321.567392,676.783137 323.701386,665.613111 314.603419,665.754047 C303.274819,665.929536 285.784839,674.320674 272.576322,698.416343 C259.367806,722.512012 216.811493,785.780819 265.707456,789.872237 Z"></path>
            <path fill="#FFFFFF" id="矩形" d="M329.726971,722.512012 L345.484098,722.512012 C353.436999,722.512012 359.884098,728.959112 359.884098,736.912012 C359.884098,737.026864 359.882724,737.141712 359.879976,737.256531 L358.135632,810.144779 L358.135632,810.144779 L319.724486,826.928341 L315.344259,737.617408 C314.954679,729.674055 321.078223,722.918879 329.021575,722.5293 C329.256531,722.517776 329.491733,722.512012 329.726971,722.512012 Z"></path>
            <path fill="#FFFFFF" id="矩形" d="M274.363759,738.114431 L290.165489,738.114431 C298.118389,738.114431 304.565489,744.56153 304.565489,752.514431 C304.565489,752.65621 304.563395,752.797981 304.559208,752.939699 L302.201293,832.746233 L302.201293,832.746233 L263.566738,841.630044 L259.975591,753.098062 C259.653261,745.151696 265.833762,738.448594 273.780128,738.126263 C273.974572,738.118376 274.169155,738.114431 274.363759,738.114431 Z"></path>
            <path fill="#387E8D" id="路径-21" d="M0.000719723199,345.83226 C25.614466,368.047892 53.7025442,374.647925 84.2649543,365.63236 C130.108569,352.109013 128.502907,323.938086 167.880722,311.35257 C207.258537,298.767054 217.580946,320.931329 254.096651,311.35257 C290.612356,301.773811 281.365904,277.978241 321.291776,271.109954 C361.217648,264.241667 372.166485,287.995032 406.434928,285.146429 C440.703371,282.297826 431.193271,247.159834 472.672137,258.526291 C514.151002,269.892747 558.127946,274.115261 566.585231,321.92159 C575.042516,369.727919 515.755466,357.201317 519.935807,463.966435 C521.983821,516.272318 690.695296,387.66024 699.543073,487.275543 C708.39085,586.890846 573.789093,600.988094 591.186873,630.045897 C626.153055,688.446474 537.733936,762.755064 550.843057,855.977737 C559.582471,918.126185 583.232465,948.449208 621.793038,946.946806 L720.465098,946.946806 L720.465098,226.834886 L0.000719723199,226.834886 L0.000719723199,345.83226 Z"></path>
            <ellipse ry="84.6131177" rx="82.2530325" cy="502.277869" cx="602.188839" fill="#A1A4F1" id="椭圆形"></ellipse>
            <path stroke-linecap="round" stroke-width="6" stroke="#9164F6" id="路径" d="M606.868676,588.952444 C615.153321,594.474135 625.105871,597.692661 635.810517,597.692661 C664.658381,597.692661 688.044195,574.318301 688.044195,545.484567 C688.044195,516.650833 664.658381,493.276473 635.810517,493.276473 C623.6096,493.276473 612.385725,497.457639 603.49491,504.464616"></path>
            <ellipse ry="33.0051168" rx="30.0727227" cy="510.679171" cx="33.5688894" fill="#FFFFFF" id="椭圆形"></ellipse>
            <ellipse ry="24.0041865" rx="24.6178065" cy="526.28159" cx="56.4369669" stroke-width="6" stroke="#FFFFFF" id="椭圆形"></ellipse>
            <path fill="#387E8D" id="路径-20" d="M172.784516,946.946806 C243.388485,923.543178 292.605155,911.841364 320.434526,911.841364 C348.263898,911.841364 361.530025,923.543178 360.232909,946.946806 L172.784516,946.946806 Z"></path>
            <path fill="#387E8D" id="路径-22" d="M0.000438552078,823.946268 C11.7929817,838.223889 17.6892533,851.078123 17.6892533,862.508972 C17.6892533,915.171872 38.903956,946.946806 63.6416121,946.946806 C97.2632896,946.946806 76.0495651,946.946806 0.000438552078,946.946806 L0.000438552078,823.946268 Z"></path>
            <path stroke-linecap="round" stroke-width="6" stroke="#6C9EA9" id="路径-23" d="M716.862775,606.093964 C716.862775,633.010169 617.779365,630.770414 642.16723,702.745295 C666.555095,774.720176 744.990484,777.286303 684.441872,835.412415 C644.07613,874.163156 629.984583,900.487027 642.16723,914.384027 L684.441872,933.999968"></path>
            <path transform="translate(663.747536, 306.906083) rotate(-38.000000) translate(-663.747536, -306.906083)" stroke-linecap="round" stroke-width="6" stroke="#6C9EA9" id="路径-23" d="M683.538952,224.680001 C683.54216,238.179395 633.809219,237.044262 646.058736,273.145025 C658.308253,309.245789 697.677426,310.542146 667.293351,339.687148 C647.0373,359.11715 639.967505,372.317787 646.083966,379.289059 L667.305104,389.132165"></path>
        </g>
    </g>
</svg>