<svg xmlns:xlink="http://www.w3.org/1999/xlink" xmlns="http://www.w3.org/2000/svg" version="1.1" viewBox="0 0 1200 1200" height="1200px" width="1200px">
    <title>绿巨人</title>
    <g fill-rule="evenodd" fill="none" stroke-width="1" stroke="none" id="绿巨人">
        <rect height="1200" width="1200" y="-7" x="0" fill="#FFFFFF" id="矩形"></rect>
        <g transform="translate(126.000000, 240.000000)" id="编组-2">
            <path fill="#186A44" id="形状结合" d="M196.141567,444.297196 C168.266392,454.755979 114.034737,479.999904 86.5445028,479.999904 C38.7473227,479.999904 5.24369862e-05,426.274082 5.24369862e-05,359.999922 C5.24369862e-05,293.725762 38.7473227,239.99994 86.5445028,239.99994 C110.901256,239.99994 183.71582,276.644494 200.044639,282.488798 C211.704697,286.662091 220.442174,284.6187 228.000634,276.765262 L228.000107,0 L948,0 L948,719.999562 L799.811564,719.999494 C789.090381,715.660869 784.969837,707.670428 792.29731,688.140973 C802.756093,660.265832 828.000018,606.034244 828.000018,578.544044 C828.000018,530.746923 774.274196,491.999701 708.000036,491.999701 C641.725876,491.999701 588.000054,530.746923 588.000054,578.544044 C588.000054,602.900767 624.644608,675.715241 630.488912,692.044039 C634.662025,703.703583 632.61899,712.440799 624.766387,719.999026 L228.000107,719.999562 L228.000128,451.81145 C223.661497,441.090268 215.671047,436.969723 196.141567,444.297196 Z"></path>
            <ellipse ry="155.999905" rx="155.999977" cy="352.799785" cx="545.999919" fill="#186A44" id="椭圆形"></ellipse>
            <ellipse ry="103.799937" rx="103.799985" cy="371.399774" cx="817.799878" fill="#186A44" id="椭圆形"></ellipse>
            <ellipse ry="27.5999832" rx="27.5999959" cy="333.599797" cx="473.99993" fill="#186A44" id="椭圆形"></ellipse>
            <ellipse ry="21.508095" rx="21.5081049" cy="347.070059" cx="769.951237" fill="#186A44" id="椭圆形"></ellipse>
            <path transform="translate(122.647367, 364.199778) scale(-1, 1) translate(-122.647367, -364.199778)" fill="#186A44" id="路径" d="M83.7715777,407.66089 C92.0508803,413.181722 101.997012,416.399747 112.694754,416.399747 C141.524014,416.399747 164.894747,393.029025 164.894747,364.199778 C164.894747,335.370532 141.524014,311.99981 112.694754,311.99981 C100.501705,311.99981 89.2850686,316.180325 80.399988,323.186211"></path>
            <ellipse ry="29.3999821" rx="109.799984" cy="492.5997" cx="523.799922" fill="#186A44" id="椭圆形"></ellipse>
            <ellipse ry="22.7999861" rx="82.9101918" cy="477.599709" cx="814.910083" fill="#186A44" id="椭圆形"></ellipse>
            <path fill="#186A44" id="路径-4" d="M722.394257,482.520064 C748.072507,462.240437 778.093976,452.201314 812.458664,452.402695 C846.823352,452.604076 878.401874,462.643199 907.19423,482.520064"></path>
            <path fill="#186A44" id="路径-4" d="M405.005575,493.704777 C438.019684,473.42515 476.6178,463.386026 520.799923,463.587407 C564.982045,463.788788 605.582039,473.827911 642.599904,493.704777"></path>
            <path fill="#186A44" id="路径-41" d="M389.999942,173.399894 C406.715516,248.768497 458.715508,256.568492 545.999919,196.79988"></path>
            <path fill="#186A44" id="路径-41" d="M682.377169,250.851647 C696.694993,315.409073 741.235896,322.090205 815.999879,270.895044"></path>
            <path fill="#186A44" id="路径-41" d="M659.764094,251.36558 C674.081919,315.923006 718.622822,322.604139 793.386805,271.408978"></path>
            <path fill="#186A44" id="路径-41" d="M628.928084,261.644246 C643.245909,326.201671 687.786812,332.882804 762.550795,281.687643"></path>
            <path fill="#186A44" id="路径-41" d="M363.599946,173.999894 C380.31552,249.368497 432.315512,257.168492 519.599923,197.39988"></path>
            <path fill="#186A44" id="路径-41" d="M327.599951,185.999887 C344.315525,261.36849 396.315517,269.168485 483.599928,209.399873"></path>
            <path fill="#186A44" id="路径-42" d="M722.394257,0 C864.80175,15.342781 931.203618,57.3020886 921.599863,125.877923 C911.996108,194.453757 848.796117,225.003039 731.999891,217.525767 C686.258653,208.06494 615.458664,182.356322 519.599923,140.399915 C479.291109,122.757152 382.091124,122.757152 227.999967,140.399915 L227.999967,0 L722.394257,0 Z"></path>
            <path fill="#186A44" id="路径-43" d="M227.999967,81.4070793 C353.599948,87.8678645 433.599936,87.8678645 467.99993,81.4070793 C519.599923,71.7159015 642.599904,99.4087953 703.836243,164.222067 C744.660469,207.430915 788.128014,222.091854 834.238879,208.204883"></path>
            <path fill="#186A44" id="路径-43" d="M227.999966,45.0008361 C288.674495,45.0008361 368.674482,45.0008361 467.999929,45.0008361 C616.9881,45.0008361 655.908266,114.211604 703.836242,127.815824 C751.764218,141.420044 812.421021,139.562923 836.482774,149.593644 C860.544527,159.624364 864.200047,184.799888 864.200047,196.79988"></path>
            <path fill="#186A44" id="路径-43" d="M287.999957,4.79999708 C348.674486,4.79999708 428.674473,4.79999708 527.99992,4.79999708 C676.988091,4.79999708 715.908257,74.0107653 763.836233,87.614985 C811.764209,101.219205 872.421012,99.3620836 896.482765,109.392805 C920.544518,119.423525 924.200038,144.599049 924.200038,156.599041"></path>
            <ellipse ry="132.5" rx="125" cy="322" cx="576.5" stroke-width="5" stroke="#020202" id="椭圆形"></ellipse>
            <path fill="#004726" id="形状结合" d="M948,0 L947.99985,205.814567 C901.282386,199.039821 863.902954,163.932491 854.364864,118.74918 C822.322608,127.428761 785.191852,129.560013 746.599487,123.447583 C679.443167,112.811066 624.210045,79.8012562 596.298417,38.8115701 C589.205383,91.130972 528.650794,132 455,132 C432.576949,132 411.36779,128.211835 392.511452,121.465641 C378.013237,143.259397 354.98914,159.733927 327.708074,166.965805 C328.869577,172.476739 329.478261,178.172973 329.478261,184 C329.478261,219.684027 306.651428,250.46308 273.698916,264.652099 C282.767792,273.285584 288.347826,285.04328 288.347826,298 C288.347826,324.509668 264.98877,346 236.173913,346 C207.359057,346 184,324.509668 184,298 C184,290.792915 185.726498,283.956816 188.819745,277.82267 C193.65337,279.948827 197.522705,281.586164 200.044639,282.488798 C211.704697,286.662091 220.442174,284.6187 228.000634,276.765262 L228.000971,140.3998 C228.000636,140.399838 228.000302,140.399876 227.999967,140.399915 L227.999967,0 L948,0 Z"></path>
            <ellipse ry="135" rx="127.5" cy="322" cx="562.219008" fill="#FFFFFF" id="椭圆形"></ellipse>
            <ellipse ry="81.5" rx="137" cy="458.5" cx="513.719008" fill="#186A44" id="椭圆形"></ellipse>
            <ellipse ry="95" rx="87.5" cy="328.5" cx="842.280992" stroke-width="5" stroke="#020202" id="椭圆形"></ellipse>
            <ellipse ry="97.5" rx="90" cy="328.5" cx="832" fill="#FFFFFF" id="椭圆形"></ellipse>
            <ellipse ry="26.5" rx="26.5069856" cy="250.705109" cx="487.201884" fill="#000000" id="椭圆形"></ellipse>
            <ellipse ry="48" rx="90" cy="442" cx="789" fill="#186A44" id="椭圆形"></ellipse>
            <ellipse ry="17" rx="17.0044813" cy="268.205109" cx="775.699379" fill="#000000" id="椭圆形"></ellipse>
            <path stroke-linecap="round" stroke-width="5" stroke="#000000" id="路径-46" d="M330,267.599837 C384.935015,293.154133 426.469744,287.742714 454.604187,251.36558"></path>
            <path stroke-linecap="round" stroke-width="5" stroke="#000000" id="路径-46" d="M630,286.599837 C684.935015,312.154133 726.469744,306.742714 754.604187,270.36558"></path>
            <path stroke-linecap="round" stroke-width="5" stroke="#000000" id="路径-46" d="M641.327653,269.599837 C696.262668,295.154133 737.797397,289.742714 765.931841,253.36558"></path>
            <path stroke-linecap="round" stroke-width="5" stroke="#000000" id="路径-46" d="M664.395813,247.234257 C719.330828,272.788552 760.865557,267.377133 789,231"></path>
            <path stroke-linecap="round" stroke-width="5" stroke="#000000" id="路径-46" d="M341.327653,250.599837 C396.262668,276.154133 437.797397,270.742714 465.931841,234.36558"></path>
            <path stroke-linecap="round" stroke-width="5" stroke="#000000" id="路径-46" d="M364.395813,228.234257 C419.330828,253.788552 460.865557,248.377133 489,212"></path>
            <path fill="#004726" stroke-width="5" stroke="#000000" id="路径-47" d="M639.650734,454.459894 C564.80274,473.830568 452.861244,553.272441 436.586736,501.472751 C420.312229,449.67306 387.324738,503.892997 393.349014,537.630065 C399.37329,571.367133 437.346651,593.540883 482.45593,586.206464 C512.528782,581.31685 557.689621,551.181259 617.938445,495.79969 C654.185274,468.070509 676.072427,452.870519 683.599904,450.199718 C694.891121,446.193517 662.606091,448.519044 639.650734,454.459894 Z"></path>
            <path transform="translate(841.000000, 516.703920) scale(-1, 1) translate(-841.000000, -516.703920)" fill="#004726" stroke-width="5" stroke="#000000" id="路径-47" d="M908.761256,453.257453 C858.233493,472.628127 782.664957,552.07 771.678497,500.270309 C760.692038,448.470619 738.423116,502.690556 742.489934,536.427624 C746.556752,570.164692 772.191494,592.338442 802.643492,585.004022 C822.944823,580.114409 853.431627,549.978818 894.103904,494.597249 C918.573112,466.868068 933.34851,451.668077 938.430097,448.997277 C946.052478,444.991076 924.257767,447.316603 908.761256,453.257453 Z"></path>
            <path fill="#004726" id="路径-48" d="M677.186893,471.237284 C682.92544,485.041282 698.457265,478.965829 705.826059,469.657958 C710.738589,463.452711 713.796581,458.866124 715.000036,455.898197 C726.84404,473.704088 734.843991,481.286225 738.999891,478.644607 C745.233741,474.68218 752.441761,466.409051 748.953763,460.825812 C746.628432,457.103653 737.310475,451.861023 720.999894,445.097922 L708.999896,445.097922 C683.96553,453.321498 673.361195,462.034618 677.186893,471.237284 Z"></path>
            <path fill="#004726" id="路径-49" d="M434.719008,168.044344 C519.719008,146.425115 568.540941,139.209269 581.184806,146.396807 C590.306374,151.210298 591.514834,157.335448 584.810188,164.772257 C574.753217,175.927472 565.883412,183.965112 527.115557,185.636288 C488.347701,187.307463 307.219008,200.473189 434.719008,168.044344 Z"></path>
            <path transform="translate(839.000000, 197.988519) scale(-1, 1) rotate(-4.000000) translate(-839.000000, -197.988519)" fill="#004726" id="路径-49" d="M791.699512,199.337567 C865.106796,177.718337 907.270154,170.502491 918.189587,177.690029 C926.067111,182.50352 927.110756,188.62867 921.320522,196.06548 C912.63517,207.220695 904.975073,215.258335 871.494567,216.92951 C838.014061,218.600685 681.588585,231.766412 791.699512,199.337567 Z"></path>
            <line stroke-linecap="round" stroke-width="5" stroke="#000000" id="路径-50" y2="632.841472" x2="343.689141" y1="596.750824" x1="377.840073"></line>
            <path stroke-linecap="round" stroke-width="5" stroke="#004726" id="路径-50" d="M427.428029,622.23488 C427.428029,622.23488 420.319081,648.23488 406.101185,700.23488"></path>
            <path stroke-linecap="round" stroke-width="5" stroke="#000000" id="路径-50" d="M500.245862,638.996729 C500.245862,638.996729 499.258359,655.529675 497.283352,688.595566"></path>
            <path stroke-linecap="round" stroke-width="5" stroke="#000000" id="路径-50" d="M842.732004,654.284395 C842.732004,654.284395 846.05719,670.509579 852.707562,702.959946"></path>
            <path transform="translate(922.710270, 684.268736) rotate(-55.000000) translate(-922.710270, -684.268736)" stroke-linecap="round" stroke-width="5" stroke="#004726" id="路径-50" d="M933.373691,657.268736 C933.373691,657.268736 926.264744,675.268736 912.046848,711.268736"></path>
            <path stroke-linecap="round" stroke-width="5" stroke="#020202" id="路径-51" d="M225.088397,283.41625 C238.489023,317.668429 248.839426,325.196284 256.139607,305.999814 C267.089879,277.205109 259.09701,258.359548 251.393899,251.205109 C243.690788,244.050669 218.977128,218.594991 305.596425,185.999887 C392.215723,153.404783 366.02115,52.7666272 372.548113,45.0008361 C379.075076,37.2350449 488.133705,117.910982 581.875072,32.8782504 C675.616439,-52.1544814 799.736681,91.7941453 876.050455,100.554192 C926.926303,106.394222 949.683354,129.228473 944.321605,169.056942"></path>
            <path fill="#004726" id="路径-52" d="M257.911609,442 C268.407408,592.868395 296.212756,673.62464 341.327653,684.268736 C386.442551,694.912832 433.866643,706.823013 483.599928,719.999281 L227.999915,719.999281 L227.999915,448.202441 L257.911609,442 Z"></path>
            <path fill="#004726" id="形状结合" d="M233.427945,343.199791 C271.551039,343.199791 302.455914,375.972527 302.455914,416.399747 C302.455914,456.826966 271.551039,489.599702 233.427945,489.599702 C231.601227,489.599702 229.791082,489.524457 228.000116,489.37673 L228.000128,451.81145 C223.661497,441.090268 215.671047,436.969723 196.141567,444.297196 C189.826787,446.666506 182.159409,449.794579 173.756738,453.216048 C167.806898,442.401424 164.399976,429.822496 164.399976,416.399747 C164.399976,375.972527 195.30485,343.199791 233.427945,343.199791 Z"></path>
            <path fill="#004726" id="形状结合" d="M227.5,360 C252.628956,360 273,381.490332 273,408 C273,434.509668 252.628956,456 227.5,456 C226.184566,456 224.882169,455.941111 223.59505,455.825696 L223.59505,360.174304 C224.882169,360.058889 226.184566,360 227.5,360 Z M223.531007,360.180094 L223.530755,431.238836 C220.686513,424.204713 215.448293,421.501305 202.645829,426.30892 C198.548435,427.847584 193.582365,429.873966 188.140017,432.091993 C184.235271,425.011998 182,416.781379 182,408 C182,382.901064 200.260613,362.301462 223.531007,360.180094 Z"></path>
        </g>
    </g>
</svg>