<svg xmlns:xlink="http://www.w3.org/1999/xlink" xmlns="http://www.w3.org/2000/svg" version="1.1" viewBox="0 0 1200 1200" height="1200px" width="1200px">
    <title>鼻头怪</title>
    <g fill-rule="evenodd" fill="none" stroke-width="1" stroke="none" id="鼻头怪">
        <rect height="1200" width="1199" y="0" x="1" fill="#FFFFFF" id="矩形"></rect>
        <g transform="translate(114.000000, 125.000000)" id="编组">
            <path fill="#A54B8F" id="形状结合" d="M744.110295,228.043091 L744.110295,948.17917 L24.4590401,948.17917 L24.4586021,799.715091 L24.513607,799.581445 C28.8827553,789.103679 36.909043,785.139567 56.2469064,792.390266 C84.1273323,802.843985 138.369203,828.075686 165.864615,828.075686 C213.670799,828.075686 252.425368,774.375879 252.425368,708.13381 C252.425368,641.891741 213.670799,588.191934 165.864615,588.191934 C141.503274,588.191934 68.6749936,624.818745 52.3430996,630.660219 C40.7200833,634.817456 32.0005621,632.802763 24.4581863,625.018489 L24.4590401,228.043091 L744.110295,228.043091 Z"></path>
            <path fill="#8956D0" id="形状结合" d="M744.110295,228.043091 L744.110435,276.994408 L203.770131,600.273357 C192.322339,592.534576 179.459474,588.191934 165.864615,588.191934 C141.503274,588.191934 68.6749936,624.818745 52.3430996,630.660219 C40.7200833,634.817456 32.0005621,632.802763 24.4581863,625.018489 L24.4590401,228.043091 L744.110295,228.043091 Z"></path>
            <path transform="translate(858.054858, 468.088592) scale(-1, -1) rotate(-270.000000) translate(-858.054858, -468.088592)" fill="#A54B8F" id="形状结合" d="M949.82199,354.067168 C939.105954,358.406615 934.987376,366.398574 942.311314,385.931794 C952.765032,413.812254 977.996734,468.054192 977.996734,495.549638 C977.996734,543.355881 924.296927,582.110498 858.054858,582.110498 C791.812789,582.110498 738.112982,543.355881 738.112982,495.549638 C738.112982,471.188267 774.739793,398.359896 780.581267,382.027982 C784.752611,370.365511 782.710067,361.626276 774.860094,354.066293 Z"></path>
            <path transform="translate(384.284668, 114.021765) scale(1, -1) translate(-384.284668, -114.021765)" fill="#8956D0" id="形状结合" d="M476.051799,0.000481915187 C465.335763,4.33992393 461.217185,12.3318728 468.541124,31.8650682 C478.994842,59.7454941 504.226543,113.987365 504.226543,141.482777 C504.226543,189.288961 450.526736,228.04353 384.284668,228.04353 C318.042599,228.04353 264.342792,189.288961 264.342792,141.482777 C264.342792,117.121436 300.969602,44.2931554 306.811076,27.9612614 C310.98242,16.2988044 308.939877,7.55958102 301.089904,-0.000392537393 Z"></path>
            <ellipse ry="114.021546" rx="113.944782" cy="408.077111" cx="498.22945" fill="#FFFFFF" id="椭圆形"></ellipse>
            <ellipse ry="33.0062369" rx="32.9840158" cy="437.482668" cx="539.609397" fill="#000000" id="椭圆形"></ellipse>
            <path stroke-linecap="round" stroke-width="6" stroke="#000000" id="路径-4" d="M642.488959,721.653666 C655.988512,710.34031 671.771379,704.739804 689.83756,704.852147 C707.903741,704.964491 724.50518,710.564998 739.641879,721.653666"></path>
            <line stroke-linecap="round" stroke-width="6" stroke="#000000" id="路径-2" y2="324.061235" x2="452.651537" y1="276.052163" x1="399.877111"></line>
            <ellipse ry="107.420298" rx="107.347979" cy="767.545037" cx="353.699489" fill="#372C6F" id="椭圆形"></ellipse>
            <ellipse ry="85.2161026" rx="85.1587318" cy="862.963067" cx="487.434681" fill="#372C6F" id="椭圆形"></ellipse>
            <path fill="#372C6F" id="形状结合" d="M624.168419,830.556944 C671.200288,830.556944 709.327151,868.709492 709.327151,915.773046 C709.327151,927.246367 707.061255,938.190103 702.952835,948.180598 L545.384004,948.180598 C541.275583,938.190103 539.009687,927.246367 539.009687,915.773046 C539.009687,868.709492 577.13655,830.556944 624.168419,830.556944 Z"></path>
            <polygon points="744.110435 276.994408 642.488959 339.58155 744.110435 556.400209" id="路径-6"></polygon>
            <path stroke-width="6" stroke="#FFFFFF" id="路径-7" d="M227.901792,801.533652 C335.684547,887.601199 371.972327,936.261937 336.765132,947.515867 C301.557937,958.769797 197.456,931.785757 24.459321,866.563748"></path>
            <path stroke-width="6" stroke="#FFFFFF" id="路径-8" d="M883.000248,562.79058 C867.352246,534.701104 880.860764,511.111366 923.525802,492.021367 C930.37229,499.325733 934.909591,509.351496 937.137704,522.098657 C940.479874,541.219398 906.472251,604.924794 883.000248,562.79058 Z"></path>
            <path stroke-width="6" stroke="#FFFFFF" id="路径-9" d="M0,468.088592 L138.403822,604.924794 C191.135694,390.457506 216.358548,272.988778 214.072382,252.518609 C210.643133,221.813357 67.3512152,228.395947 107.036191,324.061235 C146.721167,419.726524 247.660205,554.594048 325.902679,522.098657 C404.145152,489.603266 333.802389,243.106754 384.284738,208.915338 C434.767087,174.723921 552.968711,336.02164 595.382369,339.58155 C623.658141,341.954824 629.255429,304.775244 612.174232,228.04281"></path>
            <line stroke-linecap="round" stroke-width="6" stroke="#000000" id="路径-2" y2="311.491848" x2="510.802273" y1="240.612478" x1="502.448489"></line>
            <line stroke-linecap="round" stroke-width="6" stroke="#000000" id="路径-10" y2="169.91611" x2="474.648367" y1="208.915338" x1="310.911633"></line>
            <line stroke-linecap="round" stroke-width="6" stroke="#000000" id="路径-10" y2="163.370546" x2="476.910815" y1="163.830958" x1="298.526226"></line>
            <line stroke-linecap="round" stroke-width="6" stroke="#000000" id="路径-2" y2="378.717737" x2="415.391788" y1="343.818795" x1="353.177547"></line>
        </g>
    </g>
</svg>