<svg xmlns:xlink="http://www.w3.org/1999/xlink" xmlns="http://www.w3.org/2000/svg" version="1.1" viewBox="0 0 1200 1200" height="1200px" width="1200px">
    <title>水博怪</title>
    <g fill-rule="evenodd" fill="none" stroke-width="1" stroke="none" id="水博怪">
        <rect height="1200" width="1198" y="0" x="1" fill="#FFFFFF" id="矩形"></rect>
        <g transform="translate(126.000000, 240.000000)" id="编组">
            <path fill="#ECC7DF" id="形状结合" d="M276.766255,8.8817842e-15 C284.619684,7.55845975 286.663072,16.2959366 282.489784,27.9559954 C276.645488,44.2848135 240.000978,117.099378 240.000978,141.456131 C240.000978,189.253311 293.726734,228.000581 360.000812,228.000581 C426.274891,228.000581 480.000647,189.253311 480.000647,141.456131 C480.000647,113.965897 454.756753,59.734242 444.297983,31.8590669 C436.970519,12.3295868 441.091058,4.33913644 451.812228,0.000506142837 L451.812228,0.000506142837 L720.000315,0.000438269059 L720.000315,720 L0.00130981923,720 L0.00130981923,0.000438269059 Z"></path>
            <ellipse ry="59.9999635" rx="59.9999171" cy="556.800099" cx="169.201076" fill="#EB56E4" id="椭圆形"></ellipse>
            <ellipse ry="59.9999635" rx="59.9999171" cy="556.800099" cx="531.600575" fill="#EB56E4" id="椭圆形"></ellipse>
            <ellipse ry="71.9999562" rx="71.9999005" cy="556.800099" cx="129.601131" opacity="0.349850609" fill="#FF1537" id="椭圆形"></ellipse>
            <ellipse ry="71.9999562" rx="71.9999005" cy="556.800099" cx="574.800516" opacity="0.349850609" fill="#FF1537" id="椭圆形"></ellipse>
            <ellipse ry="133.199919" rx="133.199816" cy="339.600232" cx="199.201035" fill="#FFFFFF" id="椭圆形"></ellipse>
            <ellipse ry="133.199919" rx="133.199816" cy="339.600232" cx="530.400577" fill="#FFFFFF" id="椭圆形"></ellipse>
            <ellipse ry="27.5999832" rx="27.5999619" cy="297.600257" cx="271.200935" fill="#000000" id="椭圆形"></ellipse>
            <ellipse ry="27.5999832" rx="27.5999619" cy="297.600257" cx="592.800491" fill="#000000" id="椭圆形"></ellipse>
            <path transform="translate(833.999938, 480.000146) scale(-1, 1) rotate(-270.000000) translate(-833.999938, -480.000146)" fill="#ECC7DF" id="形状结合" d="M925.811354,366.000502 C915.090184,370.339127 910.969645,378.329568 918.297109,397.859024 C928.755879,425.734164 953.999773,479.965752 953.999773,507.455953 C953.999773,555.253074 900.274017,594.000296 833.999938,594.000296 C767.72586,594.000296 714.000104,555.253074 714.000104,507.455953 C714.000104,483.099229 750.644614,410.284755 756.48891,393.955957 C760.662197,382.295913 758.61881,373.558447 750.765381,365.999996 Z"></path>
            <path stroke-linecap="round" stroke-width="6" stroke="#EB56E4" id="路径" d="M790.077037,524.061258 C798.35633,529.582089 808.302449,532.800114 819.000178,532.800114 C847.829402,532.800114 871.200106,509.429392 871.200106,480.600146 C871.200106,451.770899 847.829402,428.400177 819.000178,428.400177 C806.807144,428.400177 795.590521,432.580692 786.705452,439.586579"></path>
            <ellipse ry="141.599912" rx="149.999789" cy="340.200231" cx="183.001057" stroke-width="6" stroke="#000000" id="椭圆形"></ellipse>
            <ellipse ry="141.599912" rx="149.999789" cy="340.200231" cx="519.000593" stroke-width="6" stroke="#000000" id="椭圆形"></ellipse>
            <path stroke-linecap="round" stroke-width="6" stroke="#000000" id="路径-4" d="M326.730277,337.961978 C333.233202,332.515839 340.836032,329.81981 349.538767,329.873891 C358.241502,329.927973 366.23865,332.624001 373.530212,337.961978"></path>
            <path transform="translate(356.687704, 544.961725) scale(1, -1) rotate(20.000000) translate(-356.687704, -544.961725)" stroke-linecap="round" stroke-width="6" stroke="#FFFFFF" id="路径-4" d="M290.730561,556.361725 C309.060059,541.01078 330.489927,533.411529 355.020166,533.563973 C379.550404,533.716417 402.091965,541.315667 422.644847,556.361725"></path>
            <path stroke-linecap="round" stroke-width="6" stroke="#000000" id="路径-24" d="M669.600385,333.917536 C673.309498,380.560127 681.152523,408.483252 693.129459,417.68691 C705.106395,426.890568 725.673471,420.799143 754.830687,399.412633"></path>
            <path fill="#8EAFF9" id="路径-25" d="M0.00130981924,114.00051 C0.2537178,171.009708 1.53685114,207.129159 3.85070983,222.358864 C7.03781411,243.336229 8.54118298,243.663536 18.1764933,249.648003 C48.3688811,268.400418 97.7153163,214.75163 109.201159,181.824256 C120.687002,148.896883 66.3816853,134.834984 75.9697279,83.9675681 C82.3617563,50.0559574 104.862924,22.0670077 143.473232,0.000719258722 L0.00130981924,0.000719258722 L0.00130981924,114.00051 Z"></path>
            <path fill="#8EAFF9" id="路径-25" d="M101.86549,95.8706252 C96.3179399,153.646286 189.317981,216.389092 214.65948,162.222504 C240.000978,108.055916 185.126804,113.472428 194.714846,62.6050118 C201.106875,28.6934011 212.602257,7.82530355 229.200993,0.000719258722 L169.201076,0.000719258722 C128.009052,25.3968827 105.563857,57.3535181 101.86549,95.8706252 Z"></path>
            <path fill="#8EAFF9" id="路径-25" d="M480.000647,92.6617379 C498.448909,125.332274 552.546486,178.036043 565.200529,154.786352 C577.854572,131.536662 522.903741,111.451276 537.164138,80.3373493 C546.67107,59.5947313 546.67107,32.8158546 537.164138,0.000719258722 L465.58914,0.000719258722 C462.897969,39.994374 467.701805,70.8813802 480.000647,92.6617379 Z"></path>
            <path transform="translate(631.939878, 114.323037) scale(-1, 1) translate(-631.939878, -114.323037)" fill="#8EAFF9" id="路径-25" d="M544.40732,114.00051 C544.659728,171.009708 545.942862,207.129159 548.25672,222.358864 C551.443825,243.336229 671.079266,209.307773 689.079241,157.448615 C707.079216,105.589457 661.358973,99.8280043 681.613906,56.4806429 C695.117195,27.582402 707.736705,8.75576077 719.472436,0.000719258722 L544.40732,0.000719258722 L544.40732,114.00051 Z"></path>
            <path stroke-linecap="round" stroke-width="6" stroke="#FFFFFF" id="路径-26" d="M602.646304,49.5808463 C613.820864,55.6522996 615.866029,69.6347392 608.781799,91.5281651 C593.572582,119.459928 595.16796,144.681971 613.567935,167.194296"></path>
            <path stroke-linecap="round" stroke-width="6" stroke="#FFFFFF" id="路径-26" d="M39.6376931,2.78087483 C79.572902,17.7409504 67.4891851,51.9082955 54.2555571,71.6864047 C41.0219291,91.4645138 -0.0985542985,140.510335 65.6585607,195.980757"></path>
            <path stroke-linecap="round" stroke-width="6" stroke="#FFFFFF" id="路径-26" d="M635.181763,91.5281651 C615.470256,125.273684 617.065635,150.495728 639.967898,167.194296 C662.870162,183.892864 672.5981,198.04815 669.151711,209.660154"></path>
            <path stroke-linecap="round" stroke-width="6" stroke="#FFFFFF" id="路径-27" d="M57.6012302,108.387571 C50.2121879,129.900994 53.0121841,143.969857 66.0012186,150.59416"></path>
            <ellipse ry="8.39999489" rx="8.39998839" cy="105.600374" cx="147.601106" fill="#FFFFFF" id="椭圆形"></ellipse>
            <ellipse ry="15.5999905" rx="15.5999784" cy="134.400356" cx="190.801046" opacity="0.409519741" fill="#FFFFFF" id="椭圆形"></ellipse>
            <ellipse ry="18.5999887" rx="18.5999743" cy="39.0004145" cx="35.4012609" opacity="0.263725644" fill="#FFFFFF" id="椭圆形"></ellipse>
            <ellipse ry="10.1999938" rx="10.1999859" cy="25.8004226" cx="513.000601" fill="#FFFFFF" id="椭圆形"></ellipse>
            <ellipse ry="6.59999598" rx="6.59999088" cy="120.600365" cx="663.000394" fill="#FFFFFF" id="椭圆形"></ellipse>
            <path fill="#8EAFF9" id="路径-28" d="M0.00130981923,556.800099 L0.00130981923,720 L720.000596,720 L719.472436,578.232999 C711.898246,598.399551 695.274229,615.255236 669.600385,628.800056 C643.926541,642.344875 563.232847,651.946416 427.519304,657.604679 C400.478187,671.599851 381.093213,679.677257 369.36438,681.8369 C339.619208,687.31391 292.63699,679.379466 284.809008,680.424093 C142.737262,699.383265 84.9309199,699.383265 57.6012302,681.8369 C23.5362965,659.966335 4.33632304,618.287401 0.00130981923,556.800099 Z"></path>
            <ellipse ry="23.3999858" rx="23.3999677" cy="673.800028" cx="679.800371" opacity="0.409519741" fill="#FFFFFF" id="椭圆形"></ellipse>
            <path opacity="0.409519741" fill="#FFFFFF" id="形状结合" d="M10.2012957,680.400024 C23.124741,680.400024 33.6012634,690.876555 33.6012634,703.80001 C33.6012634,710.087271 31.1216565,715.795388 27.0870183,719.999786 L0.00130981923,720 L0.000706500423,682.734464 C3.08372632,681.238805 6.54455718,680.400024 10.2012957,680.400024 Z"></path>
            <ellipse ry="9.59999416" rx="9.59998674" cy="681.600023" cx="554.400544" opacity="0.409519741" fill="#FFFFFF" id="椭圆形"></ellipse>
            <ellipse ry="8.39999489" rx="8.39998839" cy="702.000011" cx="228.000995" opacity="0.409519741" fill="#FFFFFF" id="椭圆形"></ellipse>
            <ellipse ry="6.59999598" rx="6.59999088" cy="708.600007" cx="487.800636" opacity="0.734326317" fill="#FFFFFF" id="椭圆形"></ellipse>
            <ellipse ry="16.7999879" rx="16.7999726" cy="696.600014" cx="583.800503" opacity="0.344865345" stroke-width="6" stroke="#FFFFFF" id="椭圆形"></ellipse>
        </g>
    </g>
</svg>