<svg xmlns:xlink="http://www.w3.org/1999/xlink" xmlns="http://www.w3.org/2000/svg" version="1.1" viewBox="0 0 1200 1200" height="1200px" width="1200px">
    <title>眼睛怪</title>
    <g fill-rule="evenodd" fill="none" stroke-width="1" stroke="none" id="眼睛怪">
        <rect height="1200" width="1200" y="0" x="0" fill="#FFFFFF" id="矩形"></rect>
        <g transform="translate(239.000000, 126.000000)" id="编组">
            <path fill="#314DFF" id="形状结合" d="M276.836127,720.000805 L451.92742,720.001704 C441.203499,724.3403 437.081903,732.330688 444.411247,751.860016 C454.8727,779.734974 480.123071,833.966205 480.123071,861.456225 C480.123071,909.253032 426.383531,948 360.092448,948 C293.801366,948 240.061825,909.253032 240.061825,861.456225 C240.061825,837.099662 276.715737,764.285666 282.561533,747.956975 C286.735963,736.296805 284.691908,727.559296 276.836127,720.000805 Z M720.184317,0.0076932255 L720.184317,720.001636 L0.00057941714,720.001636 L0.00057941714,0.0076932255 L720.184317,0.0076932255 Z M141.485078,119.975192 C117.128515,119.975192 44.3145188,156.629104 27.9858281,162.4749 C16.3256585,166.64933 7.58814922,164.605275 0.0296584523,156.749494 L0.0305570516,331.840787 C4.36915349,321.116866 12.3595415,316.99527 31.8888692,324.324614 C59.7638267,334.786067 113.995058,360.036438 141.485078,360.036438 C189.281885,360.036438 228.028853,306.296898 228.028853,240.005815 C228.028853,173.714733 189.281885,119.975192 141.485078,119.975192 Z"></path>
            <path fill="#66BEC4" id="形状结合" d="M309.539828,719.995905 C344.302039,650.067182 417.038995,635.901618 527.750697,677.499214 L527.750697,677.499214 L527.749743,720.001322 L451.92742,720.001704 C441.203499,724.3403 437.081903,732.330688 444.411247,751.860016 C454.8727,779.734974 480.123071,833.966205 480.123071,861.456225 C480.123071,906.482884 432.43216,943.478304 371.483999,947.61533 C361.46063,947.506901 352.385354,947.386553 344.252504,947.252289 C324.35643,945.362495 305.992341,939.956242 290.403918,931.928147 L290.399635,931.918425 C280.168983,836.886524 286.548884,766.246014 309.539336,719.996895 L451.92742,720.001704 Z"></path>
            <path fill="#66BEC4" id="路径-3" d="M0.000860478351,520.203317 C187.248445,468.280817 265.868409,534.080263 235.860753,717.601656 C230.65952,719.20183 152.039556,720.001917 0.000860478351,720.001917 L0.000860478351,520.203317 Z"></path>
            <path stroke-width="6" stroke="#FFFFFF" id="路径-3" d="M24.006704,519.979186 C211.254288,468.056686 289.874253,533.856132 259.866597,717.377525 C254.665364,718.977699 176.0454,719.777786 24.006704,719.777786 L24.006704,519.979186 Z"></path>
            <path transform="translate(599.961523, 611.514756) scale(-1, 1) translate(-599.961523, -611.514756)" fill="#66BEC4" id="路径-3" d="M478.923046,520.203317 C666.17063,468.280817 744.790595,534.080263 714.782939,717.601656 C709.581706,719.20183 630.961742,720.001917 478.923046,720.001917 L478.923046,520.203317 Z"></path>
            <path transform="translate(613.821447, 610.630590) scale(-1, 1) translate(-613.821447, -610.630590)" stroke-width="6" stroke="#FFFFFF" id="路径-3" d="M508.929329,512.442686 C673.729665,476.201279 741.985034,544.587602 713.695438,717.601656 C708.894408,719.078706 638.840639,717.488006 508.929329,717.601656 C506.231729,678.615914 508.929329,521.101596 508.929329,512.442686 Z"></path>
            <path transform="translate(68.950171, 62.031304) scale(1, -1) translate(-68.950171, -62.031304)" fill="#66BEC4" id="路径-3" d="M0.000860478347,10.0159379 C106.666047,-19.5616036 151.451742,17.9209107 134.357945,122.463481 C131.395074,123.375016 86.6093791,123.830784 0.000860478347,123.830784 L0.000860478347,10.0159379 Z"></path>
            <path fill="#66BEC4" id="形状结合" d="M542.244971,-0.000106238533 C621.120691,49.6941656 674.57268,145.798921 674.57268,256.205538 C674.57268,417.581784 560.376157,548.40308 419.507607,548.40308 C310.52831,548.40308 217.512066,470.1073 180.983543,359.940006 C227.166655,357.395324 264.03804,304.672556 264.03804,240.005815 C264.03804,181.022837 233.3633,131.976515 192.932256,121.879368 C216.22825,70.4157565 252.493607,27.8956154 296.770242,-0.000106238533 Z"></path>
            <path stroke-width="6" stroke="#FFFFFF" id="形状结合" d="M577.385038,2.99989376 C655.078365,52.3340402 707.581867,147.267365 707.581867,256.205538 C707.581867,336.116321 679.331944,408.475093 633.614978,460.847551 C588.035678,513.062303 525.081585,545.40308 455.516793,545.40308 C402.495016,545.40308 353.307917,526.614674 312.733005,494.55555 C271.78355,462.200491 239.602951,416.33782 221.06454,362.604152 C243.500591,360.031667 263.664856,346.117816 278.395887,324.845586 C293.639868,302.832636 303.047227,272.945277 303.047227,240.005815 C303.047227,210.163629 295.326936,182.824169 282.539715,161.581046 C270.071655,140.868136 252.788302,125.957556 233.138911,119.930214 C256.092638,70.7347999 291.094516,30.0212063 333.648551,2.99989376 L333.648551,2.99989376 Z"></path>
            <path transform="translate(404.833281, 381.921781) scale(1, -1) translate(-404.833281, -381.921781)" stroke-linecap="round" stroke-width="6" stroke="#000000" id="路径-4" d="M310.009089,390.32171 C336.361033,379.010587 367.170145,373.411186 402.436425,373.523508 C437.702705,373.63583 470.109721,379.235231 499.657473,390.32171"></path>
            <path transform="translate(406.633741, 405.921579) scale(1, -1) translate(-406.633741, -405.921579)" stroke-linecap="round" stroke-width="6" stroke="#000000" id="路径-4" d="M334.015214,414.321508 C354.196133,403.010385 377.790453,397.410985 404.798173,397.523306 C431.805894,397.635628 456.623925,403.235029 479.252267,414.321508"></path>
            <path transform="translate(406.904391, 429.604079) scale(1, -1) translate(-406.904391, -429.604079)" stroke-linecap="round" stroke-width="6" stroke="#000000" id="路径-4" d="M357.691836,438.004008 C371.368161,426.692885 387.3577,421.093485 405.660453,421.205806 C423.963206,421.318128 440.782037,426.917529 456.116947,438.004008"></path>
            <ellipse ry="133.198879" rx="133.233991" cy="241.205664" cx="403.303472" fill="#FFFFFF" id="椭圆形"></ellipse>
            <ellipse ry="61.7994801" rx="61.8157708" cy="241.205664" cx="634.362422" fill="#FFFFFF" id="椭圆形"></ellipse>
            <ellipse ry="72.5993892" rx="72.6185269" cy="592.802706" cx="118.230743" fill="#FFFFFF" id="椭圆形"></ellipse>
            <ellipse ry="37.199687" rx="37.2094931" cy="643.802277" cx="634.962575" fill="#FFFFFF" id="椭圆形"></ellipse>
            <ellipse ry="31.1997375" rx="31.207962" cy="338.404846" cx="400.90286" fill="#000000" id="椭圆形"></ellipse>
            <ellipse ry="15.5998688" rx="15.603981" cy="553.203039" cx="146.437939" fill="#000000" id="椭圆形"></ellipse>
            <ellipse ry="15.5998688" rx="15.603981" cy="285.605291" cx="633.762268" fill="#000000" id="椭圆形"></ellipse>
            <ellipse ry="5.39995457" rx="5.40137803" cy="619.802479" cx="618.758441" fill="#000000" id="椭圆形"></ellipse>
            <ellipse ry="37.199687" rx="37.2094931" cy="71.4070926" cx="84.0220155" fill="#FFFFFF" id="椭圆形"></ellipse>
            <ellipse ry="5.39995457" rx="5.40137803" cy="88.2069512" cx="103.827068" fill="#000000" id="椭圆形"></ellipse>
            <path stroke-linecap="round" stroke-width="6" stroke="#000000" id="路径-4" d="M237.066696,301.710232 C270.089236,281.430763 308.697207,271.391719 352.890611,271.593098 C397.084015,271.794477 437.694375,281.833522 474.721693,301.710232"></path>
            <path stroke-linecap="round" stroke-width="6" stroke="#FFFFFF" id="路径-40" d="M334.015214,914.656673 C369.972578,934.896319 401.225195,926.513588 427.773066,889.50848"></path>
        </g>
    </g>
</svg>