<?xml version="1.0" standalone="no"?><!DOCTYPE svg PUBLIC "-//W3C//DTD SVG 1.1//EN" "http://www.w3.org/Graphics/SVG/1.1/DTD/svg11.dtd"><svg height="1200" node-id="1" sillyvg="true" template-height="1200" template-width="1200" version="1.1" viewBox="0 0 1200 1200" width="1200" xmlns="http://www.w3.org/2000/svg" xmlns:xlink="http://www.w3.org/1999/xlink"><defs node-id="33"></defs><path d="M 0.00 0.00 L 1199.00 0.00 L 1199.00 1200.00 L 0.00 1200.00 Z" fill="#ffffff" fill-rule="evenodd" id="矩形" node-id="5" stroke="none" target-height="1200" target-width="1199" target-x="0" target-y="0"></path><g node-id="35"><g node-id="36"><path d="M 126.00 846.00 L 126.00 449.23 L 128.99 446.48 L 132.04 444.37 L 135.18 442.84 L 138.44 441.86 L 141.79 441.42 L 145.45 441.51 L 149.48 442.18 L 153.96 443.51 L 157.90 445.05 L 164.11 447.70 L 179.34 454.49 L 197.81 462.69 L 217.70 471.12 L 227.71 475.09 L 237.16 478.60 L 246.39 481.69 L 254.36 483.95 L 259.62 485.13 L 263.94 485.78 L 267.46 486.00 L 273.19 485.73 L 278.77 484.98 L 284.22 483.76 L 289.56 482.06 L 294.81 479.88 L 299.85 477.30 L 304.73 474.33 L 309.47 470.94 L 314.08 467.12 L 318.57 462.85 L 323.71 457.20 L 328.54 451.00 L 333.07 444.24 L 337.30 436.87 L 340.99 429.31 L 344.27 421.32 L 347.14 412.87 L 349.59 403.93 L 351.47 394.95 L 352.85 385.64 L 353.69 376.00 L 354.00 366.00 L 353.69 356.00 L 352.85 346.35 L 351.47 337.05 L 349.59 328.07 L 347.14 319.13 L 344.27 310.68 L 340.99 302.69 L 337.30 295.13 L 333.07 287.76 L 328.54 280.99 L 323.71 274.80 L 318.57 269.15 L 314.08 264.88 L 309.47 261.06 L 304.73 257.67 L 299.85 254.70 L 294.81 252.12 L 289.56 249.94 L 284.22 248.24 L 278.77 247.02 L 273.19 246.27 L 267.46 246.00 L 262.86 246.21 L 257.64 246.83 L 251.73 247.92 L 242.83 250.06 L 233.02 252.93 L 223.08 256.23 L 212.80 259.93 L 192.55 267.80 L 173.75 275.43 L 157.86 281.70 L 152.78 283.43 L 148.50 284.55 L 144.89 285.18 L 141.88 285.39 L 138.73 285.22 L 136.05 284.66 L 133.78 283.76 L 131.85 282.53 L 129.60 280.37 L 127.65 277.63 L 126.00 274.19 L 126.00 274.19 L 126.00 126.00 L 846.00 126.00 L 846.00 846.00 L 126.00 846.00 Z" fill="#e15961" fill-rule="evenodd" group-id="1,2" id="形状结合" node-id="7" stroke="none" target-height="720" target-width="720" target-x="126" target-y="126"></path></g><g node-id="37"><path d="M 126.00 846.00 L 126.00 449.23 L 128.99 446.48 L 132.04 444.37 L 135.18 442.84 L 138.44 441.86 L 141.79 441.42 L 145.45 441.51 L 149.48 442.18 L 153.96 443.51 L 157.90 445.05 L 164.11 447.70 L 179.34 454.49 L 197.81 462.69 L 217.70 471.12 L 227.71 475.09 L 237.16 478.60 L 246.39 481.69 L 254.36 483.95 L 259.62 485.13 L 263.94 485.78 L 267.46 486.00 L 273.19 485.73 L 278.77 484.98 L 284.22 483.76 L 289.56 482.06 L 294.81 479.88 L 299.85 477.30 L 304.73 474.33 L 309.47 470.94 L 314.08 467.12 L 318.57 462.85 L 323.71 457.20 L 328.54 451.00 L 333.07 444.24 L 337.30 436.87 L 340.99 429.31 L 344.27 421.32 L 347.14 412.87 L 349.59 403.93 L 351.47 394.95 L 352.85 385.64 L 353.69 376.00 L 354.00 366.00 L 353.69 356.00 L 352.85 346.35 L 351.47 337.05 L 349.59 328.07 L 347.14 319.13 L 344.27 310.68 L 340.99 302.69 L 337.30 295.13 L 333.07 287.76 L 328.54 280.99 L 323.71 274.80 L 318.57 269.15 L 314.08 264.88 L 309.47 261.06 L 304.73 257.67 L 299.85 254.70 L 294.81 252.12 L 289.56 249.94 L 284.22 248.24 L 278.77 247.02 L 273.19 246.27 L 267.46 246.00 L 262.86 246.21 L 257.64 246.83 L 251.73 247.92 L 242.83 250.06 L 233.02 252.93 L 223.08 256.23 L 212.80 259.93 L 192.55 267.80 L 173.75 275.43 L 157.86 281.70 L 152.78 283.43 L 148.49 284.55 L 144.89 285.18 L 141.88 285.39 L 138.73 285.22 L 136.05 284.66 L 133.78 283.76 L 131.85 282.53 L 129.60 280.37 L 127.65 277.63 L 126.00 274.19 L 126.00 274.19 L 126.00 126.00 L 546.00 126.00 L 486.00 180.36 L 426.40 251.11 L 374.29 366.00 L 354.00 494.79 L 359.91 553.46 L 374.29 587.57 L 399.60 846.00 L 126.00 846.00 Z" fill="#efa63b" fill-rule="evenodd" group-id="1,3" id="形状结合" node-id="8" stroke="none" target-height="720" target-width="420" target-x="126" target-y="126"></path></g><g node-id="38"><path d="M 846.00 697.81 L 847.65 694.37 L 849.60 691.63 L 851.85 689.47 L 853.78 688.24 L 856.05 687.34 L 858.73 686.78 L 861.88 686.61 L 864.89 686.82 L 868.49 687.45 L 872.78 688.57 L 877.86 690.30 L 893.75 696.57 L 912.55 704.20 L 932.80 712.07 L 943.08 715.77 L 953.02 719.07 L 962.83 721.94 L 971.73 724.08 L 977.64 725.17 L 982.85 725.79 L 987.46 726.00 L 993.19 725.73 L 998.77 724.98 L 1004.22 723.76 L 1009.56 722.06 L 1014.81 719.88 L 1019.84 717.30 L 1024.73 714.33 L 1029.47 710.94 L 1034.08 707.12 L 1038.57 702.85 L 1043.71 697.20 L 1048.54 691.00 L 1053.07 684.24 L 1057.30 676.87 L 1060.99 669.31 L 1064.27 661.32 L 1067.14 652.87 L 1069.59 643.93 L 1071.47 634.95 L 1072.85 625.64 L 1073.69 616.00 L 1074.00 606.00 L 1073.69 596.00 L 1072.85 586.36 L 1071.47 577.05 L 1069.59 568.07 L 1067.14 559.13 L 1064.27 550.68 L 1060.99 542.69 L 1057.30 535.13 L 1053.07 527.76 L 1048.54 521.00 L 1043.71 514.80 L 1038.57 509.15 L 1034.08 504.88 L 1029.47 501.06 L 1024.73 497.67 L 1019.84 494.70 L 1014.81 492.12 L 1009.56 489.94 L 1004.22 488.24 L 998.77 487.02 L 993.19 486.27 L 987.46 486.00 L 983.94 486.22 L 979.62 486.87 L 974.36 488.05 L 966.39 490.31 L 957.16 493.40 L 947.71 496.91 L 937.70 500.88 L 917.81 509.31 L 899.34 517.51 L 884.11 524.30 L 877.89 526.95 L 873.96 528.49 L 869.48 529.82 L 865.45 530.49 L 861.79 530.58 L 858.44 530.14 L 855.18 529.16 L 852.04 527.63 L 848.99 525.52 L 846.00 522.77 Z" fill="#e15961" fill-rule="evenodd" group-id="1,4" id="形状结合" node-id="9" stroke="none" target-height="240" target-width="228" target-x="846" target-y="486"></path></g><path d="M 577.81 846.00 L 574.37 847.65 L 571.63 849.60 L 569.47 851.85 L 568.24 853.78 L 567.34 856.05 L 566.78 858.73 L 566.61 861.88 L 566.82 864.89 L 567.45 868.49 L 568.57 872.78 L 570.30 877.86 L 576.57 893.75 L 584.20 912.55 L 592.07 932.80 L 595.77 943.08 L 599.07 953.02 L 601.94 962.83 L 604.08 971.73 L 605.17 977.64 L 605.79 982.85 L 606.00 987.46 L 605.73 993.19 L 604.98 998.77 L 603.76 1004.22 L 602.06 1009.56 L 599.88 1014.81 L 597.30 1019.84 L 594.33 1024.73 L 590.94 1029.47 L 587.12 1034.08 L 582.85 1038.57 L 577.20 1043.71 L 571.01 1048.54 L 564.24 1053.07 L 556.87 1057.30 L 549.31 1060.99 L 541.32 1064.27 L 532.87 1067.14 L 523.93 1069.59 L 514.95 1071.47 L 505.65 1072.85 L 496.00 1073.69 L 486.00 1074.00 L 476.00 1073.69 L 466.36 1072.85 L 457.05 1071.47 L 448.07 1069.59 L 439.13 1067.14 L 430.68 1064.27 L 422.69 1060.99 L 415.13 1057.30 L 407.76 1053.07 L 401.00 1048.54 L 394.80 1043.71 L 389.15 1038.57 L 384.88 1034.08 L 381.06 1029.47 L 377.67 1024.73 L 374.70 1019.84 L 372.12 1014.81 L 369.94 1009.56 L 368.24 1004.22 L 367.02 998.77 L 366.27 993.19 L 366.00 987.46 L 366.22 983.94 L 366.87 979.62 L 368.05 974.36 L 370.31 966.39 L 373.40 957.16 L 376.91 947.71 L 380.88 937.70 L 389.31 917.81 L 397.51 899.34 L 404.30 884.11 L 406.95 877.89 L 408.49 873.96 L 409.82 869.48 L 410.49 865.45 L 410.58 861.79 L 410.14 858.44 L 409.16 855.18 L 407.63 852.04 L 405.52 848.99 L 402.77 846.00 Z" fill="#e15961" fill-rule="evenodd" group-id="1" id="形状结合" node-id="10" stroke="none" target-height="228" target-width="240" target-x="366" target-y="846"></path><path d="M 805.20 426.00 L 804.91 434.30 L 804.09 442.37 L 802.76 450.23 L 800.91 457.90 L 798.55 465.46 L 795.75 472.75 L 792.51 479.78 L 788.82 486.57 L 784.69 493.12 L 780.19 499.34 L 775.31 505.25 L 770.05 510.85 L 764.45 516.11 L 758.54 520.99 L 752.32 525.49 L 745.77 529.62 L 738.98 533.31 L 731.95 536.55 L 724.66 539.35 L 717.10 541.71 L 709.43 543.56 L 701.57 544.89 L 693.50 545.71 L 685.20 546.00 L 676.90 545.71 L 668.83 544.89 L 660.97 543.56 L 653.30 541.71 L 645.74 539.35 L 638.45 536.55 L 631.42 533.31 L 624.63 529.62 L 618.08 525.49 L 611.86 520.99 L 605.95 516.11 L 600.35 510.85 L 595.09 505.25 L 590.21 499.34 L 585.71 493.12 L 581.58 486.57 L 577.89 479.78 L 574.65 472.75 L 571.85 465.46 L 569.49 457.90 L 567.64 450.23 L 566.31 442.37 L 565.49 434.30 L 565.20 426.00 L 565.49 417.70 L 566.31 409.63 L 567.64 401.77 L 569.49 394.10 L 571.85 386.54 L 574.65 379.25 L 577.89 372.22 L 581.58 365.43 L 585.71 358.88 L 590.21 352.66 L 595.09 346.75 L 600.35 341.15 L 605.95 335.89 L 611.86 331.01 L 618.08 326.51 L 624.63 322.38 L 631.42 318.69 L 638.45 315.45 L 645.74 312.65 L 653.30 310.29 L 660.97 308.44 L 668.83 307.11 L 676.90 306.29 L 685.20 306.00 L 693.50 306.29 L 701.57 307.11 L 709.43 308.44 L 717.10 310.29 L 724.66 312.65 L 731.95 315.45 L 738.98 318.69 L 745.77 322.38 L 752.32 326.51 L 758.54 331.01 L 764.45 335.89 L 770.05 341.15 L 775.31 346.75 L 780.19 352.66 L 784.69 358.88 L 788.82 365.43 L 792.51 372.22 L 795.75 379.25 L 798.56 386.54 L 800.91 394.10 L 802.76 401.77 L 804.09 409.63 L 804.91 417.70 L 805.20 426.00 Z" fill="#ffffff" fill-rule="evenodd" group-id="1" id="椭圆形" node-id="11" stroke="none" target-height="240" target-width="240" target-x="565.2" target-y="306"></path><path d="M 583.20 922.20 L 582.89 926.73 L 582.02 931.00 L 580.61 935.04 L 578.68 938.88 L 576.33 942.36 L 573.53 945.53 L 570.36 948.33 L 566.88 950.68 L 563.05 952.61 L 559.00 954.02 L 554.73 954.89 L 550.20 955.20 L 545.67 954.89 L 541.40 954.02 L 537.36 952.61 L 533.52 950.68 L 530.04 948.33 L 526.87 945.53 L 524.07 942.36 L 521.72 938.88 L 519.79 935.04 L 518.38 931.00 L 517.51 926.73 L 517.20 922.20 L 517.51 917.67 L 518.38 913.40 L 519.79 909.35 L 521.72 905.52 L 524.07 902.04 L 526.87 898.87 L 530.04 896.07 L 533.52 893.72 L 537.36 891.79 L 541.40 890.38 L 545.67 889.51 L 550.20 889.20 L 554.73 889.51 L 559.00 890.38 L 563.05 891.79 L 566.88 893.72 L 570.36 896.07 L 573.53 898.87 L 576.33 902.04 L 578.68 905.52 L 580.61 909.35 L 582.02 913.40 L 582.89 917.67 L 583.20 922.20 Z" fill="#ffffff" fill-opacity="0.43867856" fill-rule="evenodd" group-id="1,5" id="椭圆形" node-id="12" stroke="none" target-height="66" target-width="66" target-x="517.2" target-y="889.2"></path><path d="M 784.80 472.20 L 784.49 476.73 L 783.62 481.00 L 782.21 485.04 L 780.28 488.88 L 777.93 492.36 L 775.13 495.53 L 771.96 498.33 L 768.48 500.68 L 764.65 502.61 L 760.60 504.02 L 756.33 504.89 L 751.80 505.20 L 747.27 504.89 L 743.00 504.02 L 738.96 502.61 L 735.12 500.68 L 731.64 498.33 L 728.47 495.53 L 725.67 492.36 L 723.32 488.88 L 721.39 485.04 L 719.98 481.00 L 719.11 476.73 L 718.80 472.20 L 719.11 467.67 L 719.98 463.40 L 721.39 459.35 L 723.32 455.52 L 725.67 452.04 L 728.47 448.87 L 731.64 446.07 L 735.12 443.72 L 738.96 441.79 L 743.00 440.38 L 747.27 439.51 L 751.80 439.20 L 756.33 439.51 L 760.60 440.38 L 764.65 441.79 L 768.48 443.72 L 771.96 446.07 L 775.13 448.87 L 777.93 452.04 L 780.28 455.52 L 782.21 459.35 L 783.62 463.40 L 784.49 467.67 L 784.80 472.20 Z" fill="#000000" fill-rule="evenodd" group-id="1" id="椭圆形" node-id="13" stroke="none" target-height="66" target-width="66" target-x="718.8" target-y="439.2"></path><path d="M 611.13 558.32 L 617.06 563.96 L 623.08 568.98 L 629.21 573.40 L 635.46 577.25 L 641.83 580.55 L 648.34 583.32 L 655.01 585.58 L 661.85 587.33 L 668.89 588.57 L 676.15 589.31 L 683.65 589.51 L 691.80 589.15 L 699.77 588.20 L 707.60 586.66 L 715.31 584.52 L 722.91 581.79 L 730.42 578.43 L 737.87 574.44 L 745.26 569.78 L 752.61 564.42 L 759.93 558.32" fill="none" group-id="1,6" id="路径-4" node-id="14" stroke="#000000" stroke-linecap="round" stroke-width="6" target-height="31.190002" target-width="148.79999" target-x="611.13" target-y="558.32"></path><path d="M 805.20 426.00 L 804.91 417.70 L 804.09 409.63 L 802.76 401.77 L 800.91 394.10 L 798.55 386.54 L 795.75 379.25 L 792.51 372.22 L 788.82 365.43 L 784.69 358.88 L 780.19 352.66 L 775.31 346.75 L 770.05 341.15 L 764.45 335.89 L 758.54 331.01 L 752.32 326.51 L 745.77 322.38 L 738.98 318.69 L 731.95 315.45 L 724.66 312.65 L 717.10 310.29 L 709.43 308.44 L 701.57 307.11 L 693.50 306.29 L 685.20 306.00 L 676.90 306.29 L 668.83 307.11 L 660.97 308.44 L 653.30 310.29 L 645.74 312.64 L 638.45 315.45 L 631.42 318.69 L 624.63 322.38 L 618.08 326.51 L 611.86 331.01 L 605.95 335.89 L 600.35 341.15 L 595.09 346.75 L 590.21 352.66 L 585.71 358.88 L 581.58 365.43 L 577.89 372.22 L 574.65 379.25 L 571.85 386.54 L 569.49 394.10 L 567.64 401.77 L 566.31 409.63 L 565.49 417.70 L 565.20 426.00 L 565.45 433.64 L 566.14 441.07 L 567.27 448.32 L 568.82 455.39 L 570.79 462.31 L 572.12 465.42 L 574.01 468.37 L 576.51 471.19 L 579.72 473.89 L 583.13 476.17 L 587.08 478.32 L 591.63 480.35 L 596.84 482.24 L 603.80 484.25 L 611.58 486.00 L 620.25 487.43 L 628.95 488.46 L 638.20 489.18 L 648.03 489.56 L 657.87 489.61 L 667.95 489.33 L 678.30 488.72 L 688.62 487.79 L 698.90 486.54 L 709.14 484.98 L 719.32 483.09 L 729.14 480.91 L 738.64 478.44 L 748.03 475.60 L 756.77 472.51 L 764.90 469.18 L 772.83 465.40 L 779.85 461.43 L 786.02 457.30 L 790.43 453.80 L 794.22 450.23 L 797.42 446.59 L 800.09 442.88 L 802.31 438.84 L 803.89 434.71 L 804.85 430.44 L 805.20 426.00 Z" fill="#efa63b" fill-rule="evenodd" group-id="1" id="椭圆形" node-id="15" stroke="none" target-height="183.60999" target-width="240" target-x="565.2" target-y="306"></path><path d="M 561.60 291.60 L 614.40 339.60" fill="none" group-id="1" id="路径-2" node-id="16" stroke="#000000" stroke-linecap="round" stroke-width="6" target-height="48" target-width="52.80005" target-x="561.6" target-y="291.6"></path><path d="M 810.60 792.60 L 836.40 829.20" fill="none" group-id="1" id="路径-2" node-id="17" stroke="#d0f88d" stroke-linecap="round" stroke-width="6" target-height="36.600037" target-width="25.800049" target-x="810.6" target-y="792.6"></path><path d="M 777.00 793.80 L 777.04 833.05" fill="none" group-id="1" id="路径-2" node-id="18" stroke="#000000" stroke-linecap="round" stroke-width="6" target-height="39.25" target-width="0.039978027" target-x="777" target-y="793.8"></path><path d="M 750.64 794.77 L 738.55 832.12" fill="none" group-id="1" id="路径-2" node-id="19" stroke="#d0f88d" stroke-linecap="round" stroke-width="6" target-height="37.349976" target-width="12.090027" target-x="738.55" target-y="794.77"></path><path d="M 715.31 797.55 L 692.27 829.33" fill="none" group-id="1" id="路径-2" node-id="20" stroke="#000000" stroke-linecap="round" stroke-width="6" target-height="31.78003" target-width="23.039978" target-x="692.27" target-y="797.55"></path><path d="M 664.22 245.37 L 672.58 316.23" fill="none" group-id="1" id="路径-2" node-id="21" stroke="#000000" stroke-linecap="round" stroke-width="6" target-height="70.860016" target-width="8.360046" target-x="664.22" target-y="245.37"></path><path d="M 511.27 377.01 L 580.73 393.39" fill="none" group-id="1" id="路径-2" node-id="22" stroke="#000000" stroke-linecap="round" stroke-width="6" target-height="16.380005" target-width="69.45999" target-x="511.27" target-y="377.01"></path><path d="M 419.41 560.27 L 513.37 747.26 L 514.49 750.12 L 515.07 752.98 L 515.13 755.86 L 514.69 758.72 L 513.80 761.40 L 512.45 763.95 L 510.68 766.23 L 508.51 768.18 L 505.90 769.81 L 503.47 770.80 L 500.97 771.39 L 498.36 771.60 L 310.44 771.60 L 307.38 771.31 L 304.57 770.55 L 301.96 769.31 L 299.61 767.64 L 297.61 765.64 L 295.94 763.28 L 294.70 760.68 L 293.93 757.87 L 293.64 754.80 L 293.85 752.19 L 294.44 749.68 L 295.43 747.26 L 389.39 560.27 L 391.02 557.66 L 392.97 555.50 L 395.25 553.73 L 397.80 552.37 L 400.48 551.48 L 403.34 551.05 L 406.22 551.11 L 409.08 551.68 L 411.94 552.81 L 414.25 554.21 L 416.28 555.94 L 418.01 557.97 L 419.41 560.27 Z" fill="#d0f88d" fill-rule="evenodd" group-id="1" id="三角形" node-id="23" stroke="none" target-height="220.54999" target-width="221.48999" target-x="293.64" target-y="551.05"></path><path d="M 250.95 160.80 L 265.63 165.53 L 279.71 169.61 L 293.21 173.06 L 306.15 175.92 L 318.57 178.21 L 330.48 179.97 L 341.90 181.21 L 354.98 182.54 L 365.90 183.99 L 374.93 185.52 L 383.89 187.48 L 391.10 189.54 L 396.81 191.65 L 401.05 193.64 L 404.56 195.68 L 407.43 197.76 L 409.76 199.89 L 411.87 202.33 L 413.59 204.91 L 414.96 207.62 L 415.98 210.48 L 416.91 214.47 L 417.49 218.87 L 417.69 223.72 L 417.55 231.22 L 417.09 239.87 L 416.63 248.91 L 416.40 259.20" fill="none" group-id="1" id="路径-16" node-id="24" stroke="#000000" stroke-linecap="round" stroke-width="6" target-height="98.40001" target-width="166.74" target-x="250.95" target-y="160.8"></path><path d="M 240.00 126.00 L 249.17 131.38 L 258.44 136.12 L 267.82 140.24 L 277.34 143.75 L 287.00 146.68 L 296.82 149.01 L 306.82 150.76 L 317.02 151.93 L 340.03 153.52 L 360.86 154.47 L 398.55 155.77 L 410.04 156.35 L 420.25 157.16 L 429.29 158.19 L 436.15 159.29 L 442.22 160.66 L 447.56 162.26 L 452.25 164.06 L 455.96 165.91 L 459.21 167.99 L 462.05 170.33 L 464.52 172.91 L 466.63 175.75 L 468.32 178.79 L 469.68 182.23 L 470.71 186.13 L 471.36 190.57 L 471.60 195.60" fill="none" group-id="1" id="路径-16" node-id="25" stroke="#000000" stroke-linecap="round" stroke-width="6" target-height="69.600006" target-width="231.6" target-x="240" target-y="126"></path><path d="M 126.00 210.94 L 154.19 208.92 L 180.12 207.65 L 203.91 207.07 L 225.70 207.12 L 245.61 207.75 L 263.76 208.91 L 280.27 210.55 L 295.25 212.62 L 308.80 215.07 L 321.03 217.88 L 332.04 221.00 L 341.92 224.39 L 350.76 228.04 L 358.64 231.92 L 365.64 236.00 L 371.84 240.28 L 377.29 244.75 L 382.06 249.41 L 386.20 254.26 L 389.74 259.31 L 392.72 264.59 L 395.17 270.10 L 397.08 275.88 L 398.46 281.97 L 399.31 288.40 L 399.60 295.20" fill="none" group-id="1" id="路径-16" node-id="26" stroke="#000000" stroke-linecap="round" stroke-width="6" target-height="88.130005" target-width="273.6" target-x="126" target-y="207.07"></path><path d="M 126.00 561.60 L 134.23 564.68 L 142.32 567.18 L 150.28 569.14 L 158.14 570.57 L 166.14 571.57 L 174.00 572.14 L 181.76 572.30 L 189.41 572.06 L 199.61 571.18 L 209.57 569.77 L 219.31 567.85 L 228.96 565.46 L 238.30 562.76 L 247.36 559.75 L 260.65 554.76 L 273.06 549.57 L 285.04 544.17 L 295.92 539.10 L 306.37 534.21 L 315.45 530.14 L 321.44 527.68 L 326.65 525.83 L 331.17 524.51 L 334.71 523.77 L 337.74 523.49 L 340.34 523.58 L 342.58 523.99 L 344.67 524.84 L 346.44 526.15 L 347.95 527.97 L 349.19 530.40 L 350.88 535.48 L 352.12 541.16 L 352.86 547.51 L 353.00 552.24 L 352.73 557.27 L 352.03 562.64 L 350.86 568.37 L 349.32 573.84 L 347.19 579.61 L 344.44 585.70 L 341.01 592.16 L 337.29 598.17 L 332.78 604.47 L 327.43 611.09 L 321.13 618.05 L 314.72 624.43 L 307.29 631.08 L 298.77 638.01 L 289.06 645.23 L 279.41 651.80 L 268.51 658.60 L 256.28 665.62 L 242.60 672.87 L 229.16 679.45 L 214.25 686.19 L 197.76 693.09 L 179.59 700.15 L 168.92 704.45 L 159.98 708.63 L 152.57 712.70 L 146.49 716.63 L 141.56 720.41 L 137.52 724.05 L 134.28 727.58 L 131.73 731.00 L 129.81 734.33 L 128.24 738.05 L 127.24 741.70 L 126.78 745.30 L 126.84 748.90 L 127.42 752.53 L 128.44 756.03 L 129.89 759.56 L 131.80 763.14 L 134.23 766.79 L 137.21 770.52 L 141.13 774.72 L 145.71 778.96 L 150.99 783.25 L 157.05 787.59 L 165.30 792.81 L 174.54 797.96 L 184.83 803.03 L 195.32 807.62 L 206.51 811.98 L 218.43 816.12 L 230.49 819.82 L 242.92 823.17 L 255.74 826.16 L 268.65 828.71 L 281.61 830.79 L 294.62 832.43 L 307.69 833.57 L 320.47 834.16 L 332.98 834.22 L 342.40 833.88 L 351.49 833.20 L 360.24 832.17 L 368.67 830.82 L 377.14 829.04 L 385.09 826.89 L 392.57 824.38 L 399.60 821.53" fill="none" group-id="1" id="路径-17" node-id="27" stroke="#000000" stroke-linecap="round" stroke-width="6" target-height="310.72998" target-width="273.6" target-x="126" target-y="523.49"></path><path d="M 126.00 522.00 L 134.23 525.08 L 142.32 527.58 L 150.28 529.54 L 158.14 530.97 L 166.14 531.97 L 174.00 532.54 L 181.76 532.70 L 189.41 532.46 L 199.61 531.58 L 209.57 530.17 L 219.31 528.25 L 228.96 525.86 L 238.30 523.16 L 247.36 520.15 L 260.65 515.16 L 273.06 509.97 L 285.04 504.57 L 295.92 499.50 L 306.37 494.61 L 315.45 490.54 L 321.44 488.08 L 326.65 486.23 L 331.17 484.91 L 334.71 484.17 L 337.74 483.89 L 340.34 483.98 L 342.58 484.39 L 344.67 485.24 L 346.44 486.55 L 347.95 488.37 L 349.19 490.80 L 350.88 495.88 L 352.12 501.56 L 352.86 507.91 L 353.00 512.64 L 352.73 517.67 L 352.03 523.04 L 350.86 528.77 L 349.32 534.24 L 347.19 540.01 L 344.44 546.10 L 341.01 552.56 L 337.29 558.57 L 332.78 564.87 L 327.43 571.49 L 321.13 578.45 L 314.72 584.83 L 307.29 591.48 L 298.77 598.41 L 289.06 605.63 L 279.41 612.20 L 268.51 619.00 L 256.28 626.02 L 242.60 633.27 L 229.16 639.85 L 214.25 646.59 L 197.76 653.49 L 179.59 660.55 L 168.92 664.85 L 159.98 669.03 L 152.57 673.10 L 146.49 677.03 L 141.56 680.81 L 137.52 684.45 L 134.28 687.98 L 131.73 691.40 L 129.81 694.73 L 128.24 698.45 L 127.24 702.10 L 126.78 705.70 L 126.84 709.30 L 127.42 712.93 L 128.44 716.43 L 129.89 719.96 L 131.80 723.54 L 134.23 727.19 L 137.21 730.92 L 141.13 735.12 L 145.71 739.36 L 150.99 743.65 L 157.05 747.99 L 165.30 753.21 L 174.54 758.36 L 184.83 763.43 L 195.32 768.02 L 206.51 772.38 L 218.43 776.52 L 230.49 780.22 L 242.92 783.57 L 255.74 786.56 L 268.65 789.11 L 281.61 791.19 L 294.62 792.83 L 307.69 793.97 L 320.47 794.56 L 332.98 794.62 L 342.40 794.28 L 351.49 793.60 L 360.24 792.57 L 368.67 791.22 L 377.14 789.44 L 385.09 787.29 L 392.57 784.78 L 399.60 781.93" fill="none" group-id="1" id="路径-17" node-id="28" stroke="#000000" stroke-linecap="round" stroke-width="6" target-height="310.72998" target-width="273.6" target-x="126" target-y="483.89"></path><path d="M 546.00 126.00 L 531.25 137.77 L 517.20 149.71 L 503.82 161.83 L 491.09 174.12 L 479.01 186.58 L 467.55 199.22 L 456.69 212.04 L 446.43 225.04 L 436.75 238.24 L 427.63 251.62 L 419.07 265.21 L 411.06 279.00 L 403.59 293.01 L 396.65 307.24 L 390.24 321.70 L 384.35 336.40 L 378.98 351.35 L 374.14 366.56 L 369.81 382.05 L 366.00 397.82 L 362.83 413.07 L 360.24 427.32 L 358.21 440.63 L 356.69 453.05 L 355.52 465.86 L 354.78 477.77 L 354.45 488.82 L 354.50 499.07 L 354.92 509.61 L 355.64 519.34 L 356.63 528.30 L 357.87 536.54 L 360.05 547.64 L 362.51 557.47 L 365.22 566.15 L 368.43 574.71 L 371.69 582.15 L 375.00 588.58 L 378.70 594.84 L 382.24 600.11 L 385.63 604.50 L 389.31 608.70 L 392.61 612.02 L 395.55 614.58 L 398.71 616.95 L 401.22 618.54 L 403.20 619.52 L 404.34 619.73 L 405.72 619.49 L 407.46 618.66 L 409.69 617.01 L 412.26 614.56 L 415.27 611.12 L 418.81 606.49 L 423.83 599.04 L 429.43 589.67 L 434.85 579.62 L 440.41 568.26 L 445.64 556.44 L 450.60 543.96 L 455.06 531.25 L 458.88 518.51 L 461.05 509.93 L 462.78 501.63 L 464.09 493.59 L 464.98 485.49 L 465.30 477.95 L 465.11 470.93 L 464.56 465.63 L 463.64 460.77 L 462.38 456.32 L 460.79 452.23 L 458.73 448.32 L 456.26 444.87 L 453.36 441.84 L 450.00 439.20 L 442.97 434.82 L 435.71 430.94 L 428.20 427.54 L 420.48 424.67 L 412.74 422.45 L 404.95 420.85 L 399.02 420.09 L 393.19 419.76 L 387.42 419.85 L 381.72 420.37 L 376.07 421.36 L 370.58 422.84 L 365.22 424.83 L 359.96 427.34 L 355.02 430.31 L 350.25 433.87 L 345.63 438.08 L 341.17 442.97 L 337.25 448.14 L 333.54 454.07 L 330.05 460.83 L 326.79 468.52 L 324.18 476.16 L 321.86 484.76 L 319.89 494.40 L 318.30 505.20 L 317.41 515.21 L 317.03 526.26 L 317.21 538.44 L 318.01 551.84 L 319.50 566.55 L 321.74 582.67 L 324.81 600.31 L 328.78 619.57 L 333.72 640.56 L 339.73 663.39 L 346.89 688.19 L 355.29 715.07 L 365.03 744.17 L 376.19 775.60 L 388.88 809.49 L 403.20 846.00" fill="none" group-id="1" id="路径-15" node-id="29" stroke="#ffffff" stroke-linecap="butt" stroke-width="6" target-height="720" target-width="228.97" target-x="317.03" target-y="126"></path><path d="M 411.93 585.92 L 414.51 585.33 L 417.18 585.24 L 419.84 585.68 L 422.47 586.69 L 424.36 587.84 L 426.03 589.26 L 427.45 590.93 L 428.60 592.82 L 428.60 592.82 L 496.02 727.00 L 497.03 729.63 L 497.47 732.29 L 497.38 734.96 L 496.79 737.54 L 495.73 739.96 L 494.20 742.15 L 492.26 744.02 L 489.89 745.53 L 487.90 746.34 L 485.84 746.83 L 483.69 747.00 L 483.69 747.00 L 348.84 747.00 L 346.04 746.72 L 343.47 745.92 L 341.12 744.64 L 339.09 742.96 L 337.40 740.92 L 336.13 738.57 L 335.33 736.00 L 335.04 733.20 L 335.21 731.05 L 335.70 729.00 L 336.51 727.00 L 336.51 727.00 L 403.94 592.82 L 405.45 590.45 L 407.32 588.51 L 409.51 586.98 L 411.93 585.92 Z" fill="none" group-id="1" id="三角形" node-id="30" stroke="#efa63b" stroke-linecap="butt" stroke-width="6" target-height="161.76001" target-width="162.43" target-x="335.04" target-y="585.24"></path><path d="M 404.40 846.00 L 430.47 853.76 L 453.14 861.10 L 472.72 868.03 L 489.50 874.57 L 503.76 880.73 L 515.77 886.52 L 525.77 891.95 L 534.00 897.05 L 540.67 901.83 L 545.99 906.30 L 550.14 910.51 L 553.29 914.46 L 555.57 918.20 L 558.21 923.98 L 559.86 928.84 L 560.69 932.93 L 560.93 937.10 L 560.58 940.62 L 559.71 943.62 L 558.33 946.43 L 556.62 948.87 L 554.56 950.97 L 552.22 952.79 L 549.75 954.36 L 547.14 955.67 L 543.12 957.28 L 539.38 958.45 L 533.21 960.00 L 530.85 960.33 L 528.57 960.14 L 526.31 959.44 L 524.03 958.17 L 522.05 956.56 L 520.09 954.38 L 518.14 951.55 L 516.22 947.94 L 514.72 944.37 L 513.32 940.12 L 512.05 935.12 L 510.94 929.26 L 510.54 924.63 L 510.70 919.81 L 511.44 914.74 L 512.62 909.74 L 514.18 904.69 L 516.13 899.58 L 519.51 892.12 L 523.26 885.03 L 527.26 878.26 L 531.06 872.38 L 537.77 862.90 L 540.42 859.85 L 543.71 857.00 L 547.72 854.33 L 552.55 851.87 L 558.32 849.63 L 565.15 847.66 L 573.20 846.00" fill="none" group-id="1" id="路径-18" node-id="31" stroke="#d0f88d" stroke-linecap="butt" stroke-width="7.2" target-height="114.33002" target-width="168.80002" target-x="404.4" target-y="846"></path></g></svg>