<?xml version="1.0" standalone="no"?><!DOCTYPE svg PUBLIC "-//W3C//DTD SVG 1.1//EN" "http://www.w3.org/Graphics/SVG/1.1/DTD/svg11.dtd"><svg height="1200" node-id="1" sillyvg="true" template-height="1200" template-width="1200" version="1.1" viewBox="0 0 1200 1200" width="1200" xmlns="http://www.w3.org/2000/svg" xmlns:xlink="http://www.w3.org/1999/xlink"><defs node-id="49"></defs><path d="M 1.00 0.00 L 1198.00 0.00 L 1198.00 1200.00 L 1.00 1200.00 Z" fill="#ffffff" fill-rule="evenodd" id="矩形" node-id="5" stroke="none" target-height="1200" target-width="1197" target-x="1" target-y="0"></path><g node-id="51"><path d="M 252.00 240.00 L 972.00 240.00 L 972.00 960.00 L 252.00 960.00 Z" fill="#83632c" fill-rule="evenodd" group-id="1" id="矩形" node-id="7" stroke="none" target-height="720" target-width="720" target-x="252" target-y="240"></path><path d="M 252.00 720.00 L 285.53 720.00 L 300.94 542.40 L 451.20 531.01 L 523.20 424.66 L 531.60 529.20 L 674.84 522.61 L 740.40 339.57 L 726.61 522.61 L 915.60 513.60 L 936.16 720.00 L 972.00 720.00 L 972.00 960.00 L 252.00 960.00 Z" fill="#9e994b" fill-rule="evenodd" group-id="1" id="路径-29" node-id="8" stroke="none" target-height="620.43" target-width="720" target-x="252" target-y="339.57"></path><g node-id="52"><path d="M 972.00 388.19 L 973.65 391.63 L 975.60 394.37 L 977.85 396.53 L 979.78 397.76 L 982.05 398.66 L 984.73 399.22 L 987.88 399.39 L 990.89 399.18 L 994.49 398.55 L 998.78 397.43 L 1003.86 395.70 L 1019.75 389.43 L 1038.55 381.80 L 1058.80 373.93 L 1069.08 370.23 L 1079.02 366.93 L 1088.83 364.06 L 1097.73 361.92 L 1103.64 360.83 L 1108.85 360.21 L 1113.46 360.00 L 1119.19 360.27 L 1124.77 361.02 L 1130.22 362.24 L 1135.56 363.94 L 1140.81 366.12 L 1145.84 368.70 L 1150.73 371.67 L 1155.47 375.06 L 1160.08 378.88 L 1164.57 383.15 L 1169.71 388.80 L 1174.54 395.00 L 1179.07 401.76 L 1183.30 409.13 L 1186.99 416.69 L 1190.27 424.68 L 1193.14 433.13 L 1195.59 442.07 L 1197.47 451.05 L 1198.85 460.36 L 1199.69 470.00 L 1200.00 480.00 L 1199.69 490.00 L 1198.85 499.65 L 1197.47 508.95 L 1195.59 517.93 L 1193.14 526.87 L 1190.27 535.32 L 1186.99 543.31 L 1183.30 550.87 L 1179.07 558.24 L 1174.54 565.01 L 1169.71 571.20 L 1164.57 576.85 L 1160.08 581.12 L 1155.47 584.94 L 1150.73 588.33 L 1145.84 591.30 L 1140.81 593.88 L 1135.56 596.06 L 1130.22 597.76 L 1124.77 598.98 L 1119.19 599.73 L 1113.46 600.00 L 1109.94 599.78 L 1105.62 599.13 L 1100.36 597.95 L 1092.39 595.69 L 1083.16 592.60 L 1073.71 589.09 L 1063.70 585.12 L 1043.81 576.69 L 1025.34 568.49 L 1010.11 561.71 L 1003.89 559.05 L 999.96 557.51 L 995.48 556.18 L 991.45 555.51 L 987.79 555.42 L 984.44 555.86 L 981.18 556.84 L 978.04 558.37 L 974.99 560.48 L 972.00 563.23 Z" fill="#83632c" fill-rule="evenodd" group-id="1,2" id="形状结合" node-id="9" stroke="none" target-height="240" target-width="228" target-x="972" target-y="360"></path></g><g node-id="53"><path d="M 252.00 691.81 L 250.35 688.37 L 248.40 685.63 L 246.15 683.47 L 244.22 682.24 L 241.95 681.34 L 239.27 680.78 L 236.12 680.61 L 233.11 680.82 L 229.51 681.45 L 225.22 682.57 L 220.14 684.30 L 204.25 690.57 L 185.45 698.20 L 165.20 706.07 L 154.92 709.77 L 144.98 713.07 L 135.17 715.94 L 126.27 718.08 L 120.36 719.17 L 115.15 719.79 L 110.54 720.00 L 104.81 719.73 L 99.23 718.98 L 93.78 717.76 L 88.44 716.06 L 83.19 713.88 L 78.16 711.30 L 73.27 708.33 L 68.53 704.94 L 63.92 701.12 L 59.43 696.85 L 54.29 691.20 L 49.46 685.01 L 44.93 678.24 L 40.70 670.87 L 37.01 663.31 L 33.73 655.32 L 30.86 646.87 L 28.41 637.93 L 26.53 628.95 L 25.15 619.65 L 24.31 610.00 L 24.00 600.00 L 24.31 590.00 L 25.15 580.36 L 26.53 571.05 L 28.41 562.07 L 30.86 553.13 L 33.73 544.68 L 37.01 536.69 L 40.70 529.13 L 44.93 521.76 L 49.46 515.00 L 54.29 508.80 L 59.43 503.15 L 63.92 498.88 L 68.53 495.06 L 73.27 491.67 L 78.16 488.70 L 83.19 486.12 L 88.44 483.94 L 93.78 482.24 L 99.23 481.02 L 104.81 480.27 L 110.54 480.00 L 114.06 480.22 L 118.38 480.87 L 123.64 482.05 L 131.61 484.31 L 140.84 487.40 L 150.29 490.91 L 160.30 494.88 L 180.19 503.31 L 198.66 511.51 L 213.89 518.30 L 220.11 520.95 L 224.04 522.49 L 228.52 523.82 L 232.55 524.49 L 236.21 524.58 L 239.56 524.14 L 242.82 523.16 L 245.96 521.63 L 249.01 519.52 L 252.00 516.77 Z" fill="#83632c" fill-rule="evenodd" group-id="1,3" id="形状结合" node-id="10" stroke="none" target-height="240" target-width="228" target-x="24" target-y="480"></path></g><path d="M 584.40 687.60 L 584.08 696.82 L 583.17 705.77 L 581.69 714.50 L 579.64 723.01 L 577.02 731.40 L 573.91 739.49 L 570.31 747.29 L 566.21 754.83 L 561.63 762.10 L 556.64 769.00 L 551.23 775.56 L 545.39 781.79 L 539.16 787.63 L 532.60 793.04 L 525.70 798.03 L 518.43 802.61 L 510.89 806.71 L 503.09 810.31 L 495.00 813.42 L 486.61 816.04 L 478.10 818.09 L 469.37 819.57 L 460.42 820.48 L 451.20 820.80 L 441.98 820.48 L 433.02 819.57 L 424.30 818.09 L 415.79 816.04 L 407.40 813.42 L 399.31 810.31 L 391.51 806.71 L 383.97 802.61 L 376.70 798.03 L 369.80 793.04 L 363.24 787.63 L 357.01 781.79 L 351.17 775.56 L 345.76 769.00 L 340.77 762.10 L 336.19 754.83 L 332.09 747.29 L 328.49 739.49 L 325.38 731.40 L 322.76 723.01 L 320.71 714.50 L 319.23 705.77 L 318.32 696.82 L 318.00 687.60 L 318.32 678.38 L 319.23 669.43 L 320.71 660.70 L 322.76 652.19 L 325.38 643.80 L 328.49 635.71 L 332.09 627.91 L 336.19 620.37 L 340.77 613.10 L 345.76 606.20 L 351.17 599.64 L 357.01 593.41 L 363.24 587.57 L 369.80 582.16 L 376.70 577.17 L 383.97 572.59 L 391.51 568.49 L 399.31 564.89 L 407.40 561.78 L 415.79 559.16 L 424.30 557.11 L 433.02 555.63 L 441.98 554.72 L 451.20 554.40 L 460.42 554.72 L 469.37 555.63 L 478.10 557.11 L 486.61 559.16 L 495.00 561.78 L 503.09 564.89 L 510.89 568.49 L 518.43 572.59 L 525.70 577.17 L 532.60 582.16 L 539.16 587.57 L 545.39 593.41 L 551.23 599.64 L 556.64 606.20 L 561.63 613.10 L 566.21 620.37 L 570.31 627.91 L 573.91 635.71 L 577.02 643.80 L 579.64 652.19 L 581.69 660.70 L 583.17 669.43 L 584.08 678.38 L 584.40 687.60 Z" fill="#fff990" fill-rule="evenodd" group-id="1" id="椭圆形" node-id="11" stroke="none" target-height="266.39996" target-width="266.40002" target-x="318" target-y="554.4"></path><path d="M 908.40 687.60 L 908.08 696.82 L 907.17 705.77 L 905.69 714.50 L 903.64 723.01 L 901.02 731.40 L 897.91 739.49 L 894.31 747.29 L 890.21 754.83 L 885.63 762.10 L 880.64 769.00 L 875.23 775.56 L 869.39 781.79 L 863.16 787.63 L 856.60 793.04 L 849.70 798.03 L 842.43 802.61 L 834.89 806.71 L 827.09 810.31 L 819.00 813.42 L 810.61 816.04 L 802.10 818.09 L 793.37 819.57 L 784.42 820.48 L 775.20 820.80 L 765.98 820.48 L 757.02 819.57 L 748.30 818.09 L 739.79 816.04 L 731.40 813.42 L 723.31 810.31 L 715.51 806.71 L 707.97 802.61 L 700.70 798.03 L 693.80 793.04 L 687.24 787.63 L 681.01 781.79 L 675.17 775.56 L 669.76 769.00 L 664.77 762.10 L 660.19 754.83 L 656.09 747.29 L 652.49 739.49 L 649.38 731.40 L 646.76 723.01 L 644.71 714.50 L 643.23 705.77 L 642.32 696.82 L 642.00 687.60 L 642.32 678.38 L 643.23 669.43 L 644.71 660.70 L 646.76 652.19 L 649.38 643.80 L 652.49 635.71 L 656.09 627.91 L 660.19 620.37 L 664.77 613.10 L 669.76 606.20 L 675.17 599.64 L 681.01 593.41 L 687.24 587.57 L 693.80 582.16 L 700.70 577.17 L 707.97 572.59 L 715.51 568.49 L 723.31 564.89 L 731.40 561.78 L 739.79 559.16 L 748.30 557.11 L 757.02 555.63 L 765.98 554.72 L 775.20 554.40 L 784.42 554.72 L 793.37 555.63 L 802.10 557.11 L 810.61 559.16 L 819.00 561.78 L 827.09 564.89 L 834.89 568.49 L 842.43 572.59 L 849.70 577.17 L 856.60 582.16 L 863.16 587.57 L 869.39 593.41 L 875.23 599.64 L 880.64 606.20 L 885.63 613.10 L 890.21 620.37 L 894.31 627.91 L 897.91 635.71 L 901.02 643.80 L 903.64 652.19 L 905.69 660.70 L 907.17 669.43 L 908.08 678.38 L 908.40 687.60 Z" fill="#fff990" fill-rule="evenodd" group-id="1" id="椭圆形" node-id="12" stroke="none" target-height="266.39996" target-width="266.40002" target-x="642" target-y="554.4"></path><path d="M 605.40 687.60 L 605.08 696.61 L 604.20 705.37 L 602.75 713.89 L 600.75 722.21 L 598.19 730.42 L 595.15 738.32 L 591.63 745.95 L 587.62 753.31 L 583.14 760.42 L 578.26 767.17 L 572.97 773.58 L 567.27 779.67 L 561.18 785.37 L 554.77 790.66 L 548.02 795.54 L 540.91 800.02 L 533.55 804.03 L 525.92 807.55 L 518.02 810.59 L 509.81 813.15 L 501.49 815.15 L 492.97 816.60 L 484.21 817.48 L 475.20 817.80 L 466.19 817.48 L 457.43 816.60 L 448.91 815.15 L 440.59 813.15 L 432.38 810.59 L 424.48 807.55 L 416.85 804.03 L 409.49 800.02 L 402.38 795.54 L 395.63 790.66 L 389.22 785.37 L 383.13 779.67 L 377.43 773.58 L 372.14 767.17 L 367.26 760.42 L 362.78 753.31 L 358.77 745.95 L 355.25 738.32 L 352.21 730.42 L 349.65 722.21 L 347.65 713.89 L 346.20 705.37 L 345.32 696.61 L 345.00 687.60 L 345.32 678.59 L 346.20 669.83 L 347.65 661.31 L 349.65 652.99 L 352.21 644.78 L 355.25 636.88 L 358.77 629.25 L 362.78 621.89 L 367.26 614.78 L 372.14 608.03 L 377.43 601.62 L 383.13 595.53 L 389.22 589.83 L 395.63 584.54 L 402.38 579.66 L 409.49 575.18 L 416.85 571.17 L 424.48 567.65 L 432.38 564.61 L 440.59 562.05 L 448.91 560.05 L 457.43 558.60 L 466.19 557.72 L 475.20 557.40 L 484.21 557.72 L 492.97 558.60 L 501.49 560.05 L 509.81 562.05 L 518.02 564.61 L 525.92 567.65 L 533.55 571.17 L 540.91 575.18 L 548.02 579.66 L 554.77 584.54 L 561.18 589.83 L 567.27 595.53 L 572.97 601.62 L 578.26 608.03 L 583.14 614.78 L 587.62 621.89 L 591.63 629.25 L 595.15 636.88 L 598.19 644.78 L 600.75 652.99 L 602.75 661.31 L 604.20 669.83 L 605.08 678.59 L 605.40 687.60 Z" fill="none" group-id="1" id="椭圆形" node-id="13" stroke="#000000" stroke-linecap="butt" stroke-width="6" target-height="260.39996" target-width="260.40002" target-x="345" target-y="557.4"></path><path d="M 929.40 687.60 L 929.08 696.61 L 928.20 705.37 L 926.75 713.89 L 924.75 722.21 L 922.19 730.42 L 919.15 738.32 L 915.63 745.95 L 911.62 753.31 L 907.14 760.42 L 902.26 767.17 L 896.97 773.58 L 891.27 779.67 L 885.18 785.37 L 878.77 790.66 L 872.02 795.54 L 864.91 800.02 L 857.55 804.03 L 849.92 807.55 L 842.02 810.59 L 833.81 813.15 L 825.49 815.15 L 816.97 816.60 L 808.21 817.48 L 799.20 817.80 L 790.19 817.48 L 781.43 816.60 L 772.91 815.15 L 764.59 813.15 L 756.38 810.59 L 748.48 807.55 L 740.85 804.03 L 733.49 800.02 L 726.38 795.54 L 719.63 790.66 L 713.22 785.37 L 707.13 779.67 L 701.43 773.58 L 696.14 767.17 L 691.26 760.42 L 686.78 753.31 L 682.77 745.95 L 679.25 738.32 L 676.21 730.42 L 673.65 722.21 L 671.65 713.89 L 670.20 705.37 L 669.32 696.61 L 669.00 687.60 L 669.32 678.59 L 670.20 669.83 L 671.65 661.31 L 673.65 652.99 L 676.21 644.78 L 679.25 636.88 L 682.77 629.25 L 686.78 621.89 L 691.26 614.78 L 696.14 608.03 L 701.43 601.62 L 707.13 595.53 L 713.22 589.83 L 719.63 584.54 L 726.38 579.66 L 733.49 575.18 L 740.85 571.17 L 748.48 567.65 L 756.38 564.61 L 764.59 562.05 L 772.91 560.05 L 781.43 558.60 L 790.19 557.72 L 799.20 557.40 L 808.21 557.72 L 816.97 558.60 L 825.49 560.05 L 833.81 562.05 L 842.02 564.61 L 849.92 567.65 L 857.55 571.17 L 864.91 575.18 L 872.02 579.66 L 878.77 584.54 L 885.18 589.83 L 891.27 595.53 L 896.97 601.62 L 902.26 608.03 L 907.14 614.78 L 911.62 621.89 L 915.63 629.25 L 919.15 636.88 L 922.19 644.78 L 924.75 652.99 L 926.75 661.31 L 928.20 669.83 L 929.08 678.59 L 929.40 687.60 Z" fill="none" group-id="1" id="椭圆形" node-id="14" stroke="#000000" stroke-linecap="butt" stroke-width="6" target-height="260.39996" target-width="260.40002" target-x="669" target-y="557.4"></path><path d="M 868.80 654.00 L 868.54 657.79 L 867.81 661.36 L 866.63 664.74 L 865.02 667.95 L 863.05 670.86 L 860.72 673.52 L 858.06 675.85 L 855.15 677.82 L 851.94 679.43 L 848.56 680.61 L 844.99 681.34 L 841.20 681.60 L 837.41 681.34 L 833.84 680.61 L 830.46 679.43 L 827.25 677.82 L 824.34 675.85 L 821.68 673.52 L 819.35 670.86 L 817.38 667.95 L 815.77 664.74 L 814.59 661.36 L 813.86 657.79 L 813.60 654.00 L 813.86 650.21 L 814.59 646.64 L 815.77 643.26 L 817.38 640.05 L 819.35 637.14 L 821.68 634.48 L 824.34 632.15 L 827.25 630.18 L 830.46 628.57 L 833.84 627.39 L 837.41 626.66 L 841.20 626.40 L 844.99 626.66 L 848.56 627.39 L 851.94 628.57 L 855.15 630.18 L 858.06 632.15 L 860.72 634.48 L 863.05 637.14 L 865.02 640.05 L 866.63 643.26 L 867.81 646.64 L 868.54 650.21 L 868.80 654.00 Z" fill="#000000" fill-rule="evenodd" group-id="1" id="椭圆形" node-id="15" stroke="none" target-height="55.19995" target-width="55.200012" target-x="813.6" target-y="626.4"></path><path d="M 544.80 654.00 L 544.54 657.79 L 543.81 661.36 L 542.63 664.74 L 541.02 667.95 L 539.05 670.86 L 536.72 673.52 L 534.06 675.85 L 531.15 677.82 L 527.94 679.43 L 524.56 680.61 L 520.99 681.34 L 517.20 681.60 L 513.41 681.34 L 509.84 680.61 L 506.46 679.43 L 503.25 677.82 L 500.34 675.85 L 497.68 673.52 L 495.35 670.86 L 493.38 667.95 L 491.77 664.74 L 490.59 661.36 L 489.86 657.79 L 489.60 654.00 L 489.86 650.21 L 490.59 646.64 L 491.77 643.26 L 493.38 640.05 L 495.35 637.14 L 497.68 634.48 L 500.34 632.15 L 503.25 630.18 L 506.46 628.57 L 509.84 627.39 L 513.41 626.66 L 517.20 626.40 L 520.99 626.66 L 524.56 627.39 L 527.94 628.57 L 531.15 630.18 L 534.06 632.15 L 536.72 634.48 L 539.05 637.14 L 541.02 640.05 L 542.63 643.26 L 543.81 646.64 L 544.54 650.21 L 544.80 654.00 Z" fill="#000000" fill-rule="evenodd" group-id="1" id="椭圆形" node-id="16" stroke="none" target-height="55.19995" target-width="55.19998" target-x="489.6" target-y="626.4"></path><path d="M 553.20 513.60 L 500.40 561.60" fill="none" group-id="1,4" id="路径-2" node-id="17" stroke="#000000" stroke-linecap="round" stroke-width="6" target-height="48" target-width="52.80002" target-x="500.4" target-y="513.6"></path><path d="M 490.80 507.60 L 438.00 555.60" fill="none" group-id="1,5" id="路径-2" node-id="18" stroke="#000000" stroke-linecap="round" stroke-width="6" target-height="47.99997" target-width="52.799988" target-x="438" target-y="507.6"></path><path d="M 592.80 537.60 L 540.00 585.60" fill="none" group-id="1,6" id="路径-2" node-id="19" stroke="#000000" stroke-linecap="round" stroke-width="6" target-height="48" target-width="52.799988" target-x="540" target-y="537.6"></path><path d="M 891.60 513.60 L 838.80 561.60" fill="none" group-id="1,7" id="路径-2" node-id="20" stroke="#000000" stroke-linecap="round" stroke-width="6" target-height="48" target-width="52.799988" target-x="838.8" target-y="513.6"></path><path d="M 829.20 507.60 L 776.40 555.60" fill="none" group-id="1,8" id="路径-2" node-id="21" stroke="#000000" stroke-linecap="round" stroke-width="6" target-height="47.99997" target-width="52.799988" target-x="776.4" target-y="507.6"></path><path d="M 931.20 537.60 L 878.40 585.60" fill="none" group-id="1,9" id="路径-2" node-id="22" stroke="#000000" stroke-linecap="round" stroke-width="6" target-height="48" target-width="52.799988" target-x="878.4" target-y="537.6"></path><path d="M 633.33 798.66 L 655.48 879.31 L 656.34 883.26 L 656.79 887.13 L 656.86 890.94 L 656.54 894.71 L 655.54 899.66 L 653.96 904.35 L 651.77 908.83 L 649.04 912.99 L 645.82 916.75 L 642.07 920.13 L 638.99 922.33 L 635.68 924.22 L 632.12 925.80 L 628.29 927.08 L 624.90 927.85 L 621.47 928.31 L 618.00 928.46 L 614.08 928.25 L 610.34 927.69 L 606.75 926.77 L 603.30 925.50 L 598.92 923.29 L 594.93 920.60 L 591.30 917.40 L 588.10 913.77 L 585.41 909.78 L 583.20 905.40 L 581.93 901.95 L 581.01 898.36 L 580.44 894.62 L 580.23 890.70 L 580.55 885.84 L 581.49 881.06 L 603.21 798.81 L 604.19 796.12 L 605.55 793.78 L 607.28 791.74 L 609.34 790.02 L 611.61 788.70 L 614.12 787.76 L 616.75 787.26 L 619.45 787.24 L 622.27 787.71 L 624.88 788.65 L 627.20 789.98 L 629.27 791.71 L 631.01 793.75 L 632.36 796.06 L 633.33 798.66 Z" fill="#ebe470" fill-rule="evenodd" group-id="1" id="三角形" node-id="23" stroke="none" target-height="141.22003" target-width="76.630005" target-x="580.23" target-y="787.24"></path><path d="M 451.20 243.60 L 453.33 264.82 L 454.74 284.59 L 455.47 302.98 L 455.57 320.06 L 455.10 335.92 L 454.08 350.62 L 452.56 364.24 L 450.59 376.84 L 448.18 388.48 L 445.38 399.22 L 442.21 409.13 L 438.68 418.25 L 434.83 426.65 L 430.65 434.37 L 426.17 441.45 L 421.39 447.93 L 416.31 453.85 L 410.91 459.25 L 405.20 464.14 L 399.16 468.55 L 392.77 472.49 L 368.23 486.65 L 348.91 498.42 L 334.04 508.12 L 322.89 516.03 L 314.80 522.41 L 309.19 527.50 L 305.51 531.51 L 303.32 534.66" fill="none" group-id="1" id="路径-36" node-id="24" stroke="#9e994b" stroke-linecap="round" stroke-width="6" target-height="291.05997" target-width="152.25" target-x="303.32" target-y="243.6"></path><path d="M 715.48 243.60 L 708.82 272.55 L 702.11 299.32 L 695.36 324.02 L 688.59 346.76 L 681.81 367.66 L 675.03 386.81 L 668.26 404.32 L 661.52 420.29 L 654.82 434.81 L 648.15 447.98 L 641.54 459.88 L 634.98 470.59 L 628.47 480.21 L 622.02 488.80 L 615.63 496.44 L 609.30 503.20 L 603.02 509.14 L 596.78 514.31 L 590.58 518.77 L 584.40 522.57" fill="none" group-id="1" id="路径-36" node-id="25" stroke="#9e994b" stroke-linecap="round" stroke-width="6" target-height="278.97" target-width="131.07996" target-x="584.4" target-y="243.6"></path><path d="M 846.00 240.00 L 841.89 265.62 L 838.67 289.38 L 836.29 311.38 L 834.67 331.72 L 833.77 350.49 L 833.51 367.80 L 833.87 383.71 L 834.77 398.34 L 836.18 411.75 L 838.05 424.04 L 840.35 435.27 L 843.03 445.53 L 846.08 454.88 L 849.46 463.39 L 853.15 471.12 L 857.13 478.13 L 861.41 484.47 L 865.96 490.19 L 870.80 495.34 L 875.93 499.94 L 881.36 504.02 L 887.12 507.60" fill="none" group-id="1,10" id="路径-36" node-id="26" stroke="#9e994b" stroke-linecap="round" stroke-width="6" target-height="267.6" target-width="53.609985" target-x="833.51" target-y="240"></path><path d="M 945.50 240.00 L 942.40 298.48 L 940.15 351.68 L 938.70 399.91 L 937.95 443.51 L 937.85 482.78 L 938.34 518.02 L 939.34 549.53 L 940.80 577.58 L 942.67 602.44 L 944.88 624.36 L 947.39 643.60 L 950.14 660.39 L 953.10 674.95 L 956.22 687.49 L 959.45 698.22 L 962.78 707.32 L 966.16 714.99" fill="none" group-id="1,11" id="路径-36" node-id="27" stroke="#9e994b" stroke-linecap="round" stroke-width="6" target-height="474.99" target-width="28.309998" target-x="937.85" target-y="240"></path><path d="M 280.47 240.00 L 283.58 298.48 L 285.82 351.68 L 287.28 399.91 L 288.03 443.51 L 288.12 482.78 L 287.64 518.02 L 286.64 549.53 L 285.17 577.58 L 283.31 602.44 L 281.09 624.36 L 278.59 643.60 L 275.83 660.39 L 272.88 674.95 L 269.76 687.49 L 266.52 698.22 L 263.20 707.32 L 259.82 714.99" fill="none" group-id="1" id="路径-36" node-id="28" stroke="#9e994b" stroke-linecap="round" stroke-width="6" target-height="474.99" target-width="28.299988" target-x="259.82" target-y="240"></path><path d="M 422.06 299.46 L 423.95 310.44 L 425.10 320.60 L 425.56 330.02 L 425.40 338.74 L 424.65 346.83 L 423.35 354.34 L 421.54 361.31 L 419.23 367.80 L 416.44 373.84 L 413.16 379.48 L 409.39 384.73 L 405.12 389.63 L 400.32 394.20 L 394.95 398.43 L 388.98 402.35 L 382.36 405.94 L 375.03 409.19 L 366.57 412.88 L 358.72 416.96 L 351.44 421.40 L 344.70 426.22 L 338.46 431.41 L 332.70 436.98 L 327.40 442.94 L 322.55 449.31 L 318.14 456.11 L 314.15 463.37 L 310.61 471.11 L 307.50 479.36 L 304.84 488.17 L 302.65 497.57 L 300.94 507.60" fill="none" group-id="1" id="路径-36" node-id="29" stroke="#9e994b" stroke-linecap="round" stroke-width="6" target-height="208.14001" target-width="124.619995" target-x="300.94" target-y="299.46"></path><path d="M 523.20 873.60 L 522.88 878.22 L 522.00 882.56 L 520.56 886.68 L 518.60 890.58 L 516.20 894.13 L 513.36 897.36 L 510.13 900.20 L 506.58 902.60 L 502.68 904.56 L 498.56 906.00 L 494.22 906.88 L 489.60 907.20 L 484.98 906.88 L 480.64 906.00 L 476.52 904.56 L 472.62 902.60 L 469.07 900.20 L 465.84 897.36 L 463.00 894.13 L 460.60 890.58 L 458.64 886.68 L 457.20 882.56 L 456.32 878.22 L 456.00 873.60 L 456.32 868.98 L 457.20 864.64 L 458.64 860.52 L 460.60 856.62 L 463.00 853.07 L 465.84 849.84 L 469.07 847.00 L 472.62 844.60 L 476.52 842.64 L 480.64 841.20 L 484.98 840.32 L 489.60 840.00 L 494.22 840.32 L 498.56 841.20 L 502.68 842.64 L 506.58 844.60 L 510.13 847.00 L 513.36 849.84 L 516.20 853.07 L 518.60 856.62 L 520.56 860.52 L 522.00 864.64 L 522.88 868.98 L 523.20 873.60 Z" fill="#bab450" fill-rule="evenodd" group-id="1" id="椭圆形" node-id="30" stroke="none" target-height="67.20001" target-width="67.20001" target-x="456" target-y="840"></path><path d="M 784.80 873.60 L 784.48 878.22 L 783.60 882.56 L 782.16 886.68 L 780.20 890.58 L 777.80 894.13 L 774.96 897.36 L 771.73 900.20 L 768.18 902.60 L 764.28 904.56 L 760.16 906.00 L 755.82 906.88 L 751.20 907.20 L 746.58 906.88 L 742.24 906.00 L 738.12 904.56 L 734.22 902.60 L 730.67 900.20 L 727.44 897.36 L 724.60 894.13 L 722.20 890.58 L 720.24 886.68 L 718.80 882.56 L 717.92 878.22 L 717.60 873.60 L 717.92 868.98 L 718.80 864.64 L 720.24 860.52 L 722.20 856.62 L 724.60 853.07 L 727.44 849.84 L 730.67 847.00 L 734.22 844.60 L 738.12 842.64 L 742.24 841.20 L 746.58 840.32 L 751.20 840.00 L 755.82 840.32 L 760.16 841.20 L 764.28 842.64 L 768.18 844.60 L 771.73 847.00 L 774.96 849.84 L 777.80 853.07 L 780.20 856.62 L 782.16 860.52 L 783.60 864.64 L 784.48 868.98 L 784.80 873.60 Z" fill="#bab450" fill-rule="evenodd" group-id="1" id="椭圆形" node-id="31" stroke="none" target-height="67.20001" target-width="67.20001" target-x="717.6" target-y="840"></path><path d="M 836.40 903.00 L 836.15 906.54 L 835.48 909.88 L 834.37 913.04 L 832.87 916.04 L 831.03 918.76 L 828.84 921.24 L 826.36 923.43 L 823.64 925.27 L 820.64 926.77 L 817.48 927.88 L 814.14 928.55 L 810.60 928.80 L 807.06 928.55 L 803.72 927.88 L 800.56 926.77 L 797.56 925.27 L 794.84 923.43 L 792.36 921.24 L 790.17 918.76 L 788.33 916.04 L 786.83 913.04 L 785.72 909.88 L 785.05 906.54 L 784.80 903.00 L 785.05 899.46 L 785.72 896.12 L 786.83 892.96 L 788.33 889.96 L 790.17 887.24 L 792.36 884.76 L 794.84 882.57 L 797.56 880.73 L 800.56 879.23 L 803.72 878.12 L 807.06 877.45 L 810.60 877.20 L 814.14 877.45 L 817.48 878.12 L 820.64 879.23 L 823.64 880.73 L 826.36 882.57 L 828.84 884.76 L 831.03 887.24 L 832.87 889.96 L 834.37 892.96 L 835.48 896.12 L 836.15 899.46 L 836.40 903.00 Z" fill="#bab450" fill-rule="evenodd" group-id="1" id="椭圆形" node-id="32" stroke="none" target-height="51.599976" target-width="51.600037" target-x="784.8" target-y="877.2"></path><path d="M 931.20 859.20 L 930.88 863.82 L 930.00 868.16 L 928.56 872.28 L 926.60 876.18 L 924.20 879.73 L 921.36 882.96 L 918.13 885.80 L 914.58 888.20 L 910.68 890.16 L 906.56 891.60 L 902.22 892.48 L 897.60 892.80 L 892.98 892.48 L 888.64 891.60 L 884.52 890.16 L 880.62 888.20 L 877.07 885.80 L 873.84 882.96 L 871.00 879.73 L 868.60 876.18 L 866.64 872.28 L 865.20 868.16 L 864.32 863.82 L 864.00 859.20 L 864.32 854.58 L 865.20 850.24 L 866.64 846.12 L 868.60 842.22 L 871.00 838.67 L 873.84 835.44 L 877.07 832.60 L 880.62 830.20 L 884.52 828.24 L 888.64 826.80 L 892.98 825.92 L 897.60 825.60 L 902.22 825.92 L 906.56 826.80 L 910.68 828.24 L 914.58 830.20 L 918.13 832.60 L 921.36 835.44 L 924.20 838.67 L 926.60 842.22 L 928.56 846.12 L 930.00 850.24 L 930.88 854.58 L 931.20 859.20 Z" fill="#bab450" fill-rule="evenodd" group-id="1" id="椭圆形" node-id="33" stroke="none" target-height="67.20001" target-width="67.20001" target-x="864" target-y="825.6"></path><path d="M 394.80 853.20 L 394.48 857.82 L 393.60 862.16 L 392.16 866.28 L 390.20 870.18 L 387.80 873.73 L 384.96 876.96 L 381.73 879.80 L 378.18 882.20 L 374.28 884.16 L 370.16 885.60 L 365.82 886.48 L 361.20 886.80 L 356.58 886.48 L 352.24 885.60 L 348.12 884.16 L 344.22 882.20 L 340.67 879.80 L 337.44 876.96 L 334.60 873.73 L 332.20 870.18 L 330.24 866.28 L 328.80 862.16 L 327.92 857.82 L 327.60 853.20 L 327.92 848.58 L 328.80 844.24 L 330.24 840.12 L 332.20 836.22 L 334.60 832.67 L 337.44 829.44 L 340.67 826.60 L 344.22 824.20 L 348.12 822.24 L 352.24 820.80 L 356.58 819.92 L 361.20 819.60 L 365.82 819.92 L 370.16 820.80 L 374.28 822.24 L 378.18 824.20 L 381.73 826.60 L 384.96 829.44 L 387.80 832.67 L 390.20 836.22 L 392.16 840.12 L 393.60 844.24 L 394.48 848.58 L 394.80 853.20 Z" fill="#bab450" fill-rule="evenodd" group-id="1" id="椭圆形" node-id="34" stroke="none" target-height="67.20001" target-width="67.19998" target-x="327.6" target-y="819.6"></path><path d="M 428.40 902.40 L 428.17 905.70 L 427.54 908.80 L 426.51 911.74 L 425.11 914.53 L 423.40 917.06 L 421.37 919.37 L 419.06 921.40 L 416.53 923.11 L 413.74 924.51 L 410.80 925.54 L 407.70 926.17 L 404.40 926.40 L 401.10 926.17 L 398.00 925.54 L 395.06 924.51 L 392.27 923.11 L 389.74 921.40 L 387.43 919.37 L 385.40 917.06 L 383.69 914.53 L 382.29 911.74 L 381.26 908.80 L 380.63 905.70 L 380.40 902.40 L 380.63 899.10 L 381.26 896.00 L 382.29 893.06 L 383.69 890.27 L 385.40 887.74 L 387.43 885.43 L 389.74 883.40 L 392.27 881.69 L 395.06 880.29 L 398.00 879.26 L 401.10 878.63 L 404.40 878.40 L 407.70 878.63 L 410.80 879.26 L 413.74 880.29 L 416.53 881.69 L 419.06 883.40 L 421.37 885.43 L 423.40 887.74 L 425.11 890.27 L 426.51 893.06 L 427.54 896.00 L 428.17 899.10 L 428.40 902.40 Z" fill="#bab450" fill-rule="evenodd" group-id="1" id="椭圆形" node-id="35" stroke="none" target-height="48" target-width="48" target-x="380.4" target-y="878.4"></path><path d="M 608.40 674.75 L 620.00 671.76 L 626.26 670.41 L 632.52 669.56 L 638.80 669.20 L 645.12 669.34 L 651.41 669.96 L 657.60 671.07 L 663.72 672.66 L 669.77 674.75 L 669.77 674.75 L 669.77 674.75" fill="none" group-id="1" id="路径-37" node-id="36" stroke="#ffffff" stroke-linecap="round" stroke-width="6" target-height="5.549988" target-width="61.369995" target-x="608.4" target-y="669.2"></path><path d="M 1181.40 480.00 L 1181.16 490.84 L 1180.49 501.14 L 1179.41 510.91 L 1177.88 520.65 L 1176.03 529.58 L 1173.88 537.76 L 1171.24 545.83 L 1168.42 552.85 L 1165.43 558.93 L 1162.79 563.39 L 1160.12 567.15 L 1157.43 570.26 L 1154.73 572.81 L 1151.65 575.04 L 1148.60 576.57 L 1145.53 577.48 L 1142.40 577.80 L 1139.27 577.48 L 1136.20 576.57 L 1133.15 575.04 L 1130.07 572.81 L 1127.37 570.26 L 1124.68 567.15 L 1122.01 563.39 L 1119.37 558.93 L 1116.38 552.85 L 1113.56 545.83 L 1110.92 537.76 L 1108.77 529.58 L 1106.92 520.65 L 1105.39 510.91 L 1104.31 501.14 L 1103.64 490.84 L 1103.40 480.00 L 1103.64 469.16 L 1104.31 458.86 L 1105.39 449.09 L 1106.92 439.35 L 1108.77 430.42 L 1110.92 422.24 L 1113.56 414.17 L 1116.38 407.15 L 1119.37 401.07 L 1122.01 396.61 L 1124.68 392.85 L 1127.37 389.74 L 1130.07 387.19 L 1133.15 384.96 L 1136.20 383.43 L 1139.27 382.52 L 1142.40 382.20 L 1145.53 382.52 L 1148.60 383.43 L 1151.65 384.96 L 1154.73 387.19 L 1157.43 389.74 L 1160.12 392.85 L 1162.79 396.61 L 1165.43 401.07 L 1168.42 407.15 L 1171.24 414.17 L 1173.88 422.24 L 1176.03 430.42 L 1177.88 439.35 L 1179.41 449.09 L 1180.49 458.86 L 1181.16 469.16 L 1181.40 480.00 Z" fill="none" group-id="1" id="椭圆形" node-id="37" stroke="#9e994b" stroke-linecap="butt" stroke-width="6" target-height="195.59998" target-width="78" target-x="1103.4" target-y="382.2"></path><path d="M 198.60 600.00 L 198.36 610.84 L 197.69 621.14 L 196.61 630.91 L 195.08 640.65 L 193.23 649.58 L 191.08 657.76 L 188.44 665.83 L 185.62 672.85 L 182.63 678.93 L 179.99 683.39 L 177.32 687.15 L 174.63 690.26 L 171.93 692.81 L 168.85 695.04 L 165.80 696.57 L 162.73 697.48 L 159.60 697.80 L 156.47 697.48 L 153.40 696.57 L 150.35 695.04 L 147.27 692.81 L 144.57 690.26 L 141.88 687.15 L 139.21 683.39 L 136.57 678.93 L 133.58 672.85 L 130.76 665.83 L 128.12 657.76 L 125.97 649.58 L 124.12 640.65 L 122.59 630.91 L 121.51 621.14 L 120.84 610.84 L 120.60 600.00 L 120.84 589.16 L 121.51 578.86 L 122.59 569.09 L 124.12 559.35 L 125.97 550.42 L 128.12 542.24 L 130.76 534.17 L 133.58 527.15 L 136.57 521.07 L 139.21 516.61 L 141.88 512.85 L 144.57 509.74 L 147.27 507.19 L 150.35 504.96 L 153.40 503.43 L 156.47 502.52 L 159.60 502.20 L 162.73 502.52 L 165.80 503.43 L 168.85 504.96 L 171.93 507.19 L 174.63 509.74 L 177.32 512.85 L 179.99 516.61 L 182.63 521.07 L 185.62 527.15 L 188.44 534.17 L 191.08 542.24 L 193.23 550.42 L 195.08 559.35 L 196.61 569.09 L 197.69 578.86 L 198.36 589.16 L 198.60 600.00 Z" fill="none" group-id="1" id="椭圆形" node-id="38" stroke="#9e994b" stroke-linecap="butt" stroke-width="6" target-height="195.59998" target-width="78.00001" target-x="120.6" target-y="502.2"></path><path d="M 181.80 600.00 L 181.56 610.84 L 180.89 621.14 L 179.81 630.91 L 178.28 640.65 L 176.43 649.58 L 174.28 657.76 L 171.64 665.83 L 168.82 672.85 L 165.83 678.93 L 163.19 683.39 L 160.52 687.15 L 157.83 690.26 L 155.13 692.81 L 152.05 695.04 L 149.00 696.57 L 145.93 697.48 L 142.80 697.80 L 139.67 697.48 L 136.60 696.57 L 133.55 695.04 L 130.47 692.81 L 127.77 690.26 L 125.08 687.15 L 122.41 683.39 L 119.77 678.93 L 116.78 672.85 L 113.96 665.83 L 111.32 657.76 L 109.17 649.58 L 107.32 640.65 L 105.79 630.91 L 104.71 621.14 L 104.04 610.84 L 103.80 600.00 L 104.04 589.16 L 104.71 578.86 L 105.79 569.09 L 107.32 559.35 L 109.17 550.42 L 111.32 542.24 L 113.96 534.17 L 116.78 527.15 L 119.77 521.07 L 122.41 516.61 L 125.08 512.85 L 127.77 509.74 L 130.47 507.19 L 133.55 504.96 L 136.60 503.43 L 139.67 502.52 L 142.80 502.20 L 145.93 502.52 L 149.00 503.43 L 152.05 504.96 L 155.13 507.19 L 157.83 509.74 L 160.52 512.85 L 163.19 516.61 L 165.83 521.07 L 168.82 527.15 L 171.64 534.17 L 174.28 542.24 L 176.43 550.42 L 178.28 559.35 L 179.81 569.09 L 180.89 578.86 L 181.56 589.16 L 181.80 600.00 Z" fill="none" group-id="1" id="椭圆形" node-id="39" stroke="#9e994b" stroke-linecap="butt" stroke-width="6" target-height="195.59998" target-width="78" target-x="103.8" target-y="502.2"></path><path d="M 165.00 600.00 L 164.76 610.84 L 164.09 621.14 L 163.01 630.91 L 161.48 640.65 L 159.63 649.58 L 157.48 657.76 L 154.84 665.83 L 152.02 672.85 L 149.03 678.93 L 146.39 683.39 L 143.72 687.15 L 141.03 690.26 L 138.33 692.81 L 135.25 695.04 L 132.20 696.57 L 129.13 697.48 L 126.00 697.80 L 122.87 697.48 L 119.80 696.57 L 116.75 695.04 L 113.67 692.81 L 110.97 690.26 L 108.28 687.15 L 105.61 683.39 L 102.97 678.93 L 99.98 672.85 L 97.16 665.83 L 94.52 657.76 L 92.37 649.58 L 90.52 640.65 L 88.99 630.91 L 87.91 621.14 L 87.24 610.84 L 87.00 600.00 L 87.24 589.16 L 87.91 578.86 L 88.99 569.09 L 90.52 559.35 L 92.37 550.42 L 94.52 542.24 L 97.16 534.17 L 99.98 527.15 L 102.97 521.07 L 105.61 516.61 L 108.28 512.85 L 110.97 509.74 L 113.67 507.19 L 116.75 504.96 L 119.80 503.43 L 122.87 502.52 L 126.00 502.20 L 129.13 502.52 L 132.20 503.43 L 135.25 504.96 L 138.33 507.19 L 141.03 509.74 L 143.72 512.85 L 146.39 516.61 L 149.03 521.07 L 152.02 527.15 L 154.84 534.17 L 157.48 542.24 L 159.63 550.42 L 161.48 559.35 L 163.01 569.09 L 164.09 578.86 L 164.76 589.16 L 165.00 600.00 Z" fill="none" group-id="1" id="椭圆形" node-id="40" stroke="#9e994b" stroke-linecap="butt" stroke-width="6" target-height="195.59998" target-width="78" target-x="87" target-y="502.2"></path><path d="M 144.60 600.00 L 144.36 610.84 L 143.69 621.14 L 142.61 630.91 L 141.08 640.65 L 139.23 649.58 L 137.08 657.76 L 134.44 665.83 L 131.62 672.85 L 128.63 678.93 L 125.99 683.39 L 123.32 687.15 L 120.63 690.26 L 117.93 692.81 L 114.85 695.04 L 111.80 696.57 L 108.73 697.48 L 105.60 697.80 L 102.47 697.48 L 99.40 696.57 L 96.35 695.04 L 93.27 692.81 L 90.57 690.26 L 87.88 687.15 L 85.21 683.39 L 82.57 678.93 L 79.58 672.85 L 76.76 665.83 L 74.12 657.76 L 71.97 649.58 L 70.12 640.65 L 68.59 630.91 L 67.51 621.14 L 66.84 610.84 L 66.60 600.00 L 66.84 589.16 L 67.51 578.86 L 68.59 569.09 L 70.12 559.35 L 71.97 550.42 L 74.12 542.24 L 76.76 534.17 L 79.58 527.15 L 82.57 521.07 L 85.21 516.61 L 87.88 512.85 L 90.57 509.74 L 93.27 507.19 L 96.35 504.96 L 99.40 503.43 L 102.47 502.52 L 105.60 502.20 L 108.73 502.52 L 111.80 503.43 L 114.85 504.96 L 117.93 507.19 L 120.63 509.74 L 123.32 512.85 L 125.99 516.61 L 128.63 521.07 L 131.62 527.15 L 134.44 534.17 L 137.08 542.24 L 139.23 550.42 L 141.08 559.35 L 142.61 569.09 L 143.69 578.86 L 144.36 589.16 L 144.60 600.00 Z" fill="none" group-id="1" id="椭圆形" node-id="41" stroke="#9e994b" stroke-linecap="butt" stroke-width="6" target-height="195.59998" target-width="78.00001" target-x="66.6" target-y="502.2"></path><path d="M 121.80 600.00 L 121.56 610.84 L 120.89 621.14 L 119.81 630.91 L 118.28 640.65 L 116.43 649.58 L 114.28 657.76 L 111.64 665.83 L 108.82 672.85 L 105.83 678.93 L 103.19 683.39 L 100.52 687.15 L 97.83 690.26 L 95.13 692.81 L 92.05 695.04 L 89.00 696.57 L 85.93 697.48 L 82.80 697.80 L 79.67 697.48 L 76.60 696.57 L 73.55 695.04 L 70.47 692.81 L 67.77 690.26 L 65.08 687.15 L 62.41 683.39 L 59.77 678.93 L 56.78 672.85 L 53.96 665.83 L 51.32 657.76 L 49.17 649.58 L 47.32 640.65 L 45.79 630.91 L 44.71 621.14 L 44.04 610.84 L 43.80 600.00 L 44.04 589.16 L 44.71 578.86 L 45.79 569.09 L 47.32 559.35 L 49.17 550.42 L 51.32 542.24 L 53.96 534.17 L 56.78 527.15 L 59.77 521.07 L 62.41 516.61 L 65.08 512.85 L 67.77 509.74 L 70.47 507.19 L 73.55 504.96 L 76.60 503.43 L 79.67 502.52 L 82.80 502.20 L 85.93 502.52 L 89.00 503.43 L 92.05 504.96 L 95.13 507.19 L 97.83 509.74 L 100.52 512.85 L 103.19 516.61 L 105.83 521.07 L 108.82 527.15 L 111.64 534.17 L 114.28 542.24 L 116.43 550.42 L 118.28 559.35 L 119.81 569.09 L 120.89 578.86 L 121.56 589.16 L 121.80 600.00 Z" fill="none" group-id="1" id="椭圆形" node-id="42" stroke="#9e994b" stroke-linecap="butt" stroke-width="6" target-height="195.59998" target-width="78" target-x="43.8" target-y="502.2"></path><path d="M 1164.60 480.00 L 1164.36 490.84 L 1163.69 501.14 L 1162.61 510.91 L 1161.08 520.65 L 1159.23 529.58 L 1157.08 537.76 L 1154.44 545.83 L 1151.62 552.85 L 1148.63 558.93 L 1145.99 563.39 L 1143.32 567.15 L 1140.63 570.26 L 1137.93 572.81 L 1134.85 575.04 L 1131.80 576.57 L 1128.73 577.48 L 1125.60 577.80 L 1122.47 577.48 L 1119.40 576.57 L 1116.35 575.04 L 1113.27 572.81 L 1110.57 570.26 L 1107.88 567.15 L 1105.21 563.39 L 1102.57 558.93 L 1099.58 552.85 L 1096.76 545.83 L 1094.12 537.76 L 1091.97 529.58 L 1090.12 520.65 L 1088.59 510.91 L 1087.51 501.14 L 1086.84 490.84 L 1086.60 480.00 L 1086.84 469.16 L 1087.51 458.86 L 1088.59 449.09 L 1090.12 439.35 L 1091.97 430.42 L 1094.12 422.24 L 1096.76 414.17 L 1099.58 407.15 L 1102.57 401.07 L 1105.21 396.61 L 1107.88 392.85 L 1110.57 389.74 L 1113.27 387.19 L 1116.35 384.96 L 1119.40 383.43 L 1122.47 382.52 L 1125.60 382.20 L 1128.73 382.52 L 1131.80 383.43 L 1134.85 384.96 L 1137.93 387.19 L 1140.63 389.74 L 1143.32 392.85 L 1145.99 396.61 L 1148.63 401.07 L 1151.62 407.15 L 1154.44 414.17 L 1157.08 422.24 L 1159.23 430.42 L 1161.08 439.35 L 1162.61 449.09 L 1163.69 458.86 L 1164.36 469.16 L 1164.60 480.00 Z" fill="none" group-id="1" id="椭圆形" node-id="43" stroke="#9e994b" stroke-linecap="butt" stroke-width="6" target-height="195.59998" target-width="78" target-x="1086.6" target-y="382.2"></path><path d="M 1147.80 480.00 L 1147.56 490.84 L 1146.89 501.14 L 1145.81 510.91 L 1144.28 520.65 L 1142.43 529.58 L 1140.28 537.76 L 1137.64 545.83 L 1134.82 552.85 L 1131.83 558.93 L 1129.19 563.39 L 1126.52 567.15 L 1123.83 570.26 L 1121.13 572.81 L 1118.05 575.04 L 1115.00 576.57 L 1111.93 577.48 L 1108.80 577.80 L 1105.67 577.48 L 1102.60 576.57 L 1099.55 575.04 L 1096.47 572.81 L 1093.77 570.26 L 1091.08 567.15 L 1088.41 563.39 L 1085.77 558.93 L 1082.78 552.85 L 1079.96 545.83 L 1077.32 537.76 L 1075.17 529.58 L 1073.32 520.65 L 1071.79 510.91 L 1070.71 501.14 L 1070.04 490.84 L 1069.80 480.00 L 1070.04 469.16 L 1070.71 458.86 L 1071.79 449.09 L 1073.32 439.35 L 1075.17 430.42 L 1077.32 422.24 L 1079.96 414.17 L 1082.78 407.15 L 1085.77 401.07 L 1088.41 396.61 L 1091.08 392.85 L 1093.77 389.74 L 1096.47 387.19 L 1099.55 384.96 L 1102.60 383.43 L 1105.67 382.52 L 1108.80 382.20 L 1111.93 382.52 L 1115.00 383.43 L 1118.05 384.96 L 1121.13 387.19 L 1123.83 389.74 L 1126.52 392.85 L 1129.19 396.61 L 1131.83 401.07 L 1134.82 407.15 L 1137.64 414.17 L 1140.28 422.24 L 1142.43 430.42 L 1144.28 439.35 L 1145.81 449.09 L 1146.89 458.86 L 1147.56 469.16 L 1147.80 480.00 Z" fill="none" group-id="1" id="椭圆形" node-id="44" stroke="#9e994b" stroke-linecap="butt" stroke-width="6" target-height="195.59998" target-width="78" target-x="1069.8" target-y="382.2"></path><path d="M 1127.40 480.00 L 1127.16 490.84 L 1126.49 501.14 L 1125.41 510.91 L 1123.88 520.65 L 1122.03 529.58 L 1119.88 537.76 L 1117.24 545.83 L 1114.42 552.85 L 1111.43 558.93 L 1108.79 563.39 L 1106.12 567.15 L 1103.43 570.26 L 1100.73 572.81 L 1097.65 575.04 L 1094.60 576.57 L 1091.53 577.48 L 1088.40 577.80 L 1085.27 577.48 L 1082.20 576.57 L 1079.15 575.04 L 1076.07 572.81 L 1073.37 570.26 L 1070.68 567.15 L 1068.01 563.39 L 1065.37 558.93 L 1062.38 552.85 L 1059.56 545.83 L 1056.92 537.76 L 1054.77 529.58 L 1052.92 520.65 L 1051.39 510.91 L 1050.31 501.14 L 1049.64 490.84 L 1049.40 480.00 L 1049.64 469.16 L 1050.31 458.86 L 1051.39 449.09 L 1052.92 439.35 L 1054.77 430.42 L 1056.92 422.24 L 1059.56 414.17 L 1062.38 407.15 L 1065.37 401.07 L 1068.01 396.61 L 1070.68 392.85 L 1073.37 389.74 L 1076.07 387.19 L 1079.15 384.96 L 1082.20 383.43 L 1085.27 382.52 L 1088.40 382.20 L 1091.53 382.52 L 1094.60 383.43 L 1097.65 384.96 L 1100.73 387.19 L 1103.43 389.74 L 1106.12 392.85 L 1108.79 396.61 L 1111.43 401.07 L 1114.42 407.15 L 1117.24 414.17 L 1119.88 422.24 L 1122.03 430.42 L 1123.88 439.35 L 1125.41 449.09 L 1126.49 458.86 L 1127.16 469.16 L 1127.40 480.00 Z" fill="none" group-id="1" id="椭圆形" node-id="45" stroke="#9e994b" stroke-linecap="butt" stroke-width="6" target-height="195.59998" target-width="78" target-x="1049.4" target-y="382.2"></path><path d="M 1104.60 480.00 L 1104.36 490.84 L 1103.69 501.14 L 1102.61 510.91 L 1101.08 520.65 L 1099.23 529.58 L 1097.08 537.76 L 1094.44 545.83 L 1091.62 552.85 L 1088.63 558.93 L 1085.99 563.39 L 1083.32 567.15 L 1080.63 570.26 L 1077.93 572.81 L 1074.85 575.04 L 1071.80 576.57 L 1068.73 577.48 L 1065.60 577.80 L 1062.47 577.48 L 1059.40 576.57 L 1056.35 575.04 L 1053.27 572.81 L 1050.57 570.26 L 1047.88 567.15 L 1045.21 563.39 L 1042.57 558.93 L 1039.58 552.85 L 1036.76 545.83 L 1034.12 537.76 L 1031.97 529.58 L 1030.12 520.65 L 1028.59 510.91 L 1027.51 501.14 L 1026.84 490.84 L 1026.60 480.00 L 1026.84 469.16 L 1027.51 458.86 L 1028.59 449.09 L 1030.12 439.35 L 1031.97 430.42 L 1034.12 422.24 L 1036.76 414.17 L 1039.58 407.15 L 1042.57 401.07 L 1045.21 396.61 L 1047.88 392.85 L 1050.57 389.74 L 1053.27 387.19 L 1056.35 384.96 L 1059.40 383.43 L 1062.47 382.52 L 1065.60 382.20 L 1068.73 382.52 L 1071.80 383.43 L 1074.85 384.96 L 1077.93 387.19 L 1080.63 389.74 L 1083.32 392.85 L 1085.99 396.61 L 1088.63 401.07 L 1091.62 407.15 L 1094.44 414.17 L 1097.08 422.24 L 1099.23 430.42 L 1101.08 439.35 L 1102.61 449.09 L 1103.69 458.86 L 1104.36 469.16 L 1104.60 480.00 Z" fill="none" group-id="1" id="椭圆形" node-id="46" stroke="#9e994b" stroke-linecap="butt" stroke-width="6" target-height="195.59998" target-width="78" target-x="1026.6" target-y="382.2"></path><path d="M 860.31 318.49 L 863.55 348.27 L 866.92 374.42 L 870.39 397.25 L 873.93 417.05 L 877.52 434.10 L 881.11 448.68 L 884.70 461.04 L 888.24 471.42 L 891.73 480.04 L 895.15 487.12 L 898.48 492.85 L 901.73 497.42 L 904.88 500.99 L 907.95 503.69 L 910.96 505.66 L 913.94 506.98 L 916.91 507.73 L 919.94 507.94 L 923.06 507.60" fill="none" group-id="1" id="路径-38" node-id="47" stroke="#9e994b" stroke-linecap="round" stroke-width="6" target-height="189.45001" target-width="62.75" target-x="860.31" target-y="318.49"></path></g></svg>